<svg width="37" height="38" viewBox="0 0 37 38" fill="none" xmlns="http://www.w3.org/2000/svg">
<path d="M18.5 4.76758C22.4397 4.76758 22.9312 4.78262 24.4769 4.8578C26.0212 4.93299 27.0724 5.1841 27.9975 5.55702C28.9545 5.93896 29.7607 6.45624 30.5669 7.29079C31.3042 8.04249 31.8747 8.95177 32.2388 9.95536C32.5969 10.9132 32.8405 12.0049 32.913 13.6063C32.9812 15.2093 33 15.7191 33 19.8046C33 23.8902 32.9855 24.3999 32.913 26.0029C32.8405 27.6043 32.5969 28.6945 32.2388 29.6539C31.8758 30.658 31.3051 31.5675 30.5669 32.3184C29.8418 33.0828 28.9651 33.6744 27.9975 34.0522C27.0738 34.4236 26.0212 34.6762 24.4769 34.7514C22.9312 34.8221 22.4397 34.8417 18.5 34.8417C14.5604 34.8417 14.0688 34.8266 12.5231 34.7514C10.9788 34.6762 9.9276 34.4236 9.0025 34.0522C8.03437 33.6755 7.15741 33.0837 6.4331 32.3184C5.69564 31.5669 5.1251 30.6575 4.76125 29.6539C4.40165 28.696 4.1595 27.6043 4.087 26.0029C4.01885 24.3999 4 23.8902 4 19.8046C4 15.7191 4.0145 15.2093 4.087 13.6063C4.1595 12.0034 4.40165 10.9147 4.76125 9.95536C5.12409 8.95115 5.69477 8.04162 6.4331 7.29079C7.15762 6.52576 8.03452 5.93405 9.0025 5.55702C9.9276 5.1841 10.9774 4.93299 12.5231 4.8578C14.0688 4.78713 14.5604 4.76758 18.5 4.76758ZM18.5 12.2861C16.5772 12.2861 14.7331 13.0782 13.3735 14.4882C12.0138 15.8982 11.25 17.8106 11.25 19.8046C11.25 21.7987 12.0138 23.711 13.3735 25.121C14.7331 26.531 16.5772 27.3231 18.5 27.3231C20.4228 27.3231 22.2669 26.531 23.6265 25.121C24.9862 23.711 25.75 21.7987 25.75 19.8046C25.75 17.8106 24.9862 15.8982 23.6265 14.4882C22.2669 13.0782 20.4228 12.2861 18.5 12.2861ZM27.925 11.9102C27.925 11.4117 27.734 10.9336 27.3941 10.5811C27.0542 10.2286 26.5932 10.0305 26.1125 10.0305C25.6318 10.0305 25.1708 10.2286 24.8309 10.5811C24.491 10.9336 24.3 11.4117 24.3 11.9102C24.3 12.4087 24.491 12.8868 24.8309 13.2393C25.1708 13.5918 25.6318 13.7898 26.1125 13.7898C26.5932 13.7898 27.0542 13.5918 27.3941 13.2393C27.734 12.8868 27.925 12.4087 27.925 11.9102ZM18.5 15.2935C19.6537 15.2935 20.7601 15.7688 21.5759 16.6148C22.3917 17.4608 22.85 18.6082 22.85 19.8046C22.85 21.001 22.3917 22.1485 21.5759 22.9945C20.7601 23.8405 19.6537 24.3157 18.5 24.3157C17.3463 24.3157 16.2399 23.8405 15.4241 22.9945C14.6083 22.1485 14.15 21.001 14.15 19.8046C14.15 18.6082 14.6083 17.4608 15.4241 16.6148C16.2399 15.7688 17.3463 15.2935 18.5 15.2935Z" fill="#0C2638"/>
</svg>
