<svg width="37" height="38" viewBox="0 0 37 38" fill="none" xmlns="http://www.w3.org/2000/svg">
<path d="M18.501 3.61279C14.3659 3.61279 10.3966 5.25682 7.47502 8.18034C4.55043 11.105 2.90706 15.0715 2.90625 19.2075C2.90625 23.3418 4.55101 27.3112 7.47502 30.2347C10.3966 33.1582 14.3659 34.8022 18.501 34.8022C22.636 34.8022 26.6054 33.1582 29.5269 30.2347C32.4509 27.3112 34.0957 23.3418 34.0957 19.2075C34.0957 15.0732 32.4509 11.1039 29.5269 8.18034C26.6054 5.25682 22.636 3.61279 18.501 3.61279Z" fill="#0C2638"/>
<path d="M9.96481 19.0427C14.5116 17.0622 17.5429 15.7563 19.0585 15.1255C23.3909 13.324 24.29 13.0112 24.8773 13.0006C25.0064 12.9985 25.2939 13.0304 25.4816 13.1821C25.6375 13.31 25.6814 13.483 25.7033 13.6045C25.7228 13.7259 25.7496 14.0024 25.7277 14.2183C25.4937 16.6842 24.4777 22.6682 23.9611 25.4302C23.7442 26.5988 23.3129 26.9906 22.8963 27.0289C21.9898 27.1122 21.3027 26.4304 20.4255 25.8556C19.0536 24.9558 18.2788 24.3958 16.9459 23.5179C15.4059 22.5033 16.4049 21.9455 17.2822 21.0342C17.5112 20.7956 21.5025 17.1662 21.578 16.837C21.5878 16.7958 21.5975 16.6423 21.5049 16.5614C21.4148 16.4803 21.2807 16.5081 21.1833 16.53C21.0444 16.5612 18.8538 18.0105 14.6042 20.8777C13.9829 21.3051 13.42 21.5135 12.9132 21.5025C12.3576 21.4906 11.2855 21.1877 10.4887 20.9289C9.51403 20.6114 8.73673 20.4435 8.80495 19.9043C8.83907 19.6236 9.2265 19.3363 9.96481 19.0427Z" fill="#F8FAFF"/>
</svg>
