<svg width="37" height="38" viewBox="0 0 37 38" fill="none" xmlns="http://www.w3.org/2000/svg">
<path fill-rule="evenodd" clip-rule="evenodd" d="M25.7084 4.75897C20.858 3.67475 15.8281 3.67475 10.9778 4.75897L10.4551 4.87459C9.09078 5.17963 7.8377 5.85692 6.83509 6.83122C5.83248 7.80553 5.1196 9.0387 4.77563 10.3938C3.54614 15.2385 3.54614 20.3136 4.77563 25.1583C5.10366 26.4506 5.76754 27.6332 6.69999 28.5863C7.63243 29.5393 8.80027 30.2288 10.0851 30.585L10.802 34.8646C10.8249 35.0005 10.8838 35.1278 10.9726 35.2332C11.0613 35.3386 11.1768 35.4183 11.3068 35.4639C11.4368 35.5096 11.5767 35.5196 11.7119 35.4928C11.8471 35.466 11.9726 35.4035 12.0754 35.3117L16.2857 31.5454C19.4463 31.7383 22.6182 31.4856 25.7084 30.7946L26.2325 30.679C27.5969 30.374 28.85 29.6967 29.8526 28.7224C30.8552 27.7481 31.5681 26.5149 31.912 25.1598C33.1414 20.3151 33.1414 15.24 31.912 10.3953C31.568 9.04005 30.8548 7.80674 29.8519 6.83241C28.849 5.85809 27.5956 5.18092 26.231 4.87613L25.7084 4.75897ZM12.2789 10.2689C11.9924 10.2272 11.7002 10.2849 11.451 10.4323H11.4295C10.8513 10.7715 10.3303 11.1985 9.88625 11.7011C9.51625 12.1281 9.31584 12.5598 9.26342 12.9761C9.23259 13.2227 9.25417 13.4725 9.32663 13.7083L9.35438 13.7238C9.77063 14.9463 10.3133 16.1226 10.9762 17.2295C11.831 18.7843 12.8829 20.2222 14.1058 21.5076L14.1428 21.5601L14.2014 21.6032L14.2368 21.6448L14.28 21.6818C15.57 22.9084 17.0113 23.9653 18.5689 24.8268C20.3495 25.7966 21.4303 26.2544 22.0793 26.4456V26.4548C22.2689 26.5134 22.4416 26.5396 22.6158 26.5396C23.1686 26.4988 23.6917 26.2741 24.102 25.9014C24.603 25.4574 25.027 24.9348 25.3569 24.3536V24.3428C25.6668 23.7569 25.5619 23.205 25.1148 22.8304C24.2168 22.0457 23.2458 21.3488 22.215 20.7491C21.5243 20.3745 20.8228 20.6011 20.5392 20.9804L19.9333 21.7451C19.6219 22.1243 19.0576 22.0719 19.0576 22.0719L19.0422 22.0811C14.8319 21.0066 13.708 16.7439 13.708 16.7439C13.708 16.7439 13.6556 16.1642 14.0457 15.8682L14.8042 15.2577C15.168 14.9617 15.4208 14.2618 15.0308 13.5711C14.4351 12.5394 13.7396 11.5686 12.9542 10.6728C12.7829 10.462 12.5426 10.3184 12.2758 10.2673L12.2789 10.2689ZM19.3922 8.4158C19.1877 8.4158 18.9917 8.49701 18.8471 8.64157C18.7025 8.78613 18.6213 8.9822 18.6213 9.18663C18.6213 9.39107 18.7025 9.58714 18.8471 9.7317C18.9917 9.87626 19.1877 9.95747 19.3922 9.95747C21.3424 9.95747 22.9611 10.5942 24.2423 11.8152C24.9005 12.4827 25.4139 13.2736 25.75 14.14C26.0876 15.008 26.2418 15.9345 26.2017 16.8626C26.1975 16.9638 26.2132 17.0649 26.248 17.16C26.2828 17.2552 26.336 17.3426 26.4046 17.4171C26.5431 17.5678 26.7357 17.6572 26.9402 17.6658C27.1446 17.6744 27.3441 17.6014 27.4947 17.4629C27.6453 17.3244 27.7348 17.1318 27.7434 16.9273C27.7912 15.7857 27.6017 14.6466 27.1868 13.5819C26.7702 12.5122 26.1384 11.5394 25.3307 10.7237L25.3153 10.7083C23.7258 9.18972 21.7139 8.4158 19.3922 8.4158ZM19.3398 10.9503C19.1353 10.9503 18.9393 11.0315 18.7947 11.1761C18.6501 11.3206 18.5689 11.5167 18.5689 11.7211C18.5689 11.9256 18.6501 12.1216 18.7947 12.2662C18.9393 12.4108 19.1353 12.492 19.3398 12.492H19.366C20.772 12.5922 21.7956 13.0608 22.5125 13.8301C23.2479 14.6226 23.6287 15.6077 23.5994 16.8256C23.5947 17.03 23.6714 17.228 23.8126 17.3758C23.9538 17.5237 24.148 17.6095 24.3525 17.6142C24.5569 17.6189 24.7549 17.5422 24.9027 17.4009C25.0506 17.2597 25.1363 17.0655 25.141 16.861C25.178 15.2623 24.6631 13.8826 23.6425 12.7818V12.7787C22.5988 11.6595 21.1666 11.0675 19.443 10.9518L19.4168 10.9488L19.3398 10.9503ZM19.3105 13.5326C19.2073 13.5235 19.1034 13.5353 19.0049 13.5672C18.9064 13.5992 18.8153 13.6507 18.7371 13.7186C18.659 13.7865 18.5953 13.8695 18.5499 13.9626C18.5045 14.0556 18.4783 14.1569 18.4729 14.2603C18.4675 14.3638 18.483 14.4672 18.5185 14.5645C18.554 14.6618 18.6087 14.7509 18.6794 14.8266C18.7501 14.9023 18.8353 14.963 18.9299 15.005C19.0246 15.047 19.1267 15.0695 19.2303 15.0712C19.8747 15.1051 20.2863 15.2993 20.5453 15.5599C20.8059 15.822 21.0001 16.2428 21.0356 16.9011C21.0375 17.0046 21.0602 17.1066 21.1024 17.2011C21.1446 17.2955 21.2054 17.3805 21.2811 17.451C21.3568 17.5215 21.446 17.5761 21.5432 17.6114C21.6405 17.6467 21.7438 17.662 21.8472 17.6565C21.9505 17.6511 22.0516 17.6248 22.1446 17.5794C22.2376 17.534 22.3204 17.4704 22.3883 17.3922C22.4561 17.3141 22.5075 17.2231 22.5395 17.1247C22.5714 17.0263 22.5832 16.9225 22.5742 16.8194C22.5248 15.8944 22.235 15.0773 21.6415 14.4761C21.0448 13.8748 20.2324 13.5819 19.3105 13.5326Z" fill="#0C2638"/>
</svg>
