<svg width="23" height="23" viewBox="0 0 23 23" fill="none" xmlns="http://www.w3.org/2000/svg">
<path d="M19.3242 4.38614C17.3469 2.15539 14.4698 0.744263 11.2504 0.744263C5.27633 0.744263 0.43457 5.58602 0.43457 11.5601H3.13852C3.13852 7.07742 6.76773 3.44821 11.2504 3.44821C13.7219 3.44821 15.9147 4.56782 17.3976 6.31271L14.8542 8.85611H22.0662V1.64417L19.3242 4.38614ZM11.2504 19.6719C8.77879 19.6719 6.58605 18.5523 5.10311 16.8074L7.64651 14.264H0.43457V21.4759L3.17654 18.734C5.15381 20.9647 8.0352 22.3759 11.2504 22.3759C17.2244 22.3759 22.0662 17.5341 22.0662 11.5601H19.3622C19.3622 16.0427 15.733 19.6719 11.2504 19.6719Z" fill="white"/>
</svg>
