<svg width="26" height="26" viewBox="0 0 26 26" fill="none" xmlns="http://www.w3.org/2000/svg">
<g clip-path="url(#clip0_0_3385)">
<path fill-rule="evenodd" clip-rule="evenodd" d="M9.34543 1.00276C11.7326 0.363155 14.2559 0.445785 16.5961 1.2402C18.9364 2.03461 20.9885 3.50513 22.493 5.46581C23.9975 7.42648 24.8869 9.78926 25.0486 12.2554C25.2103 14.7215 24.6371 17.1801 23.4014 19.3205C22.1658 21.4608 20.3233 23.1867 18.1068 24.2799C15.8904 25.3731 13.3995 25.7845 10.9492 25.4621C8.49894 25.1397 6.19929 24.0979 4.34105 22.4686C2.48282 20.8392 1.14946 18.6955 0.509575 16.3083C0.084667 14.7232 -0.0238379 13.0699 0.190257 11.4428C0.404351 9.81569 0.936852 8.24671 1.75735 6.82543C2.57785 5.40415 3.67028 4.15841 4.97225 3.15935C6.27422 2.16029 7.76023 1.42748 9.34543 1.00276Z" fill="#FBD433"/>
<path fill-rule="evenodd" clip-rule="evenodd" d="M9.39405 7.13861C10.2689 7.13861 10.9789 8.15586 10.9789 9.4315C10.9789 10.7071 10.2689 11.7244 9.39405 11.7244C8.51921 11.7244 7.8112 10.699 7.8112 9.4315C7.8112 8.164 8.51921 7.13861 9.39405 7.13861Z" fill="#141518"/>
<path fill-rule="evenodd" clip-rule="evenodd" d="M15.7661 7.13861C16.6409 7.13861 17.349 8.15586 17.349 9.4315C17.349 10.7071 16.6409 11.7244 15.7661 11.7244C14.8913 11.7244 14.1812 10.7071 14.1812 9.4315C14.1812 8.15586 14.8913 7.13861 15.7661 7.13861Z" fill="#141518"/>
<path d="M5.93946 14.9816C6.44647 15.6412 7.05246 16.2183 7.73592 16.6926C9.22993 17.7216 11.0084 18.2573 12.8222 18.2246C14.5931 18.2164 16.3141 17.637 17.7294 16.5726C18.316 16.1196 18.8298 15.5797 19.2533 14.9714C19.2616 14.9631 19.273 14.9584 19.2848 14.9584C19.2966 14.9584 19.3079 14.9631 19.3163 14.9714L19.8148 15.4536C19.8224 15.4616 19.8266 15.4721 19.8266 15.4831C19.8266 15.4941 19.8224 15.5047 19.8148 15.5126C19.1053 16.7454 18.1234 17.7996 16.9441 18.5949C15.7356 19.4095 14.3198 19.8626 12.8629 19.901C11.3825 19.9246 9.92516 19.5334 8.65552 18.7719C7.32248 17.96 6.19187 16.8551 5.34945 15.5411C5.34318 15.5329 5.33978 15.5229 5.33978 15.5126C5.33978 15.5023 5.34318 15.4923 5.34945 15.4841L5.86215 14.9755C5.86633 14.9711 5.87137 14.9675 5.87697 14.9651C5.88257 14.9627 5.8886 14.9615 5.8947 14.9615C5.90079 14.9615 5.90682 14.9627 5.91242 14.9651C5.91802 14.9675 5.92307 14.9711 5.92725 14.9755L5.93946 14.9816Z" fill="black"/>
</g>
<defs>
<clipPath id="clip0_0_3385">
<rect width="25" height="25" fill="white" transform="translate(0.0800781 0.573242)"/>
</clipPath>
</defs>
</svg>
