<svg width="51" height="51" viewBox="0 0 51 51" fill="none" xmlns="http://www.w3.org/2000/svg">
<path d="M13.9805 5.44271L17.4597 4.39376C18.6079 4.04812 19.8427 4.13198 20.9336 4.6297C22.0246 5.12742 22.8972 6.00501 23.3888 7.09876L25.8279 12.5231C26.2513 13.4642 26.3693 14.5142 26.1654 15.5257C25.9614 16.5373 25.4458 17.4595 24.691 18.1631L20.9783 21.6224C20.4808 22.0948 20.858 23.9359 22.6757 27.0863C24.4952 30.2386 25.9016 31.4851 26.55 31.2911L31.414 29.8039C32.3999 29.5023 33.4555 29.5168 34.4327 29.8454C35.41 30.1739 36.26 30.8001 36.8635 31.636L40.3301 36.4407C41.0302 37.4109 41.3545 38.6023 41.2425 39.7936C41.1305 40.9848 40.5899 42.0949 39.7212 42.9176L37.0413 45.4556C36.1762 46.2748 35.1092 46.85 33.9493 47.1223C32.7894 47.3946 31.578 47.3544 30.4387 47.0057C24.8239 45.2867 19.624 40.1857 14.769 31.7743C9.90325 23.3503 8.06578 16.2448 9.34644 10.4396C9.60474 9.26987 10.1703 8.19018 10.9849 7.31184C11.7994 6.43349 12.8335 5.78828 13.9805 5.44271Z" fill="#576778"/>
</svg>
