<svg width="51" height="51" viewBox="0 0 51 51" fill="none" xmlns="http://www.w3.org/2000/svg">
<path d="M6.65397 9.07565C5.5489 9.07565 4.48909 9.51464 3.70769 10.296C2.92629 11.0774 2.4873 12.1373 2.4873 13.2423V36.159H6.65397C6.65397 37.8166 7.31245 39.4063 8.48455 40.5784C9.65666 41.7505 11.2464 42.409 12.904 42.409C14.5616 42.409 16.1513 41.7505 17.3234 40.5784C18.4955 39.4063 19.154 37.8166 19.154 36.159H31.654C31.654 37.8166 32.3125 39.4063 33.4846 40.5784C34.6567 41.7505 36.2464 42.409 37.904 42.409C39.5616 42.409 41.1513 41.7505 42.3234 40.5784C43.4955 39.4063 44.154 37.8166 44.154 36.159H48.3206V25.7423L42.0706 17.409H35.8206V9.07565M21.2373 13.2423L29.5706 21.5757L21.2373 29.909V23.659H8.7373V19.4923H21.2373M35.8206 20.534H41.029L45.1331 25.7423H35.8206M12.904 33.034C13.7328 33.034 14.5276 33.3632 15.1137 33.9493C15.6997 34.5353 16.029 35.3302 16.029 36.159C16.029 36.9878 15.6997 37.7826 15.1137 38.3687C14.5276 38.9547 13.7328 39.284 12.904 39.284C12.0752 39.284 11.2803 38.9547 10.6943 38.3687C10.1082 37.7826 9.77897 36.9878 9.77897 36.159C9.77897 35.3302 10.1082 34.5353 10.6943 33.9493C11.2803 33.3632 12.0752 33.034 12.904 33.034ZM37.904 33.034C38.7328 33.034 39.5276 33.3632 40.1137 33.9493C40.6997 34.5353 41.029 35.3302 41.029 36.159C41.029 36.9878 40.6997 37.7826 40.1137 38.3687C39.5276 38.9547 38.7328 39.284 37.904 39.284C37.0752 39.284 36.2803 38.9547 35.6943 38.3687C35.1082 37.7826 34.779 36.9878 34.779 36.159C34.779 35.3302 35.1082 34.5353 35.6943 33.9493C36.2803 33.3632 37.0752 33.034 37.904 33.034Z" fill="#576778"/>
</svg>
