<svg width="38" height="39" viewBox="0 0 38 39" fill="none" xmlns="http://www.w3.org/2000/svg">
<path d="M19.1935 0.250183C24.152 0.250183 24.7707 0.269109 26.7161 0.363739C28.6598 0.458369 29.9829 0.774434 31.1473 1.2438C32.3518 1.72452 33.3665 2.37558 34.3812 3.42597C35.3092 4.37207 36.0273 5.51652 36.4854 6.77966C36.9362 7.98525 37.2428 9.35928 37.334 11.3749C37.4198 13.3924 37.4435 14.034 37.4435 19.1762C37.4435 24.3184 37.4253 24.96 37.334 26.9775C37.2428 28.9931 36.9362 30.3653 36.4854 31.5727C36.0286 32.8366 35.3103 33.9813 34.3812 34.9264C33.4686 35.8885 32.3651 36.6331 31.1473 37.1086C29.9847 37.5761 28.6598 37.894 26.7161 37.9887C24.7707 38.0776 24.152 38.1022 19.1935 38.1022C14.2349 38.1022 13.6162 38.0833 11.6708 37.9887C9.72713 37.894 8.404 37.5761 7.23964 37.1086C6.02113 36.6345 4.91737 35.8897 4.00572 34.9264C3.07754 33.9805 2.35944 32.836 1.90149 31.5727C1.44889 30.3672 1.14411 28.9931 1.05286 26.9775C0.967084 24.96 0.943359 24.3184 0.943359 19.1762C0.943359 14.034 0.961609 13.3924 1.05286 11.3749C1.14411 9.35738 1.44889 7.98714 1.90149 6.77966C2.35817 5.51574 3.07644 4.37099 4.00572 3.42597C4.91763 2.46307 6.02132 1.71833 7.23964 1.2438C8.404 0.774434 9.7253 0.458369 11.6708 0.363739C13.6162 0.274787 14.2349 0.250183 19.1935 0.250183ZM19.1935 9.71319C16.7733 9.71319 14.4523 10.7102 12.7411 12.4848C11.0298 14.2595 10.0684 16.6665 10.0684 19.1762C10.0684 21.6859 11.0298 24.0929 12.7411 25.8676C14.4523 27.6422 16.7733 28.6392 19.1935 28.6392C21.6136 28.6392 23.9346 27.6422 25.6458 25.8676C27.3571 24.0929 28.3185 21.6859 28.3185 19.1762C28.3185 16.6665 27.3571 14.2595 25.6458 12.4848C23.9346 10.7102 21.6136 9.71319 19.1935 9.71319ZM31.056 9.24004C31.056 8.61261 30.8157 8.01087 30.3878 7.5672C29.96 7.12354 29.3798 6.87429 28.7747 6.87429C28.1697 6.87429 27.5895 7.12354 27.1617 7.5672C26.7338 8.01087 26.4935 8.61261 26.4935 9.24004C26.4935 9.86748 26.7338 10.4692 27.1617 10.9129C27.5895 11.3565 28.1697 11.6058 28.7747 11.6058C29.3798 11.6058 29.96 11.3565 30.3878 10.9129C30.8157 10.4692 31.056 9.86748 31.056 9.24004ZM19.1935 13.4984C20.6455 13.4984 22.0381 14.0966 23.0649 15.1614C24.0916 16.2262 24.6685 17.6704 24.6685 19.1762C24.6685 20.6821 24.0916 22.1262 23.0649 23.191C22.0381 24.2558 20.6455 24.854 19.1935 24.854C17.7414 24.854 16.3488 24.2558 15.322 23.191C14.2953 22.1262 13.7184 20.6821 13.7184 19.1762C13.7184 17.6704 14.2953 16.2262 15.322 15.1614C16.3488 14.0966 17.7414 13.4984 19.1935 13.4984Z" fill="#576778"/>
</svg>
