<svg width="75" height="76" viewBox="0 0 75 76" fill="none" xmlns="http://www.w3.org/2000/svg">
<g clip-path="url(#clip0_0_3391)">
<path d="M65.1333 7.50687C63.2978 5.793 55.8688 0.329132 39.3056 0.25589C39.3056 0.25589 19.7794 -0.930634 10.2692 7.91702C4.97939 13.2784 3.11494 21.1446 2.9126 30.8858C2.71025 40.627 2.46455 58.8789 19.8228 63.8301H19.8372L19.8228 71.3887C19.8228 71.3887 19.7071 74.4502 21.7017 75.0655C24.1009 75.8272 25.5173 73.4981 27.8153 70.9932C29.0728 69.6162 30.8071 67.5948 32.1224 66.0567C44.0028 67.0674 53.1228 64.753 54.1634 64.416C56.5626 63.625 70.1341 61.8672 72.331 43.6153C74.6145 24.7774 71.2325 12.8828 65.1333 7.50687ZM67.1423 42.2383C65.2778 57.4727 54.279 58.4395 52.2556 59.0987C51.3884 59.377 43.3669 61.3985 33.2931 60.7393C33.2931 60.7393 25.7774 69.9239 23.436 72.3116C22.67 73.0879 21.8317 73.0147 21.8462 71.4766C21.8462 70.4659 21.904 58.9229 21.904 58.9229C21.8895 58.9229 21.8895 58.9229 21.904 58.9229C7.19072 54.792 8.05791 39.25 8.21689 31.1201C8.37588 22.9903 9.89346 16.3252 14.3739 11.8428C22.4243 4.44534 39.0021 5.54398 39.0021 5.54398C53.0071 5.60257 59.7134 9.87991 61.2743 11.3155C66.4341 15.7979 69.0646 26.5205 67.1423 42.2383ZM47.0524 30.4024C47.1103 31.6621 45.2458 31.75 45.188 30.4903C45.029 27.2676 43.5403 25.7002 40.4763 25.5244C39.2333 25.4512 39.3489 23.5616 40.5774 23.6348C44.6099 23.8545 46.8501 26.1983 47.0524 30.4024ZM49.9864 32.0576C50.131 25.8467 46.3009 20.9834 39.031 20.4414C37.8024 20.3535 37.9325 18.4639 39.161 18.5518C47.5438 19.167 52.0099 25.0117 51.8509 32.1016C51.8364 33.3614 49.9575 33.3028 49.9864 32.0576ZM56.7794 34.0205C56.7938 35.2803 54.9149 35.295 54.9149 34.0352C54.8282 22.0967 46.9802 15.5928 37.4556 15.5196C36.2271 15.5049 36.2271 13.6299 37.4556 13.6299C48.1075 13.7032 56.6782 21.1592 56.7794 34.0205ZM55.1462 48.3907V48.42C53.5853 51.2032 50.6657 54.2793 47.6595 53.2979L47.6306 53.2539C44.581 52.3897 37.3978 48.6397 32.8595 44.9776C30.5181 43.1026 28.379 40.8907 26.7313 38.7666C25.2427 36.877 23.7395 34.6358 22.2798 31.9405C19.2013 26.3008 18.522 23.7813 18.522 23.7813C17.5536 20.7344 20.5743 17.7754 23.3349 16.1934H23.3638C24.6935 15.4903 25.9653 15.7246 26.8181 16.7647C26.8181 16.7647 28.6103 18.9326 29.3763 20.002C30.0989 20.9981 31.0673 22.5948 31.5731 23.4883C32.4548 25.085 31.9056 26.711 31.0384 27.3848L29.304 28.791C28.4224 29.5088 28.538 30.8418 28.538 30.8418C28.538 30.8418 31.1106 40.7002 40.722 43.1905C40.722 43.1905 42.0372 43.3076 42.7454 42.4141L44.1329 40.6563C44.7978 39.7774 46.4021 39.2207 47.9774 40.1143C50.1021 41.3301 52.8048 43.2198 54.597 44.9336C55.6087 45.7686 55.8399 47.043 55.1462 48.3907Z" fill="#032640"/>
</g>
<defs>
<clipPath id="clip0_0_3391">
<rect width="74" height="75" fill="white" transform="translate(0.961426 0.197266)"/>
</clipPath>
</defs>
</svg>
