<svg width="101" height="76" viewBox="0 0 101 76" fill="none" xmlns="http://www.w3.org/2000/svg">
<path d="M27.8058 26.4361C35.0065 26.4361 40.9837 28.6033 45.7376 32.9377C50.5614 37.2022 52.9733 43.2145 52.9733 50.9745C52.9733 58.6646 50.3866 64.6768 45.2133 69.0112C40.04 73.3456 33.7131 75.5128 26.2328 75.5128C20.1506 75.5128 14.8025 74.2195 10.1885 71.6328C5.57443 68.9762 2.18381 65.0263 0.0166016 59.7831L14.4879 51.3939C16.3056 56.5673 20.2205 59.1539 26.2328 59.1539C29.5185 59.1539 32.0003 58.3849 33.6782 56.8469C35.356 55.3089 36.1949 53.3514 36.1949 50.9745C36.1949 48.5975 35.391 46.6401 33.783 45.102C32.1751 43.564 29.8331 42.795 26.7571 42.795H3.79173L6.83281 0.639404H49.303V16.3691H22.5625L21.8285 26.4361H27.8058Z" fill="#FCD039"/>
<path d="M73.9481 19.2803C71.8555 21.3728 69.2291 22.4191 66.0689 22.4191C62.9088 22.4191 60.261 21.3728 58.1258 19.2803C55.9905 17.145 54.9229 14.5613 54.9229 11.5293C54.9229 8.49719 55.9905 5.93487 58.1258 3.84231C60.261 1.70704 62.9088 0.639404 66.0689 0.639404C69.2291 0.639404 71.8555 1.68569 73.9481 3.77825C76.0833 5.8281 77.151 8.41178 77.151 11.5293C77.151 14.5613 76.0833 17.145 73.9481 19.2803ZM60.2397 39.3304L89.1939 7.30144L93.4217 9.73564L64.4675 41.8287L60.2397 39.3304ZM63.5707 14.0275C64.2113 14.7108 65.0227 15.0525 66.0049 15.0525C66.9871 15.0525 67.7985 14.7108 68.4391 14.0275C69.1224 13.3015 69.464 12.4688 69.464 11.5293C69.464 10.5043 69.1437 9.67158 68.5031 9.031C67.8626 8.34772 67.0298 8.00607 66.0049 8.00607C65.0227 8.00607 64.2113 8.34772 63.5707 9.031C62.9301 9.71429 62.6098 10.547 62.6098 11.5293C62.6098 12.5115 62.9301 13.3442 63.5707 14.0275ZM96.8168 44.0067C94.7242 46.0992 92.0978 47.1455 88.9377 47.1455C85.7775 47.1455 83.1297 46.0992 80.9945 44.0067C78.8592 41.8714 77.7916 39.2877 77.7916 36.2557C77.7916 33.2236 78.8592 30.6613 80.9945 28.5687C83.1297 26.4334 85.7775 25.3658 88.9377 25.3658C92.0978 25.3658 94.7242 26.4334 96.8168 28.5687C98.952 30.6613 100.02 33.2236 100.02 36.2557C100.02 39.2877 98.952 41.8714 96.8168 44.0067ZM86.4394 38.7539C87.08 39.4372 87.8914 39.7788 88.8736 39.7788C89.8558 39.7788 90.6672 39.4372 91.3078 38.7539C91.9911 38.0279 92.3327 37.1952 92.3327 36.2557C92.3327 35.2307 92.0124 34.398 91.3719 33.7574C90.7313 33.0741 89.8985 32.7325 88.8736 32.7325C87.8914 32.7325 87.08 33.0741 86.4394 33.7574C85.7988 34.4407 85.4785 35.2734 85.4785 36.2557C85.4785 37.2379 85.7988 38.0706 86.4394 38.7539Z" fill="#FCD039"/>
</svg>
