<svg width="116" height="22" viewBox="0 0 116 22" fill="none" xmlns="http://www.w3.org/2000/svg">
<path d="M105.159 20.8129V18.0496H115.299V20.8129H105.159Z" fill="black"/>
<path d="M96.111 12.6118C96.4973 14.0084 97.5447 14.7066 99.2532 14.7066C100.353 14.7066 101.185 14.3352 101.749 13.5924L104.067 14.9295C102.967 16.5191 101.348 17.314 99.2086 17.314C97.3664 17.314 95.8882 16.7568 94.7739 15.6426C93.6597 14.5283 93.1025 13.1244 93.1025 11.4307C93.1025 9.75192 93.6522 8.3554 94.7516 7.24115C95.851 6.11204 97.2624 5.54749 98.9858 5.54749C100.62 5.54749 101.965 6.11204 103.019 7.24115C104.089 8.37025 104.624 9.76678 104.624 11.4307C104.624 11.8021 104.587 12.1958 104.512 12.6118H96.111ZM96.0664 10.3833H101.749C101.586 9.62564 101.244 9.06109 100.724 8.68967C100.219 8.31825 99.6395 8.13255 98.9858 8.13255C98.2132 8.13255 97.5744 8.33311 97.0693 8.73424C96.5641 9.12051 96.2299 9.67021 96.0664 10.3833Z" fill="black"/>
<path d="M88.1768 17.002V0.733948H91.0515V17.002H88.1768Z" fill="black"/>
<path d="M83.7326 5.8595H86.8079L82.7521 17.002C82.1727 18.6065 81.4001 19.7653 80.4344 20.4785C79.4836 21.2064 78.2951 21.5333 76.8688 21.459V18.7848C77.6414 18.7997 78.2505 18.6362 78.6962 18.2945C79.1567 17.9528 79.5207 17.4031 79.7882 16.6454L75.2197 5.8595H78.3619L81.259 13.3473L83.7326 5.8595Z" fill="black"/>
<path d="M74.2019 8.62268H71.6837V13.258C71.6837 13.6442 71.7802 13.9265 71.9734 14.1048C72.1665 14.2831 72.4488 14.3871 72.8202 14.4168C73.1916 14.4316 73.6522 14.4242 74.2019 14.3945V17.0018C72.2259 17.2247 70.8294 17.039 70.0123 16.4447C69.21 15.8504 68.8089 14.7882 68.8089 13.258V8.62268H66.8701V5.85934H68.8089V3.60856L71.6837 2.73944V5.85934H74.2019V8.62268Z" fill="black"/>
<path d="M60.5561 9.02395C60.5561 9.32108 60.7492 9.56621 61.1355 9.75935C61.5366 9.93763 62.0195 10.1011 62.584 10.2496C63.1486 10.3833 63.7131 10.5616 64.2777 10.7845C64.8422 10.9925 65.3176 11.349 65.7039 11.8541C66.1051 12.3593 66.3056 12.9907 66.3056 13.7484C66.3056 14.8923 65.8748 15.7763 65.0131 16.4003C64.1663 17.0094 63.104 17.314 61.8263 17.314C59.5384 17.314 57.9785 16.43 57.1465 14.6621L59.6424 13.2581C59.9693 14.2238 60.6972 14.7066 61.8263 14.7066C62.8514 14.7066 63.364 14.3872 63.364 13.7484C63.364 13.4512 63.1634 13.2135 62.7623 13.0352C62.376 12.8421 61.9006 12.6713 61.3361 12.5227C60.7715 12.3741 60.207 12.1884 59.6424 11.9656C59.0779 11.7427 58.595 11.3936 58.1939 10.9182C57.8076 10.4279 57.6145 9.81878 57.6145 9.0908C57.6145 7.99141 58.0156 7.12972 58.8179 6.50574C59.635 5.8669 60.6452 5.54749 61.8486 5.54749C62.7549 5.54749 63.5794 5.75548 64.3223 6.17147C65.0651 6.5726 65.6519 7.15201 66.0828 7.9097L63.6314 9.2468C63.2749 8.48911 62.6806 8.11026 61.8486 8.11026C61.4772 8.11026 61.1652 8.19197 60.9126 8.3554C60.6749 8.51882 60.5561 8.74167 60.5561 9.02395Z" fill="black"/>
<path d="M46.4434 20.8129V18.0496H56.583V20.8129H46.4434Z" fill="black"/>
<path d="M44.8736 15.6203C43.7296 16.7494 42.3331 17.314 40.684 17.314C39.0349 17.314 37.6384 16.7494 36.4944 15.6203C35.3653 14.4763 34.8008 13.0798 34.8008 11.4307C34.8008 9.78164 35.3653 8.39254 36.4944 7.26343C37.6384 6.11947 39.0349 5.54749 40.684 5.54749C42.3331 5.54749 43.7296 6.11947 44.8736 7.26343C46.0176 8.39254 46.5895 9.78164 46.5895 11.4307C46.5895 13.0798 46.0176 14.4763 44.8736 15.6203ZM38.5224 13.6369C39.1018 14.2164 39.8223 14.5061 40.684 14.5061C41.5457 14.5061 42.2663 14.2164 42.8457 13.6369C43.4251 13.0575 43.7148 12.3221 43.7148 11.4307C43.7148 10.5393 43.4251 9.80392 42.8457 9.22451C42.2663 8.6451 41.5457 8.3554 40.684 8.3554C39.8223 8.3554 39.1018 8.6451 38.5224 9.22451C37.9578 9.80392 37.6755 10.5393 37.6755 11.4307C37.6755 12.3221 37.9578 13.0575 38.5224 13.6369Z" fill="black"/>
<path d="M31.6422 15.6203C30.4982 16.7494 29.1017 17.314 27.4526 17.314C25.8035 17.314 24.407 16.7494 23.263 15.6203C22.1339 14.4763 21.5693 13.0798 21.5693 11.4307C21.5693 9.78164 22.1339 8.39254 23.263 7.26343C24.407 6.11947 25.8035 5.54749 27.4526 5.54749C29.1017 5.54749 30.4982 6.11947 31.6422 7.26343C32.7861 8.39254 33.3581 9.78164 33.3581 11.4307C33.3581 13.0798 32.7861 14.4763 31.6422 15.6203ZM25.2909 13.6369C25.8703 14.2164 26.5909 14.5061 27.4526 14.5061C28.3143 14.5061 29.0348 14.2164 29.6142 13.6369C30.1936 13.0575 30.4833 12.3221 30.4833 11.4307C30.4833 10.5393 30.1936 9.80392 29.6142 9.22451C29.0348 8.6451 28.3143 8.3554 27.4526 8.3554C26.5909 8.3554 25.8703 8.6451 25.2909 9.22451C24.7264 9.80392 24.4441 10.5393 24.4441 11.4307C24.4441 12.3221 24.7264 13.0575 25.2909 13.6369Z" fill="black"/>
<path d="M15.7889 14.3055H20.7362V17.002H11.9336V15.0855L16.6357 8.55598H12.1564V5.8595H20.5133V7.77601L15.7889 14.3055Z" fill="black"/>
<path d="M0.132812 20.8129V18.0496H10.2725V20.8129H0.132812Z" fill="black"/>
</svg>
