<svg width="185" height="182" viewBox="0 0 185 182" fill="none" xmlns="http://www.w3.org/2000/svg">
<path d="M138.516 11.8126H46.5156C27.4618 11.8126 12.0156 27.0069 12.0156 45.7501V136.25C12.0156 154.993 27.4618 170.188 46.5156 170.188H138.516C157.569 170.188 173.016 154.993 173.016 136.25V45.7501C173.016 27.0069 157.569 11.8126 138.516 11.8126Z" fill="url(#paint0_radial_0_337)"/>
<path d="M138.516 11.8126H46.5156C27.4618 11.8126 12.0156 27.0069 12.0156 45.7501V136.25C12.0156 154.993 27.4618 170.188 46.5156 170.188H138.516C157.569 170.188 173.016 154.993 173.016 136.25V45.7501C173.016 27.0069 157.569 11.8126 138.516 11.8126Z" fill="url(#paint1_radial_0_337)"/>
<path d="M58.3255 24.7774H54.7266V28.357H58.3255V24.7774Z" fill="black"/>
<path d="M61.9241 24.7774H58.3252V28.357H61.9241V24.7774Z" fill="black"/>
<path d="M65.5228 24.7774H61.9238V28.357H65.5228V24.7774Z" fill="black"/>
<path d="M69.1224 24.7774H65.5234V28.357H69.1224V24.7774Z" fill="black"/>
<path d="M76.3197 24.7774H72.7207V28.357H76.3197V24.7774Z" fill="black"/>
<path d="M83.5179 24.7774H79.9189V28.357H83.5179V24.7774Z" fill="black"/>
<path d="M87.1165 24.7774H83.5176V28.357H87.1165V24.7774Z" fill="black"/>
<path d="M90.7161 24.7774H87.1172V28.357H90.7161V24.7774Z" fill="black"/>
<path d="M94.3148 24.7774H90.7158V28.357H94.3148V24.7774Z" fill="black"/>
<path d="M101.513 24.7774H97.9141V28.357H101.513V24.7774Z" fill="black"/>
<path d="M112.31 24.7774H108.711V28.357H112.31V24.7774Z" fill="black"/>
<path d="M119.507 24.7774H115.908V28.357H119.507V24.7774Z" fill="black"/>
<path d="M123.107 24.7774H119.508V28.357H123.107V24.7774Z" fill="black"/>
<path d="M130.304 24.7774H126.705V28.357H130.304V24.7774Z" fill="black"/>
<path d="M58.3255 28.357H54.7266V31.9366H58.3255V28.357Z" fill="black"/>
<path d="M69.1224 28.357H65.5234V31.9366H69.1224V28.357Z" fill="black"/>
<path d="M72.721 28.357H69.1221V31.9366H72.721V28.357Z" fill="black"/>
<path d="M76.3197 28.357H72.7207V31.9366H76.3197V28.357Z" fill="black"/>
<path d="M79.9193 28.357H76.3203V31.9366H79.9193V28.357Z" fill="black"/>
<path d="M83.5179 28.357H79.9189V31.9366H83.5179V28.357Z" fill="black"/>
<path d="M87.1165 28.357H83.5176V31.9366H87.1165V28.357Z" fill="black"/>
<path d="M97.9134 28.357H94.3145V31.9366H97.9134V28.357Z" fill="black"/>
<path d="M105.112 28.357H101.513V31.9366H105.112V28.357Z" fill="black"/>
<path d="M108.71 28.357H105.111V31.9366H108.71V28.357Z" fill="black"/>
<path d="M112.31 28.357H108.711V31.9366H112.31V28.357Z" fill="black"/>
<path d="M119.507 28.357H115.908V31.9366H119.507V28.357Z" fill="black"/>
<path d="M123.107 28.357H119.508V31.9366H123.107V28.357Z" fill="black"/>
<path d="M126.705 28.357H123.106V31.9366H126.705V28.357Z" fill="black"/>
<path d="M130.304 28.357H126.705V31.9366H130.304V28.357Z" fill="black"/>
<path d="M58.3255 31.9366H54.7266V35.5162H58.3255V31.9366Z" fill="black"/>
<path d="M61.9241 31.9366H58.3252V35.5162H61.9241V31.9366Z" fill="black"/>
<path d="M69.1224 31.9366H65.5234V35.5162H69.1224V31.9366Z" fill="black"/>
<path d="M76.3197 31.9366H72.7207V35.5162H76.3197V31.9366Z" fill="black"/>
<path d="M87.1165 31.9366H83.5176V35.5162H87.1165V31.9366Z" fill="black"/>
<path d="M90.7161 31.9366H87.1172V35.5162H90.7161V31.9366Z" fill="black"/>
<path d="M97.9134 31.9366H94.3145V35.5162H97.9134V31.9366Z" fill="black"/>
<path d="M101.513 31.9366H97.9141V35.5162H101.513V31.9366Z" fill="black"/>
<path d="M105.112 31.9366H101.513V35.5162H105.112V31.9366Z" fill="black"/>
<path d="M108.71 31.9366H105.111V35.5162H108.71V31.9366Z" fill="black"/>
<path d="M112.31 31.9366H108.711V35.5162H112.31V31.9366Z" fill="black"/>
<path d="M123.107 31.9366H119.508V35.5162H123.107V31.9366Z" fill="black"/>
<path d="M130.304 31.9366H126.705V35.5162H130.304V31.9366Z" fill="black"/>
<path d="M61.9241 35.5163H58.3252V39.0959H61.9241V35.5163Z" fill="black"/>
<path d="M65.5228 35.5163H61.9238V39.0959H65.5228V35.5163Z" fill="black"/>
<path d="M69.1224 35.5163H65.5234V39.0959H69.1224V35.5163Z" fill="black"/>
<path d="M79.9193 35.5163H76.3203V39.0959H79.9193V35.5163Z" fill="black"/>
<path d="M83.5179 35.5163H79.9189V39.0959H83.5179V35.5163Z" fill="black"/>
<path d="M90.7161 35.5163H87.1172V39.0959H90.7161V35.5163Z" fill="black"/>
<path d="M94.3148 35.5163H90.7158V39.0959H94.3148V35.5163Z" fill="black"/>
<path d="M97.9134 35.5163H94.3145V39.0959H97.9134V35.5163Z" fill="black"/>
<path d="M101.513 35.5163H97.9141V39.0959H101.513V35.5163Z" fill="black"/>
<path d="M105.112 35.5163H101.513V39.0959H105.112V35.5163Z" fill="black"/>
<path d="M108.71 35.5163H105.111V39.0959H108.71V35.5163Z" fill="black"/>
<path d="M112.31 35.5163H108.711V39.0959H112.31V35.5163Z" fill="black"/>
<path d="M119.507 35.5163H115.908V39.0959H119.507V35.5163Z" fill="black"/>
<path d="M123.107 35.5163H119.508V39.0959H123.107V35.5163Z" fill="black"/>
<path d="M126.705 35.5163H123.106V39.0959H126.705V35.5163Z" fill="black"/>
<path d="M65.5228 39.0959H61.9238V42.6755H65.5228V39.0959Z" fill="black"/>
<path d="M83.5179 39.0959H79.9189V42.6755H83.5179V39.0959Z" fill="black"/>
<path d="M87.1165 39.0959H83.5176V42.6755H87.1165V39.0959Z" fill="black"/>
<path d="M119.507 39.0959H115.908V42.6755H119.507V39.0959Z" fill="black"/>
<path d="M58.3255 42.6755H54.7266V46.2551H58.3255V42.6755Z" fill="black"/>
<path d="M65.5228 42.6755H61.9238V46.2551H65.5228V42.6755Z" fill="black"/>
<path d="M76.3197 42.6755H72.7207V46.2551H76.3197V42.6755Z" fill="black"/>
<path d="M94.3148 42.6755H90.7158V46.2551H94.3148V42.6755Z" fill="black"/>
<path d="M97.9134 42.6755H94.3145V46.2551H97.9134V42.6755Z" fill="black"/>
<path d="M105.112 42.6755H101.513V46.2551H105.112V42.6755Z" fill="black"/>
<path d="M108.71 42.6755H105.111V46.2551H108.71V42.6755Z" fill="black"/>
<path d="M115.909 42.6755H112.31V46.2551H115.909V42.6755Z" fill="black"/>
<path d="M119.507 42.6755H115.908V46.2551H119.507V42.6755Z" fill="black"/>
<path d="M123.107 42.6755H119.508V46.2551H123.107V42.6755Z" fill="black"/>
<path d="M126.705 42.6755H123.106V46.2551H126.705V42.6755Z" fill="black"/>
<path d="M130.304 42.6755H126.705V46.2551H130.304V42.6755Z" fill="black"/>
<path d="M58.3255 46.2549H54.7266V49.8345H58.3255V46.2549Z" fill="black"/>
<path d="M65.5228 46.2549H61.9238V49.8345H65.5228V46.2549Z" fill="black"/>
<path d="M72.721 46.2549H69.1221V49.8345H72.721V46.2549Z" fill="black"/>
<path d="M79.9193 46.2549H76.3203V49.8345H79.9193V46.2549Z" fill="black"/>
<path d="M87.1165 46.2549H83.5176V49.8345H87.1165V46.2549Z" fill="black"/>
<path d="M94.3148 46.2549H90.7158V49.8345H94.3148V46.2549Z" fill="black"/>
<path d="M101.513 46.2549H97.9141V49.8345H101.513V46.2549Z" fill="black"/>
<path d="M108.71 46.2549H105.111V49.8345H108.71V46.2549Z" fill="black"/>
<path d="M115.909 46.2549H112.31V49.8345H115.909V46.2549Z" fill="black"/>
<path d="M123.107 46.2549H119.508V49.8345H123.107V46.2549Z" fill="black"/>
<path d="M130.304 46.2549H126.705V49.8345H130.304V46.2549Z" fill="black"/>
<path d="M58.3255 49.8346H54.7266V53.4142H58.3255V49.8346Z" fill="black"/>
<path d="M61.9241 49.8346H58.3252V53.4142H61.9241V49.8346Z" fill="black"/>
<path d="M79.9193 49.8346H76.3203V53.4142H79.9193V49.8346Z" fill="black"/>
<path d="M83.5179 49.8346H79.9189V53.4142H83.5179V49.8346Z" fill="black"/>
<path d="M87.1165 49.8346H83.5176V53.4142H87.1165V49.8346Z" fill="black"/>
<path d="M101.513 49.8346H97.9141V53.4142H101.513V49.8346Z" fill="black"/>
<path d="M105.112 49.8346H101.513V53.4142H105.112V49.8346Z" fill="black"/>
<path d="M119.507 49.8346H115.908V53.4142H119.507V49.8346Z" fill="black"/>
<path d="M130.304 49.8346H126.705V53.4142H130.304V49.8346Z" fill="black"/>
<path d="M36.7318 53.4141H33.1328V56.9937H36.7318V53.4141Z" fill="black"/>
<path d="M40.3304 53.4141H36.7314V56.9937H40.3304V53.4141Z" fill="black"/>
<path d="M43.929 53.4141H40.3301V56.9937H43.929V53.4141Z" fill="black"/>
<path d="M51.1273 53.4141H47.5283V56.9937H51.1273V53.4141Z" fill="black"/>
<path d="M58.3255 53.4141H54.7266V56.9937H58.3255V53.4141Z" fill="black"/>
<path d="M72.721 53.4141H69.1221V56.9937H72.721V53.4141Z" fill="black"/>
<path d="M76.3197 53.4141H72.7207V56.9937H76.3197V53.4141Z" fill="black"/>
<path d="M90.7161 53.4141H87.1172V56.9937H90.7161V53.4141Z" fill="black"/>
<path d="M94.3148 53.4141H90.7158V56.9937H94.3148V53.4141Z" fill="black"/>
<path d="M105.112 53.4141H101.513V56.9937H105.112V53.4141Z" fill="black"/>
<path d="M112.31 53.4141H108.711V56.9937H112.31V53.4141Z" fill="black"/>
<path d="M115.909 53.4141H112.31V56.9937H115.909V53.4141Z" fill="black"/>
<path d="M123.107 53.4141H119.508V56.9937H123.107V53.4141Z" fill="black"/>
<path d="M130.304 53.4141H126.705V56.9937H130.304V53.4141Z" fill="black"/>
<path d="M133.903 53.4141H130.304V56.9937H133.903V53.4141Z" fill="black"/>
<path d="M137.502 53.4141H133.903V56.9937H137.502V53.4141Z" fill="black"/>
<path d="M141.101 53.4141H137.502V56.9937H141.101V53.4141Z" fill="black"/>
<path d="M151.898 53.4141H148.299V56.9937H151.898V53.4141Z" fill="black"/>
<path d="M155.496 53.4141H151.897V56.9937H155.496V53.4141Z" fill="black"/>
<path d="M159.096 53.4141H155.497V56.9937H159.096V53.4141Z" fill="black"/>
<path d="M29.5335 56.9938H25.9346V60.5734H29.5335V56.9938Z" fill="black"/>
<path d="M33.1322 56.9938H29.5332V60.5734H33.1322V56.9938Z" fill="black"/>
<path d="M36.7318 56.9938H33.1328V60.5734H36.7318V56.9938Z" fill="black"/>
<path d="M40.3304 56.9938H36.7314V60.5734H40.3304V56.9938Z" fill="black"/>
<path d="M43.929 56.9938H40.3301V60.5734H43.929V56.9938Z" fill="black"/>
<path d="M69.1224 56.9938H65.5234V60.5734H69.1224V56.9938Z" fill="black"/>
<path d="M72.721 56.9938H69.1221V60.5734H72.721V56.9938Z" fill="black"/>
<path d="M83.5179 56.9938H79.9189V60.5734H83.5179V56.9938Z" fill="black"/>
<path d="M87.1165 56.9938H83.5176V60.5734H87.1165V56.9938Z" fill="black"/>
<path d="M90.7161 56.9938H87.1172V60.5734H90.7161V56.9938Z" fill="black"/>
<path d="M94.3148 56.9938H90.7158V60.5734H94.3148V56.9938Z" fill="black"/>
<path d="M97.9134 56.9938H94.3145V60.5734H97.9134V56.9938Z" fill="black"/>
<path d="M101.513 56.9938H97.9141V60.5734H101.513V56.9938Z" fill="black"/>
<path d="M105.112 56.9938H101.513V60.5734H105.112V56.9938Z" fill="black"/>
<path d="M108.71 56.9938H105.111V60.5734H108.71V56.9938Z" fill="black"/>
<path d="M115.909 56.9938H112.31V60.5734H115.909V56.9938Z" fill="black"/>
<path d="M119.507 56.9938H115.908V60.5734H119.507V56.9938Z" fill="black"/>
<path d="M126.705 56.9938H123.106V60.5734H126.705V56.9938Z" fill="black"/>
<path d="M148.299 56.9938H144.7V60.5734H148.299V56.9938Z" fill="black"/>
<path d="M151.898 56.9938H148.299V60.5734H151.898V56.9938Z" fill="black"/>
<path d="M40.3304 60.5735H36.7314V64.1531H40.3304V60.5735Z" fill="black"/>
<path d="M43.929 60.5735H40.3301V64.1531H43.929V60.5735Z" fill="black"/>
<path d="M51.1273 60.5735H47.5283V64.1531H51.1273V60.5735Z" fill="black"/>
<path d="M61.9241 60.5735H58.3252V64.1531H61.9241V60.5735Z" fill="black"/>
<path d="M65.5228 60.5735H61.9238V64.1531H65.5228V60.5735Z" fill="black"/>
<path d="M69.1224 60.5735H65.5234V64.1531H69.1224V60.5735Z" fill="black"/>
<path d="M79.9193 60.5735H76.3203V64.1531H79.9193V60.5735Z" fill="black"/>
<path d="M101.513 60.5735H97.9141V64.1531H101.513V60.5735Z" fill="black"/>
<path d="M108.71 60.5735H105.111V64.1531H108.71V60.5735Z" fill="black"/>
<path d="M119.507 60.5735H115.908V64.1531H119.507V60.5735Z" fill="black"/>
<path d="M123.107 60.5735H119.508V64.1531H123.107V60.5735Z" fill="black"/>
<path d="M126.705 60.5735H123.106V64.1531H126.705V60.5735Z" fill="black"/>
<path d="M130.304 60.5735H126.705V64.1531H130.304V60.5735Z" fill="black"/>
<path d="M137.502 60.5735H133.903V64.1531H137.502V60.5735Z" fill="black"/>
<path d="M141.101 60.5735H137.502V64.1531H141.101V60.5735Z" fill="black"/>
<path d="M144.7 60.5735H141.101V64.1531H144.7V60.5735Z" fill="black"/>
<path d="M155.496 60.5735H151.897V64.1531H155.496V60.5735Z" fill="black"/>
<path d="M159.096 60.5735H155.497V64.1531H159.096V60.5735Z" fill="black"/>
<path d="M33.1322 64.153H29.5332V67.7326H33.1322V64.153Z" fill="black"/>
<path d="M40.3304 64.153H36.7314V67.7326H40.3304V64.153Z" fill="black"/>
<path d="M47.5286 64.153H43.9297V67.7326H47.5286V64.153Z" fill="black"/>
<path d="M65.5228 64.153H61.9238V67.7326H65.5228V64.153Z" fill="black"/>
<path d="M72.721 64.153H69.1221V67.7326H72.721V64.153Z" fill="black"/>
<path d="M76.3197 64.153H72.7207V67.7326H76.3197V64.153Z" fill="black"/>
<path d="M79.9193 64.153H76.3203V67.7326H79.9193V64.153Z" fill="black"/>
<path d="M83.5179 64.153H79.9189V67.7326H83.5179V64.153Z" fill="black"/>
<path d="M87.1165 64.153H83.5176V67.7326H87.1165V64.153Z" fill="black"/>
<path d="M97.9134 64.153H94.3145V67.7326H97.9134V64.153Z" fill="black"/>
<path d="M101.513 64.153H97.9141V67.7326H101.513V64.153Z" fill="black"/>
<path d="M105.112 64.153H101.513V67.7326H105.112V64.153Z" fill="black"/>
<path d="M112.31 64.153H108.711V67.7326H112.31V64.153Z" fill="black"/>
<path d="M115.909 64.153H112.31V67.7326H115.909V64.153Z" fill="black"/>
<path d="M123.107 64.153H119.508V67.7326H123.107V64.153Z" fill="black"/>
<path d="M126.705 64.153H123.106V67.7326H126.705V64.153Z" fill="black"/>
<path d="M137.502 64.153H133.903V67.7326H137.502V64.153Z" fill="black"/>
<path d="M141.101 64.153H137.502V67.7326H141.101V64.153Z" fill="black"/>
<path d="M144.7 64.153H141.101V67.7326H144.7V64.153Z" fill="black"/>
<path d="M29.5335 67.7327H25.9346V71.3123H29.5335V67.7327Z" fill="black"/>
<path d="M36.7318 67.7327H33.1328V71.3123H36.7318V67.7327Z" fill="black"/>
<path d="M40.3304 67.7327H36.7314V71.3123H40.3304V67.7327Z" fill="black"/>
<path d="M51.1273 67.7327H47.5283V71.3123H51.1273V67.7327Z" fill="black"/>
<path d="M61.9241 67.7327H58.3252V71.3123H61.9241V67.7327Z" fill="black"/>
<path d="M76.3197 67.7327H72.7207V71.3123H76.3197V67.7327Z" fill="black"/>
<path d="M90.7161 67.7327H87.1172V71.3123H90.7161V67.7327Z" fill="black"/>
<path d="M94.3148 67.7327H90.7158V71.3123H94.3148V67.7327Z" fill="black"/>
<path d="M97.9134 67.7327H94.3145V71.3123H97.9134V67.7327Z" fill="black"/>
<path d="M105.112 67.7327H101.513V71.3123H105.112V67.7327Z" fill="black"/>
<path d="M115.909 67.7327H112.31V71.3123H115.909V67.7327Z" fill="black"/>
<path d="M119.507 67.7327H115.908V71.3123H119.507V67.7327Z" fill="black"/>
<path d="M123.107 67.7327H119.508V71.3123H123.107V67.7327Z" fill="black"/>
<path d="M126.705 67.7327H123.106V71.3123H126.705V67.7327Z" fill="black"/>
<path d="M133.903 67.7327H130.304V71.3123H133.903V67.7327Z" fill="black"/>
<path d="M137.502 67.7327H133.903V71.3123H137.502V67.7327Z" fill="black"/>
<path d="M144.7 67.7327H141.101V71.3123H144.7V67.7327Z" fill="black"/>
<path d="M148.299 67.7327H144.7V71.3123H148.299V67.7327Z" fill="black"/>
<path d="M151.898 67.7327H148.299V71.3123H151.898V67.7327Z" fill="black"/>
<path d="M155.496 67.7327H151.897V71.3123H155.496V67.7327Z" fill="black"/>
<path d="M29.5335 71.3123H25.9346V74.8919H29.5335V71.3123Z" fill="black"/>
<path d="M36.7318 71.3123H33.1328V74.8919H36.7318V71.3123Z" fill="black"/>
<path d="M43.929 71.3123H40.3301V74.8919H43.929V71.3123Z" fill="black"/>
<path d="M58.3255 71.3123H54.7266V74.8919H58.3255V71.3123Z" fill="black"/>
<path d="M65.5228 71.3123H61.9238V74.8919H65.5228V71.3123Z" fill="black"/>
<path d="M69.1224 71.3123H65.5234V74.8919H69.1224V71.3123Z" fill="black"/>
<path d="M72.721 71.3123H69.1221V74.8919H72.721V71.3123Z" fill="black"/>
<path d="M123.107 71.3123H119.508V74.8919H123.107V71.3123Z" fill="black"/>
<path d="M130.304 71.3123H126.705V74.8919H130.304V71.3123Z" fill="black"/>
<path d="M133.903 71.3123H130.304V74.8919H133.903V71.3123Z" fill="black"/>
<path d="M148.299 71.3123H144.7V74.8919H148.299V71.3123Z" fill="black"/>
<path d="M151.898 71.3123H148.299V74.8919H151.898V71.3123Z" fill="black"/>
<path d="M33.1322 74.8918H29.5332V78.4714H33.1322V74.8918Z" fill="black"/>
<path d="M47.5286 74.8918H43.9297V78.4714H47.5286V74.8918Z" fill="black"/>
<path d="M51.1273 74.8918H47.5283V78.4714H51.1273V74.8918Z" fill="black"/>
<path d="M54.7259 74.8918H51.127V78.4714H54.7259V74.8918Z" fill="black"/>
<path d="M69.1224 74.8918H65.5234V78.4714H69.1224V74.8918Z" fill="black"/>
<path d="M72.721 74.8918H69.1221V78.4714H72.721V74.8918Z" fill="black"/>
<path d="M115.909 74.8918H112.31V78.4714H115.909V74.8918Z" fill="black"/>
<path d="M119.507 74.8918H115.908V78.4714H119.507V74.8918Z" fill="black"/>
<path d="M126.705 74.8918H123.106V78.4714H126.705V74.8918Z" fill="black"/>
<path d="M137.502 74.8918H133.903V78.4714H137.502V74.8918Z" fill="black"/>
<path d="M141.101 74.8918H137.502V78.4714H141.101V74.8918Z" fill="black"/>
<path d="M148.299 74.8918H144.7V78.4714H148.299V74.8918Z" fill="black"/>
<path d="M159.096 74.8918H155.497V78.4714H159.096V74.8918Z" fill="black"/>
<path d="M29.5335 78.4714H25.9346V82.051H29.5335V78.4714Z" fill="black"/>
<path d="M33.1322 78.4714H29.5332V82.051H33.1322V78.4714Z" fill="black"/>
<path d="M36.7318 78.4714H33.1328V82.051H36.7318V78.4714Z" fill="black"/>
<path d="M47.5286 78.4714H43.9297V82.051H47.5286V78.4714Z" fill="black"/>
<path d="M58.3255 78.4714H54.7266V82.051H58.3255V78.4714Z" fill="black"/>
<path d="M61.9241 78.4714H58.3252V82.051H61.9241V78.4714Z" fill="black"/>
<path d="M65.5228 78.4714H61.9238V82.051H65.5228V78.4714Z" fill="black"/>
<path d="M69.1224 78.4714H65.5234V82.051H69.1224V78.4714Z" fill="black"/>
<path d="M115.909 78.4714H112.31V82.051H115.909V78.4714Z" fill="black"/>
<path d="M133.903 78.4714H130.304V82.051H133.903V78.4714Z" fill="black"/>
<path d="M141.101 78.4714H137.502V82.051H141.101V78.4714Z" fill="black"/>
<path d="M144.7 78.4714H141.101V82.051H144.7V78.4714Z" fill="black"/>
<path d="M155.496 78.4714H151.897V82.051H155.496V78.4714Z" fill="black"/>
<path d="M29.5335 82.051H25.9346V85.6306H29.5335V82.051Z" fill="black"/>
<path d="M33.1322 82.051H29.5332V85.6306H33.1322V82.051Z" fill="black"/>
<path d="M36.7318 82.051H33.1328V85.6306H36.7318V82.051Z" fill="black"/>
<path d="M47.5286 82.051H43.9297V85.6306H47.5286V82.051Z" fill="black"/>
<path d="M51.1273 82.051H47.5283V85.6306H51.1273V82.051Z" fill="black"/>
<path d="M54.7259 82.051H51.127V85.6306H54.7259V82.051Z" fill="black"/>
<path d="M115.909 82.051H112.31V85.6306H115.909V82.051Z" fill="black"/>
<path d="M119.507 82.051H115.908V85.6306H119.507V82.051Z" fill="black"/>
<path d="M123.107 82.051H119.508V85.6306H123.107V82.051Z" fill="black"/>
<path d="M133.903 82.051H130.304V85.6306H133.903V82.051Z" fill="black"/>
<path d="M137.502 82.051H133.903V85.6306H137.502V82.051Z" fill="black"/>
<path d="M141.101 82.051H137.502V85.6306H141.101V82.051Z" fill="black"/>
<path d="M144.7 82.051H141.101V85.6306H144.7V82.051Z" fill="black"/>
<path d="M151.898 82.051H148.299V85.6306H151.898V82.051Z" fill="black"/>
<path d="M155.496 82.051H151.897V85.6306H155.496V82.051Z" fill="black"/>
<path d="M159.096 82.051H155.497V85.6306H159.096V82.051Z" fill="black"/>
<path d="M29.5335 85.6307H25.9346V89.2103H29.5335V85.6307Z" fill="black"/>
<path d="M33.1322 85.6307H29.5332V89.2103H33.1322V85.6307Z" fill="black"/>
<path d="M36.7318 85.6307H33.1328V89.2103H36.7318V85.6307Z" fill="black"/>
<path d="M43.929 85.6307H40.3301V89.2103H43.929V85.6307Z" fill="black"/>
<path d="M47.5286 85.6307H43.9297V89.2103H47.5286V85.6307Z" fill="black"/>
<path d="M72.721 85.6307H69.1221V89.2103H72.721V85.6307Z" fill="black"/>
<path d="M115.909 85.6307H112.31V89.2103H115.909V85.6307Z" fill="black"/>
<path d="M119.507 85.6307H115.908V89.2103H119.507V85.6307Z" fill="black"/>
<path d="M130.304 85.6307H126.705V89.2103H130.304V85.6307Z" fill="black"/>
<path d="M133.903 85.6307H130.304V89.2103H133.903V85.6307Z" fill="black"/>
<path d="M141.101 85.6307H137.502V89.2103H141.101V85.6307Z" fill="black"/>
<path d="M151.898 85.6307H148.299V89.2103H151.898V85.6307Z" fill="black"/>
<path d="M33.1322 89.2102H29.5332V92.7898H33.1322V89.2102Z" fill="black"/>
<path d="M36.7318 89.2102H33.1328V92.7898H36.7318V89.2102Z" fill="black"/>
<path d="M43.929 89.2102H40.3301V92.7898H43.929V89.2102Z" fill="black"/>
<path d="M51.1273 89.2102H47.5283V92.7898H51.1273V89.2102Z" fill="black"/>
<path d="M65.5228 89.2102H61.9238V92.7898H65.5228V89.2102Z" fill="black"/>
<path d="M69.1224 89.2102H65.5234V92.7898H69.1224V89.2102Z" fill="black"/>
<path d="M72.721 89.2102H69.1221V92.7898H72.721V89.2102Z" fill="black"/>
<path d="M119.507 89.2102H115.908V92.7898H119.507V89.2102Z" fill="black"/>
<path d="M123.107 89.2102H119.508V92.7898H123.107V89.2102Z" fill="black"/>
<path d="M126.705 89.2102H123.106V92.7898H126.705V89.2102Z" fill="black"/>
<path d="M130.304 89.2102H126.705V92.7898H130.304V89.2102Z" fill="black"/>
<path d="M133.903 89.2102H130.304V92.7898H133.903V89.2102Z" fill="black"/>
<path d="M144.7 89.2102H141.101V92.7898H144.7V89.2102Z" fill="black"/>
<path d="M148.299 89.2102H144.7V92.7898H148.299V89.2102Z" fill="black"/>
<path d="M151.898 89.2102H148.299V92.7898H151.898V89.2102Z" fill="black"/>
<path d="M155.496 89.2102H151.897V92.7898H155.496V89.2102Z" fill="black"/>
<path d="M159.096 89.2102H155.497V92.7898H159.096V89.2102Z" fill="black"/>
<path d="M29.5335 92.7899H25.9346V96.3695H29.5335V92.7899Z" fill="black"/>
<path d="M40.3304 92.7899H36.7314V96.3695H40.3304V92.7899Z" fill="black"/>
<path d="M47.5286 92.7899H43.9297V96.3695H47.5286V92.7899Z" fill="black"/>
<path d="M54.7259 92.7899H51.127V96.3695H54.7259V92.7899Z" fill="black"/>
<path d="M69.1224 92.7899H65.5234V96.3695H69.1224V92.7899Z" fill="black"/>
<path d="M115.909 92.7899H112.31V96.3695H115.909V92.7899Z" fill="black"/>
<path d="M123.107 92.7899H119.508V96.3695H123.107V92.7899Z" fill="black"/>
<path d="M126.705 92.7899H123.106V96.3695H126.705V92.7899Z" fill="black"/>
<path d="M133.903 92.7899H130.304V96.3695H133.903V92.7899Z" fill="black"/>
<path d="M141.101 92.7899H137.502V96.3695H141.101V92.7899Z" fill="black"/>
<path d="M144.7 92.7899H141.101V96.3695H144.7V92.7899Z" fill="black"/>
<path d="M29.5335 96.3693H25.9346V99.9489H29.5335V96.3693Z" fill="black"/>
<path d="M33.1322 96.3693H29.5332V99.9489H33.1322V96.3693Z" fill="black"/>
<path d="M36.7318 96.3693H33.1328V99.9489H36.7318V96.3693Z" fill="black"/>
<path d="M40.3304 96.3693H36.7314V99.9489H40.3304V96.3693Z" fill="black"/>
<path d="M51.1273 96.3693H47.5283V99.9489H51.1273V96.3693Z" fill="black"/>
<path d="M61.9241 96.3693H58.3252V99.9489H61.9241V96.3693Z" fill="black"/>
<path d="M123.107 96.3693H119.508V99.9489H123.107V96.3693Z" fill="black"/>
<path d="M126.705 96.3693H123.106V99.9489H126.705V96.3693Z" fill="black"/>
<path d="M133.903 96.3693H130.304V99.9489H133.903V96.3693Z" fill="black"/>
<path d="M137.502 96.3693H133.903V99.9489H137.502V96.3693Z" fill="black"/>
<path d="M141.101 96.3693H137.502V99.9489H141.101V96.3693Z" fill="black"/>
<path d="M144.7 96.3693H141.101V99.9489H144.7V96.3693Z" fill="black"/>
<path d="M148.299 96.3693H144.7V99.9489H148.299V96.3693Z" fill="black"/>
<path d="M151.898 96.3693H148.299V99.9489H151.898V96.3693Z" fill="black"/>
<path d="M155.496 96.3693H151.897V99.9489H155.496V96.3693Z" fill="black"/>
<path d="M159.096 96.3693H155.497V99.9489H159.096V96.3693Z" fill="black"/>
<path d="M29.5335 99.949H25.9346V103.529H29.5335V99.949Z" fill="black"/>
<path d="M33.1322 99.949H29.5332V103.529H33.1322V99.949Z" fill="black"/>
<path d="M36.7318 99.949H33.1328V103.529H36.7318V99.949Z" fill="black"/>
<path d="M40.3304 99.949H36.7314V103.529H40.3304V99.949Z" fill="black"/>
<path d="M43.929 99.949H40.3301V103.529H43.929V99.949Z" fill="black"/>
<path d="M47.5286 99.949H43.9297V103.529H47.5286V99.949Z" fill="black"/>
<path d="M115.909 99.949H112.31V103.529H115.909V99.949Z" fill="black"/>
<path d="M123.107 99.949H119.508V103.529H123.107V99.949Z" fill="black"/>
<path d="M133.903 99.949H130.304V103.529H133.903V99.949Z" fill="black"/>
<path d="M137.502 99.949H133.903V103.529H137.502V99.949Z" fill="black"/>
<path d="M141.101 99.949H137.502V103.529H141.101V99.949Z" fill="black"/>
<path d="M148.299 99.949H144.7V103.529H148.299V99.949Z" fill="black"/>
<path d="M155.496 99.949H151.897V103.529H155.496V99.949Z" fill="black"/>
<path d="M33.1322 103.529H29.5332V107.108H33.1322V103.529Z" fill="black"/>
<path d="M43.929 103.529H40.3301V107.108H43.929V103.529Z" fill="black"/>
<path d="M51.1273 103.529H47.5283V107.108H51.1273V103.529Z" fill="black"/>
<path d="M69.1224 103.529H65.5234V107.108H69.1224V103.529Z" fill="black"/>
<path d="M126.705 103.529H123.106V107.108H126.705V103.529Z" fill="black"/>
<path d="M133.903 103.529H130.304V107.108H133.903V103.529Z" fill="black"/>
<path d="M151.898 103.529H148.299V107.108H151.898V103.529Z" fill="black"/>
<path d="M155.496 103.529H151.897V107.108H155.496V103.529Z" fill="black"/>
<path d="M159.096 103.529H155.497V107.108H159.096V103.529Z" fill="black"/>
<path d="M33.1322 107.108H29.5332V110.688H33.1322V107.108Z" fill="black"/>
<path d="M36.7318 107.108H33.1328V110.688H36.7318V107.108Z" fill="black"/>
<path d="M40.3304 107.108H36.7314V110.688H40.3304V107.108Z" fill="black"/>
<path d="M43.929 107.108H40.3301V110.688H43.929V107.108Z" fill="black"/>
<path d="M54.7259 107.108H51.127V110.688H54.7259V107.108Z" fill="black"/>
<path d="M58.3255 107.108H54.7266V110.688H58.3255V107.108Z" fill="black"/>
<path d="M61.9241 107.108H58.3252V110.688H61.9241V107.108Z" fill="black"/>
<path d="M69.1224 107.108H65.5234V110.688H69.1224V107.108Z" fill="black"/>
<path d="M123.107 107.108H119.508V110.688H123.107V107.108Z" fill="black"/>
<path d="M133.903 107.108H130.304V110.688H133.903V107.108Z" fill="black"/>
<path d="M141.101 107.108H137.502V110.688H141.101V107.108Z" fill="black"/>
<path d="M159.096 107.108H155.497V110.688H159.096V107.108Z" fill="black"/>
<path d="M29.5335 110.688H25.9346V114.268H29.5335V110.688Z" fill="black"/>
<path d="M33.1322 110.688H29.5332V114.268H33.1322V110.688Z" fill="black"/>
<path d="M40.3304 110.688H36.7314V114.268H40.3304V110.688Z" fill="black"/>
<path d="M43.929 110.688H40.3301V114.268H43.929V110.688Z" fill="black"/>
<path d="M51.1273 110.688H47.5283V114.268H51.1273V110.688Z" fill="black"/>
<path d="M61.9241 110.688H58.3252V114.268H61.9241V110.688Z" fill="black"/>
<path d="M72.721 110.688H69.1221V114.268H72.721V110.688Z" fill="black"/>
<path d="M79.9193 110.688H76.3203V114.268H79.9193V110.688Z" fill="black"/>
<path d="M87.1165 110.688H83.5176V114.268H87.1165V110.688Z" fill="black"/>
<path d="M90.7161 110.688H87.1172V114.268H90.7161V110.688Z" fill="black"/>
<path d="M97.9134 110.688H94.3145V114.268H97.9134V110.688Z" fill="black"/>
<path d="M101.513 110.688H97.9141V114.268H101.513V110.688Z" fill="black"/>
<path d="M137.502 110.688H133.903V114.268H137.502V110.688Z" fill="black"/>
<path d="M141.101 110.688H137.502V114.268H141.101V110.688Z" fill="black"/>
<path d="M148.299 110.688H144.7V114.268H148.299V110.688Z" fill="black"/>
<path d="M151.898 110.688H148.299V114.268H151.898V110.688Z" fill="black"/>
<path d="M155.496 110.688H151.897V114.268H155.496V110.688Z" fill="black"/>
<path d="M159.096 110.688H155.497V114.268H159.096V110.688Z" fill="black"/>
<path d="M29.5335 114.268H25.9346V117.847H29.5335V114.268Z" fill="black"/>
<path d="M47.5286 114.268H43.9297V117.847H47.5286V114.268Z" fill="black"/>
<path d="M65.5228 114.268H61.9238V117.847H65.5228V114.268Z" fill="black"/>
<path d="M72.721 114.268H69.1221V117.847H72.721V114.268Z" fill="black"/>
<path d="M94.3148 114.268H90.7158V117.847H94.3148V114.268Z" fill="black"/>
<path d="M101.513 114.268H97.9141V117.847H101.513V114.268Z" fill="black"/>
<path d="M105.112 114.268H101.513V117.847H105.112V114.268Z" fill="black"/>
<path d="M115.909 114.268H112.31V117.847H115.909V114.268Z" fill="black"/>
<path d="M123.107 114.268H119.508V117.847H123.107V114.268Z" fill="black"/>
<path d="M126.705 114.268H123.106V117.847H126.705V114.268Z" fill="black"/>
<path d="M130.304 114.268H126.705V117.847H130.304V114.268Z" fill="black"/>
<path d="M137.502 114.268H133.903V117.847H137.502V114.268Z" fill="black"/>
<path d="M141.101 114.268H137.502V117.847H141.101V114.268Z" fill="black"/>
<path d="M151.898 114.268H148.299V117.847H151.898V114.268Z" fill="black"/>
<path d="M29.5335 117.847H25.9346V121.427H29.5335V117.847Z" fill="black"/>
<path d="M36.7318 117.847H33.1328V121.427H36.7318V117.847Z" fill="black"/>
<path d="M40.3304 117.847H36.7314V121.427H40.3304V117.847Z" fill="black"/>
<path d="M47.5286 117.847H43.9297V121.427H47.5286V117.847Z" fill="black"/>
<path d="M51.1273 117.847H47.5283V121.427H51.1273V117.847Z" fill="black"/>
<path d="M61.9241 117.847H58.3252V121.427H61.9241V117.847Z" fill="black"/>
<path d="M65.5228 117.847H61.9238V121.427H65.5228V117.847Z" fill="black"/>
<path d="M69.1224 117.847H65.5234V121.427H69.1224V117.847Z" fill="black"/>
<path d="M72.721 117.847H69.1221V121.427H72.721V117.847Z" fill="black"/>
<path d="M76.3197 117.847H72.7207V121.427H76.3197V117.847Z" fill="black"/>
<path d="M83.5179 117.847H79.9189V121.427H83.5179V117.847Z" fill="black"/>
<path d="M87.1165 117.847H83.5176V121.427H87.1165V117.847Z" fill="black"/>
<path d="M105.112 117.847H101.513V121.427H105.112V117.847Z" fill="black"/>
<path d="M119.507 117.847H115.908V121.427H119.507V117.847Z" fill="black"/>
<path d="M123.107 117.847H119.508V121.427H123.107V117.847Z" fill="black"/>
<path d="M137.502 117.847H133.903V121.427H137.502V117.847Z" fill="black"/>
<path d="M141.101 117.847H137.502V121.427H141.101V117.847Z" fill="black"/>
<path d="M148.299 117.847H144.7V121.427H148.299V117.847Z" fill="black"/>
<path d="M159.096 117.847H155.497V121.427H159.096V117.847Z" fill="black"/>
<path d="M29.5335 121.427H25.9346V125.006H29.5335V121.427Z" fill="black"/>
<path d="M36.7318 121.427H33.1328V125.006H36.7318V121.427Z" fill="black"/>
<path d="M43.929 121.427H40.3301V125.006H43.929V121.427Z" fill="black"/>
<path d="M58.3255 121.427H54.7266V125.006H58.3255V121.427Z" fill="black"/>
<path d="M65.5228 121.427H61.9238V125.006H65.5228V121.427Z" fill="black"/>
<path d="M76.3197 121.427H72.7207V125.006H76.3197V121.427Z" fill="black"/>
<path d="M79.9193 121.427H76.3203V125.006H79.9193V121.427Z" fill="black"/>
<path d="M87.1165 121.427H83.5176V125.006H87.1165V121.427Z" fill="black"/>
<path d="M101.513 121.427H97.9141V125.006H101.513V121.427Z" fill="black"/>
<path d="M108.71 121.427H105.111V125.006H108.71V121.427Z" fill="black"/>
<path d="M115.909 121.427H112.31V125.006H115.909V121.427Z" fill="black"/>
<path d="M123.107 121.427H119.508V125.006H123.107V121.427Z" fill="black"/>
<path d="M130.304 121.427H126.705V125.006H130.304V121.427Z" fill="black"/>
<path d="M133.903 121.427H130.304V125.006H133.903V121.427Z" fill="black"/>
<path d="M141.101 121.427H137.502V125.006H141.101V121.427Z" fill="black"/>
<path d="M155.496 121.427H151.897V125.006H155.496V121.427Z" fill="black"/>
<path d="M159.096 121.427H155.497V125.006H159.096V121.427Z" fill="black"/>
<path d="M29.5335 125.006H25.9346V128.586H29.5335V125.006Z" fill="black"/>
<path d="M51.1273 125.006H47.5283V128.586H51.1273V125.006Z" fill="black"/>
<path d="M54.7259 125.006H51.127V128.586H54.7259V125.006Z" fill="black"/>
<path d="M61.9241 125.006H58.3252V128.586H61.9241V125.006Z" fill="black"/>
<path d="M72.721 125.006H69.1221V128.586H72.721V125.006Z" fill="black"/>
<path d="M76.3197 125.006H72.7207V128.586H76.3197V125.006Z" fill="black"/>
<path d="M87.1165 125.006H83.5176V128.586H87.1165V125.006Z" fill="black"/>
<path d="M90.7161 125.006H87.1172V128.586H90.7161V125.006Z" fill="black"/>
<path d="M105.112 125.006H101.513V128.586H105.112V125.006Z" fill="black"/>
<path d="M108.71 125.006H105.111V128.586H108.71V125.006Z" fill="black"/>
<path d="M119.507 125.006H115.908V128.586H119.507V125.006Z" fill="black"/>
<path d="M123.107 125.006H119.508V128.586H123.107V125.006Z" fill="black"/>
<path d="M130.304 125.006H126.705V128.586H130.304V125.006Z" fill="black"/>
<path d="M133.903 125.006H130.304V128.586H133.903V125.006Z" fill="black"/>
<path d="M137.502 125.006H133.903V128.586H137.502V125.006Z" fill="black"/>
<path d="M141.101 125.006H137.502V128.586H141.101V125.006Z" fill="black"/>
<path d="M144.7 125.006H141.101V128.586H144.7V125.006Z" fill="black"/>
<path d="M148.299 125.006H144.7V128.586H148.299V125.006Z" fill="black"/>
<path d="M151.898 125.006H148.299V128.586H151.898V125.006Z" fill="black"/>
<path d="M155.496 125.006H151.897V128.586H155.496V125.006Z" fill="black"/>
<path d="M58.3255 128.586H54.7266V132.166H58.3255V128.586Z" fill="black"/>
<path d="M61.9241 128.586H58.3252V132.166H61.9241V128.586Z" fill="black"/>
<path d="M69.1224 128.586H65.5234V132.166H69.1224V128.586Z" fill="black"/>
<path d="M76.3197 128.586H72.7207V132.166H76.3197V128.586Z" fill="black"/>
<path d="M83.5179 128.586H79.9189V132.166H83.5179V128.586Z" fill="black"/>
<path d="M87.1165 128.586H83.5176V132.166H87.1165V128.586Z" fill="black"/>
<path d="M101.513 128.586H97.9141V132.166H101.513V128.586Z" fill="black"/>
<path d="M108.71 128.586H105.111V132.166H108.71V128.586Z" fill="black"/>
<path d="M112.31 128.586H108.711V132.166H112.31V128.586Z" fill="black"/>
<path d="M123.107 128.586H119.508V132.166H123.107V128.586Z" fill="black"/>
<path d="M130.304 128.586H126.705V132.166H130.304V128.586Z" fill="black"/>
<path d="M144.7 128.586H141.101V132.166H144.7V128.586Z" fill="black"/>
<path d="M155.496 128.586H151.897V132.166H155.496V128.586Z" fill="black"/>
<path d="M65.5228 132.165H61.9238V135.745H65.5228V132.165Z" fill="black"/>
<path d="M72.721 132.165H69.1221V135.745H72.721V132.165Z" fill="black"/>
<path d="M87.1165 132.165H83.5176V135.745H87.1165V132.165Z" fill="black"/>
<path d="M90.7161 132.165H87.1172V135.745H90.7161V132.165Z" fill="black"/>
<path d="M94.3148 132.165H90.7158V135.745H94.3148V132.165Z" fill="black"/>
<path d="M97.9134 132.165H94.3145V135.745H97.9134V132.165Z" fill="black"/>
<path d="M105.112 132.165H101.513V135.745H105.112V132.165Z" fill="black"/>
<path d="M108.71 132.165H105.111V135.745H108.71V132.165Z" fill="black"/>
<path d="M130.304 132.165H126.705V135.745H130.304V132.165Z" fill="black"/>
<path d="M137.502 132.165H133.903V135.745H137.502V132.165Z" fill="black"/>
<path d="M144.7 132.165H141.101V135.745H144.7V132.165Z" fill="black"/>
<path d="M148.299 132.165H144.7V135.745H148.299V132.165Z" fill="black"/>
<path d="M155.496 132.165H151.897V135.745H155.496V132.165Z" fill="black"/>
<path d="M159.096 132.165H155.497V135.745H159.096V132.165Z" fill="black"/>
<path d="M61.9241 135.745H58.3252V139.325H61.9241V135.745Z" fill="black"/>
<path d="M69.1224 135.745H65.5234V139.325H69.1224V135.745Z" fill="black"/>
<path d="M76.3197 135.745H72.7207V139.325H76.3197V135.745Z" fill="black"/>
<path d="M83.5179 135.745H79.9189V139.325H83.5179V135.745Z" fill="black"/>
<path d="M94.3148 135.745H90.7158V139.325H94.3148V135.745Z" fill="black"/>
<path d="M97.9134 135.745H94.3145V139.325H97.9134V135.745Z" fill="black"/>
<path d="M101.513 135.745H97.9141V139.325H101.513V135.745Z" fill="black"/>
<path d="M105.112 135.745H101.513V139.325H105.112V135.745Z" fill="black"/>
<path d="M108.71 135.745H105.111V139.325H108.71V135.745Z" fill="black"/>
<path d="M112.31 135.745H108.711V139.325H112.31V135.745Z" fill="black"/>
<path d="M115.909 135.745H112.31V139.325H115.909V135.745Z" fill="black"/>
<path d="M123.107 135.745H119.508V139.325H123.107V135.745Z" fill="black"/>
<path d="M130.304 135.745H126.705V139.325H130.304V135.745Z" fill="black"/>
<path d="M144.7 135.745H141.101V139.325H144.7V135.745Z" fill="black"/>
<path d="M155.496 135.745H151.897V139.325H155.496V135.745Z" fill="black"/>
<path d="M58.3255 139.325H54.7266V142.904H58.3255V139.325Z" fill="black"/>
<path d="M65.5228 139.325H61.9238V142.904H65.5228V139.325Z" fill="black"/>
<path d="M72.721 139.325H69.1221V142.904H72.721V139.325Z" fill="black"/>
<path d="M76.3197 139.325H72.7207V142.904H76.3197V139.325Z" fill="black"/>
<path d="M87.1165 139.325H83.5176V142.904H87.1165V139.325Z" fill="black"/>
<path d="M97.9134 139.325H94.3145V142.904H97.9134V139.325Z" fill="black"/>
<path d="M115.909 139.325H112.31V142.904H115.909V139.325Z" fill="black"/>
<path d="M119.507 139.325H115.908V142.904H119.507V139.325Z" fill="black"/>
<path d="M123.107 139.325H119.508V142.904H123.107V139.325Z" fill="black"/>
<path d="M126.705 139.325H123.106V142.904H126.705V139.325Z" fill="black"/>
<path d="M130.304 139.325H126.705V142.904H130.304V139.325Z" fill="black"/>
<path d="M133.903 139.325H130.304V142.904H133.903V139.325Z" fill="black"/>
<path d="M137.502 139.325H133.903V142.904H137.502V139.325Z" fill="black"/>
<path d="M141.101 139.325H137.502V142.904H141.101V139.325Z" fill="black"/>
<path d="M144.7 139.325H141.101V142.904H144.7V139.325Z" fill="black"/>
<path d="M151.898 139.325H148.299V142.904H151.898V139.325Z" fill="black"/>
<path d="M155.496 139.325H151.897V142.904H155.496V139.325Z" fill="black"/>
<path d="M159.096 139.325H155.497V142.904H159.096V139.325Z" fill="black"/>
<path d="M58.3255 142.904H54.7266V146.484H58.3255V142.904Z" fill="black"/>
<path d="M69.1224 142.904H65.5234V146.484H69.1224V142.904Z" fill="black"/>
<path d="M72.721 142.904H69.1221V146.484H72.721V142.904Z" fill="black"/>
<path d="M83.5179 142.904H79.9189V146.484H83.5179V142.904Z" fill="black"/>
<path d="M90.7161 142.904H87.1172V146.484H90.7161V142.904Z" fill="black"/>
<path d="M97.9134 142.904H94.3145V146.484H97.9134V142.904Z" fill="black"/>
<path d="M101.513 142.904H97.9141V146.484H101.513V142.904Z" fill="black"/>
<path d="M105.112 142.904H101.513V146.484H105.112V142.904Z" fill="black"/>
<path d="M119.507 142.904H115.908V146.484H119.507V142.904Z" fill="black"/>
<path d="M130.304 142.904H126.705V146.484H130.304V142.904Z" fill="black"/>
<path d="M137.502 142.904H133.903V146.484H137.502V142.904Z" fill="black"/>
<path d="M144.7 142.904H141.101V146.484H144.7V142.904Z" fill="black"/>
<path d="M148.299 142.904H144.7V146.484H148.299V142.904Z" fill="black"/>
<path d="M151.898 142.904H148.299V146.484H151.898V142.904Z" fill="black"/>
<path d="M58.3255 146.484H54.7266V150.063H58.3255V146.484Z" fill="black"/>
<path d="M61.9241 146.484H58.3252V150.063H61.9241V146.484Z" fill="black"/>
<path d="M72.721 146.484H69.1221V150.063H72.721V146.484Z" fill="black"/>
<path d="M76.3197 146.484H72.7207V150.063H76.3197V146.484Z" fill="black"/>
<path d="M87.1165 146.484H83.5176V150.063H87.1165V146.484Z" fill="black"/>
<path d="M90.7161 146.484H87.1172V150.063H90.7161V146.484Z" fill="black"/>
<path d="M94.3148 146.484H90.7158V150.063H94.3148V146.484Z" fill="black"/>
<path d="M97.9134 146.484H94.3145V150.063H97.9134V146.484Z" fill="black"/>
<path d="M112.31 146.484H108.711V150.063H112.31V146.484Z" fill="black"/>
<path d="M115.909 146.484H112.31V150.063H115.909V146.484Z" fill="black"/>
<path d="M119.507 146.484H115.908V150.063H119.507V146.484Z" fill="black"/>
<path d="M123.107 146.484H119.508V150.063H123.107V146.484Z" fill="black"/>
<path d="M130.304 146.484H126.705V150.063H130.304V146.484Z" fill="black"/>
<path d="M133.903 146.484H130.304V150.063H133.903V146.484Z" fill="black"/>
<path d="M141.101 146.484H137.502V150.063H141.101V146.484Z" fill="black"/>
<path d="M159.096 146.484H155.497V150.063H159.096V146.484Z" fill="black"/>
<path d="M65.5228 150.063H61.9238V153.643H65.5228V150.063Z" fill="black"/>
<path d="M69.1224 150.063H65.5234V153.643H69.1224V150.063Z" fill="black"/>
<path d="M72.721 150.063H69.1221V153.643H72.721V150.063Z" fill="black"/>
<path d="M83.5179 150.063H79.9189V153.643H83.5179V150.063Z" fill="black"/>
<path d="M87.1165 150.063H83.5176V153.643H87.1165V150.063Z" fill="black"/>
<path d="M94.3148 150.063H90.7158V153.643H94.3148V150.063Z" fill="black"/>
<path d="M101.513 150.063H97.9141V153.643H101.513V150.063Z" fill="black"/>
<path d="M112.31 150.063H108.711V153.643H112.31V150.063Z" fill="black"/>
<path d="M123.107 150.063H119.508V153.643H123.107V150.063Z" fill="black"/>
<path d="M126.705 150.063H123.106V153.643H126.705V150.063Z" fill="black"/>
<path d="M130.304 150.063H126.705V153.643H130.304V150.063Z" fill="black"/>
<path d="M133.903 150.063H130.304V153.643H133.903V150.063Z" fill="black"/>
<path d="M137.502 150.063H133.903V153.643H137.502V150.063Z" fill="black"/>
<path d="M141.101 150.063H137.502V153.643H141.101V150.063Z" fill="black"/>
<path d="M144.7 150.063H141.101V153.643H144.7V150.063Z" fill="black"/>
<path d="M159.096 150.063H155.497V153.643H159.096V150.063Z" fill="black"/>
<path d="M61.9241 153.643H58.3252V157.223H61.9241V153.643Z" fill="black"/>
<path d="M65.5228 153.643H61.9238V157.223H65.5228V153.643Z" fill="black"/>
<path d="M79.9193 153.643H76.3203V157.223H79.9193V153.643Z" fill="black"/>
<path d="M87.1165 153.643H83.5176V157.223H87.1165V153.643Z" fill="black"/>
<path d="M94.3148 153.643H90.7158V157.223H94.3148V153.643Z" fill="black"/>
<path d="M108.71 153.643H105.111V157.223H108.71V153.643Z" fill="black"/>
<path d="M112.31 153.643H108.711V157.223H112.31V153.643Z" fill="black"/>
<path d="M119.507 153.643H115.908V157.223H119.507V153.643Z" fill="black"/>
<path d="M123.107 153.643H119.508V157.223H123.107V153.643Z" fill="black"/>
<path d="M137.502 153.643H133.903V157.223H137.502V153.643Z" fill="black"/>
<path d="M141.101 153.643H137.502V157.223H141.101V153.643Z" fill="black"/>
<path d="M144.7 153.643H141.101V157.223H144.7V153.643Z" fill="black"/>
<path d="M148.299 153.643H144.7V157.223H148.299V153.643Z" fill="black"/>
<path d="M151.898 153.643H148.299V157.223H151.898V153.643Z" fill="black"/>
<path d="M155.496 153.643H151.897V157.223H155.496V153.643Z" fill="black"/>
<path d="M159.096 153.643H155.497V157.223H159.096V153.643Z" fill="black"/>
<path d="M38.531 25.0231C31.7109 25.0231 26.1816 30.5226 26.1816 37.306C26.1816 44.0894 31.7109 49.589 38.531 49.589C45.351 49.589 50.8803 44.0894 50.8803 37.306C50.8803 30.5226 45.351 25.0231 38.531 25.0231ZM38.531 45.9041C33.7644 45.9041 29.8864 42.047 29.8864 37.306C29.8864 32.5651 33.7644 28.708 38.531 28.708C43.2976 28.708 47.1755 32.5651 47.1755 37.306C47.1755 42.047 43.2976 45.9041 38.531 45.9041Z" fill="black"/>
<path d="M146.5 25.0231C139.68 25.0231 134.15 30.5226 134.15 37.306C134.15 44.0894 139.68 49.589 146.5 49.589C153.32 49.589 158.849 44.0894 158.849 37.306C158.849 30.5226 153.32 25.0231 146.5 25.0231ZM146.5 45.9041C141.733 45.9041 137.855 42.047 137.855 37.306C137.855 32.5651 141.733 28.708 146.5 28.708C151.266 28.708 155.144 32.5651 155.144 37.306C155.144 42.047 151.266 45.9041 146.5 45.9041Z" fill="black"/>
<path d="M38.531 132.411C31.7109 132.411 26.1816 137.911 26.1816 144.694C26.1816 151.478 31.7109 156.977 38.531 156.977C45.351 156.977 50.8803 151.478 50.8803 144.694C50.8803 137.911 45.351 132.411 38.531 132.411ZM38.531 153.292C33.7644 153.292 29.8864 149.435 29.8864 144.694C29.8864 139.953 33.7644 136.096 38.531 136.096C43.2976 136.096 47.1755 139.953 47.1755 144.694C47.1755 149.435 43.2976 153.292 38.531 153.292Z" fill="black"/>
<path d="M38.4254 42.4648C41.3484 42.4648 43.718 40.108 43.718 37.2007C43.718 34.2934 41.3484 31.9366 38.4254 31.9366C35.5024 31.9366 33.1328 34.2934 33.1328 37.2007C33.1328 40.108 35.5024 42.4648 38.4254 42.4648Z" fill="black"/>
<path d="M146.393 42.4648C149.316 42.4648 151.686 40.108 151.686 37.2007C151.686 34.2934 149.316 31.9366 146.393 31.9366C143.47 31.9366 141.101 34.2934 141.101 37.2007C141.101 40.108 143.47 42.4648 146.393 42.4648Z" fill="black"/>
<path d="M38.4254 149.853C41.3484 149.853 43.718 147.496 43.718 144.589C43.718 141.682 41.3484 139.325 38.4254 139.325C35.5024 139.325 33.1328 141.682 33.1328 144.589C33.1328 147.496 35.5024 149.853 38.4254 149.853Z" fill="black"/>
<g clip-path="url(#clip0_0_337)">
<path d="M92.5159 110.688C103.448 110.688 112.31 101.873 112.31 91C112.31 80.1267 103.448 71.3122 92.5159 71.3122C81.5839 71.3122 72.7217 80.1267 72.7217 91C72.7217 101.873 81.5839 110.688 92.5159 110.688Z" fill="url(#paint2_linear_0_337)"/>
<path d="M98.186 103.305H86.8458C83.1508 103.305 80.1445 100.315 80.1445 96.6397V85.3604C80.1445 81.6849 83.1508 78.6951 86.8458 78.6951H98.186C101.881 78.6951 104.887 81.6849 104.887 85.3604V96.64C104.887 100.315 101.881 103.305 98.186 103.305ZM86.8458 80.746C84.2877 80.746 82.2065 82.816 82.2065 85.3604V96.64C82.2065 99.1843 84.2877 101.254 86.8458 101.254H98.186C100.744 101.254 102.825 99.1843 102.825 96.64V85.3604C102.825 82.816 100.744 80.746 98.186 80.746H86.8458Z" fill="white"/>
<path d="M92.5158 97.1525C89.105 97.1525 86.3301 94.3922 86.3301 91C86.3301 87.6073 89.105 84.8476 92.5158 84.8476C95.9266 84.8476 98.7015 87.6073 98.7015 91C98.7015 94.3922 95.9266 97.1525 92.5158 97.1525ZM92.5158 86.8985C90.2419 86.8985 88.3921 88.7384 88.3921 91C88.3921 93.262 90.2419 95.1016 92.5158 95.1016C94.7896 95.1016 96.6395 93.262 96.6395 91C96.6395 88.7384 94.7899 86.8985 92.5158 86.8985Z" fill="white"/>
<path d="M99.0884 85.8729C99.8712 85.8729 100.506 85.2417 100.506 84.4631C100.506 83.6844 99.8712 83.0532 99.0884 83.0532C98.3055 83.0532 97.6709 83.6844 97.6709 84.4631C97.6709 85.2417 98.3055 85.8729 99.0884 85.8729Z" fill="white"/>
</g>
<defs>
<radialGradient id="paint0_radial_0_337" cx="0" cy="0" r="1" gradientUnits="userSpaceOnUse" gradientTransform="translate(69.5156 130.594) rotate(-54.9341) scale(145.122 145.952)">
<stop stop-color="#B13589"/>
<stop offset="0.79309" stop-color="#C62F94"/>
<stop offset="1" stop-color="#8A3AC8"/>
</radialGradient>
<radialGradient id="paint1_radial_0_337" cx="0" cy="0" r="1" gradientUnits="userSpaceOnUse" gradientTransform="translate(63.7656 175.844) rotate(-64.7751) scale(128.175 129.535)">
<stop stop-color="#E0E8B7"/>
<stop offset="0.444662" stop-color="#FB8A2E"/>
<stop offset="0.71474" stop-color="#E2425C"/>
<stop offset="1" stop-color="#E2425C" stop-opacity="0"/>
</radialGradient>
<linearGradient id="paint2_linear_0_337" x1="81.1616" y1="107.129" x2="103.707" y2="74.7573" gradientUnits="userSpaceOnUse">
<stop stop-color="#FFB900"/>
<stop offset="1" stop-color="#9100EB"/>
</linearGradient>
<clipPath id="clip0_0_337">
<rect width="39.5885" height="39.3756" fill="white" transform="translate(72.7217 71.3122)"/>
</clipPath>
</defs>
</svg>
