<svg width="25" height="25" viewBox="0 0 25 25" fill="none" xmlns="http://www.w3.org/2000/svg">
<path fill-rule="evenodd" clip-rule="evenodd" d="M10.5462 3.32722C10.7252 3.11252 10.9471 2.93772 11.1978 2.81408C11.4485 2.69045 11.7223 2.62073 12.0016 2.60943C12.2809 2.59812 12.5594 2.64547 12.8192 2.74844C13.0791 2.8514 13.3145 3.00769 13.5102 3.20722L13.6182 3.32722L17.5502 8.04522H20.5352C20.7451 8.04477 20.9527 8.08866 21.1444 8.17401C21.3361 8.25936 21.5076 8.38425 21.6477 8.54049C21.7878 8.69674 21.8933 8.88082 21.9573 9.08067C22.0214 9.28053 22.0424 9.49165 22.0192 9.70022L21.9272 10.4662L21.8272 11.2062L21.7452 11.7602L21.6502 12.3552L21.5422 12.9802L21.4202 13.6282L21.2842 14.2892C21.2122 14.6222 21.1352 14.9562 21.0522 15.2872C20.8308 16.1656 20.5529 17.0287 20.2202 17.8712L19.9992 18.4112L19.7852 18.8992L19.5832 19.3332L19.4892 19.5272L19.2402 20.0172C18.9202 20.6272 18.3162 20.9872 17.6772 21.0392L17.5172 21.0452H6.63721C6.28759 21.0479 5.9438 20.9556 5.6426 20.778C5.34141 20.6005 5.09413 20.3444 4.92721 20.0372L4.69521 19.5872L4.51521 19.2172C4.48316 19.1491 4.45149 19.0807 4.42021 19.0122L4.22021 18.5632C3.76365 17.5027 3.39312 16.4072 3.11221 15.2872C3.05794 15.0698 3.00594 14.8518 2.95621 14.6332L2.81421 13.9852L2.68721 13.3512L2.57521 12.7382L2.47521 12.1512L2.38821 11.5972L2.31421 11.0842L2.22421 10.4012L2.15821 9.84522C2.15244 9.79423 2.14677 9.74323 2.14121 9.69222C2.12024 9.49571 2.13864 9.29699 2.19531 9.10767C2.25198 8.91834 2.3458 8.7422 2.47129 8.58953C2.59678 8.43686 2.75142 8.31072 2.92619 8.21847C3.10096 8.12621 3.29236 8.0697 3.48921 8.05222L3.62521 8.04522H6.61421L10.5462 3.32722ZM10.0432 12.7672C9.97556 12.5313 9.8235 12.3285 9.61598 12.1974C9.40847 12.0663 9.15999 12.0161 8.91786 12.0564C8.67574 12.0966 8.45688 12.2246 8.30297 12.4158C8.14906 12.607 8.07084 12.8481 8.08321 13.0932L8.09621 13.2092L8.59621 16.2092L8.62121 16.3232C8.68885 16.5592 8.84091 16.762 9.04843 16.8931C9.25595 17.0241 9.50443 17.0743 9.74655 17.0341C9.98867 16.9938 10.2075 16.8659 10.3614 16.6747C10.5154 16.4835 10.5936 16.2424 10.5812 15.9972L10.5682 15.8812L10.0682 12.8812L10.0432 12.7672ZM15.2462 12.0592C15.0045 12.0189 14.7564 12.0687 14.549 12.1992C14.3417 12.3298 14.1894 12.5319 14.1212 12.7672L14.0962 12.8812L13.5962 15.8812C13.5545 16.1328 13.6104 16.3909 13.7527 16.6026C13.8949 16.8143 14.1126 16.9636 14.3613 17.0201C14.6101 17.0765 14.8709 17.0358 15.0906 16.9063C15.3103 16.7768 15.4722 16.5682 15.5432 16.3232L15.5682 16.2092L16.0682 13.2092C16.1116 12.9477 16.0494 12.6797 15.8952 12.4641C15.7411 12.2484 15.5077 12.1028 15.2462 12.0592ZM12.0822 4.60722L9.21721 8.04522H14.9472L12.0822 4.60722Z" fill="white"/>
</svg>
