<svg width="21" height="18" viewBox="0 0 21 18" fill="none" xmlns="http://www.w3.org/2000/svg">
<path d="M20.0216 6.2229C19.7771 5.57822 19.3152 5.11404 18.7266 4.87336C17.667 4.44357 16.381 4.80459 15.3757 5.71575C15.4753 5.46647 15.5659 5.2 15.6474 4.91634C15.8738 3.7559 15.6746 2.59546 15.0859 1.81324C14.6965 1.2803 14.135 0.945065 13.5101 0.850511C12.1154 0.661403 10.7298 1.77886 10.1502 3.42926C9.57059 1.75307 8.16685 0.644211 6.76312 0.850511C6.13823 0.953661 5.57673 1.30609 5.18731 1.84763C4.6077 2.64704 4.42658 3.7645 4.68015 4.92493C4.72544 5.14842 4.77977 5.35472 4.86128 5.55243C3.87414 4.77021 2.69681 4.46076 1.70061 4.87336C1.10289 5.12264 0.650071 5.604 0.405549 6.2401C0.0650293 7.13406 0.17914 8.22573 0.704409 9.24863C1.46514 10.6498 2.80549 11.5179 4.06432 11.5179C4.39035 11.5179 4.71638 11.4578 5.0243 11.3374C5.62202 11.0881 6.08389 10.6068 6.32841 9.98787C6.61822 9.26583 6.59105 8.38905 6.26502 7.52087C6.76312 7.89049 7.32461 8.11398 7.90422 8.11398C8.0129 8.11398 8.13063 8.10539 8.23931 8.0882C8.85514 8.00224 9.41663 7.65841 9.80606 7.12547C9.9419 6.93636 10.0596 6.73006 10.1502 6.50657C10.2408 6.73006 10.3494 6.93636 10.4853 7.11687C10.8747 7.64981 11.4362 7.99364 12.0611 8.0882C12.1698 8.10539 12.2875 8.11398 12.3962 8.11398C13.0482 8.11398 13.6822 7.83032 14.2256 7.35755C13.8361 8.27731 13.7999 9.21425 14.0988 9.98787C14.3433 10.6154 14.8052 11.0881 15.4029 11.3374C15.7108 11.4578 16.0368 11.5179 16.3719 11.5179C17.6217 11.5179 18.962 10.6498 19.7228 9.24863C20.248 8.22573 20.3658 7.12546 20.0216 6.2229ZM4.63487 9.38617C4.5262 9.66983 4.35412 9.7386 4.29979 9.75579C3.80169 9.96209 2.85982 9.44634 2.33455 8.47501C1.9723 7.77875 1.98136 7.16844 2.10815 6.81601C2.1806 6.6355 2.28927 6.50657 2.42512 6.4378C2.51568 6.4378 2.58813 6.40342 2.6787 6.40342C3.20397 6.40342 3.9647 6.89338 4.41752 7.72717C4.71638 8.31169 4.80694 8.95638 4.63487 9.38617ZM8.32081 6.14554C8.21214 6.28307 8.0944 6.36903 7.9495 6.38622C7.49668 6.4378 6.71784 5.77592 6.4552 4.5811C6.27407 3.7559 6.4552 3.137 6.68161 2.81896C6.79029 2.67283 6.91708 2.56968 7.04387 2.56968C7.49668 2.49231 8.29364 3.16279 8.54722 4.3748C8.72835 5.2086 8.54722 5.83609 8.32081 6.14554ZM13.8361 4.5725C13.5826 5.77592 12.7765 6.4378 12.3328 6.38622C12.2784 6.37763 12.1335 6.36044 11.9705 6.13694C11.7441 5.82749 11.5721 5.2086 11.7532 4.3748C11.9977 3.22296 12.7494 2.56968 13.1931 2.56968H13.2565C13.3833 2.56968 13.5011 2.66423 13.6097 2.80176C13.8995 3.19717 13.9992 3.89343 13.8361 4.5725ZM18.0926 8.47501C17.5674 9.44634 16.6255 9.96209 16.1274 9.75579C16.0731 9.7386 15.901 9.66983 15.7923 9.38617C15.6474 8.95638 15.7108 8.31169 16.0006 7.72717C16.4625 6.90197 17.2323 6.41201 17.7575 6.41201C17.8481 6.41201 17.9115 6.4378 18.0021 6.4378H18.0111C18.147 6.50657 18.2466 6.62691 18.319 6.81601C18.4549 7.15985 18.4639 7.77875 18.0926 8.47501ZM14.1078 11.5953C12.8852 10.3489 11.9252 8.10539 10.114 8.10539C8.29364 8.10539 7.38801 10.3833 6.11106 11.5953C5.15108 12.5322 3.53 13.2199 3.36698 14.5007C3.24925 15.429 3.87414 16.5465 4.77977 16.9677C5.09675 17.1224 5.43183 17.1826 5.77597 17.1826C7.14349 17.1826 8.67401 16.2113 10.114 16.2113C11.5721 16.2113 13.0935 17.1568 14.4791 17.1568C14.8142 17.1568 15.1403 17.1052 15.4572 16.9677C16.2361 16.6325 16.8881 15.7385 16.8519 14.9305C16.7885 13.5294 15.1131 12.644 14.1078 11.5953ZM14.7056 15.4032C14.6338 15.431 14.5564 15.4427 14.4791 15.4376C14.0988 15.4376 13.5011 15.2485 12.9305 15.068C12.0973 14.8015 11.1464 14.4921 10.114 14.4921C9.08155 14.4921 8.13063 14.8101 7.29744 15.0852C6.72689 15.2657 6.13823 15.4634 5.77597 15.4634C5.65824 15.4634 5.61296 15.4634 5.57673 15.4204C5.37749 15.3259 5.14203 14.9219 5.1692 14.707C5.23259 14.5093 5.89371 14.0107 6.21974 13.7443C6.61822 13.4692 7.04387 13.1683 7.39706 12.8073C7.89516 12.3345 8.3027 11.793 8.70118 11.2687C9.10872 10.7357 9.78795 9.82455 10.114 9.82455C10.4762 9.82455 11.1917 10.7873 11.6264 11.3546C11.9796 11.836 12.3509 12.3259 12.7675 12.7557C13.1207 13.1168 13.492 13.4348 13.8361 13.7443C14.3252 14.1311 15.0316 14.7242 15.0406 14.9821C15.0316 15.1024 14.8505 15.3431 14.7056 15.4032Z" fill="white"/>
</svg>
