<svg width="21" height="17" viewBox="0 0 21 17" fill="none" xmlns="http://www.w3.org/2000/svg">
<path d="M19.9625 5.70783C19.7175 5.06314 19.2547 4.59897 18.6648 4.35828C17.603 3.92849 16.3143 4.28952 15.3069 5.20067C15.4067 4.95139 15.4975 4.68492 15.5792 4.40126C15.806 3.24083 15.6064 2.08039 15.0165 1.29817C14.6262 0.765226 14.0636 0.429989 13.4374 0.335435C12.0398 0.146327 10.6512 1.26378 10.0704 2.91418C9.4896 1.238 8.08293 0.129135 6.67625 0.335435C6.05005 0.438585 5.48738 0.791014 5.09714 1.33255C4.51632 2.13196 4.33482 3.24942 4.58892 4.40986C4.6343 4.63335 4.68875 4.83965 4.77043 5.03735C3.78122 4.25513 2.60143 3.94568 1.60314 4.35828C1.00417 4.60756 0.550402 5.08893 0.305368 5.72502C-0.0358642 6.61899 0.078485 7.71066 0.604854 8.73356C1.36718 10.1347 2.71033 11.0029 3.9718 11.0029C4.29851 11.0029 4.62523 10.9427 4.93379 10.8223C5.53276 10.5731 5.9956 10.0917 6.24064 9.4728C6.53105 8.75075 6.50382 7.87398 6.17711 7.0058C6.67625 7.37542 7.23892 7.59891 7.81974 7.59891C7.92865 7.59891 8.04663 7.59031 8.15553 7.57312C8.77265 7.48716 9.33532 7.14333 9.72556 6.61039C9.86169 6.42128 9.97967 6.21498 10.0704 5.99149C10.1612 6.21498 10.2701 6.42128 10.4062 6.60179C10.7965 7.13474 11.3591 7.47857 11.9853 7.57312C12.0942 7.59031 12.2122 7.59891 12.3211 7.59891C12.9745 7.59891 13.6098 7.31525 14.1543 6.84248C13.7641 7.76223 13.7278 8.69917 14.0273 9.4728C14.2723 10.1003 14.7351 10.5731 15.3341 10.8223C15.6427 10.9427 15.9694 11.0029 16.3052 11.0029C17.5576 11.0029 18.9007 10.1347 19.663 8.73356C20.1894 7.71066 20.3074 6.61039 19.9625 5.70783ZM14.0363 11.0802C12.8112 9.83382 11.8492 7.59031 10.0341 7.59031C8.20998 7.59031 7.30245 9.86821 6.02283 11.0802C5.06084 12.0172 3.43636 12.7048 3.273 13.9856C3.15502 14.914 3.78122 16.0314 4.68875 16.4526C5.00639 16.6073 5.34218 16.6675 5.68704 16.6675C7.05741 16.6675 8.59115 15.6962 10.0341 15.6962C11.4953 15.6962 13.0199 16.6417 14.4084 16.6417C14.7442 16.6417 15.0709 16.5901 15.3886 16.4526C16.169 16.1174 16.8225 15.2234 16.7862 14.4154C16.7226 13.0143 15.0437 12.1289 14.0363 11.0802Z" fill="#FCD039"/>
</svg>
