<svg width="21" height="17" viewBox="0 0 21 17" fill="none" xmlns="http://www.w3.org/2000/svg">
<path d="M20.0216 5.56006C19.7771 4.91537 19.3152 4.4512 18.7266 4.21052C17.667 3.78072 16.381 4.14175 15.3757 5.05291C15.4753 4.80363 15.5659 4.53716 15.6474 4.2535C15.8738 3.09306 15.6746 1.93262 15.0859 1.1504C14.6965 0.61746 14.135 0.282223 13.5101 0.187669C12.1154 -0.00143929 10.7298 1.11602 10.1502 2.76642C9.57059 1.09023 8.16685 -0.0186309 6.76312 0.187669C6.13823 0.290819 5.57673 0.643248 5.18731 1.18479C4.6077 1.9842 4.42658 3.10165 4.68015 4.26209C4.72544 4.48558 4.77977 4.69188 4.86128 4.88959C3.87414 4.10737 2.69681 3.79792 1.70061 4.21052C1.10289 4.4598 0.650071 4.94116 0.405549 5.57725C0.0650293 6.47122 0.17914 7.56289 0.704409 8.58579C1.46514 9.98691 2.80549 10.8551 4.06432 10.8551C4.39035 10.8551 4.71638 10.7949 5.0243 10.6746C5.62202 10.4253 6.08389 9.94393 6.32841 9.32503C6.61822 8.60298 6.59105 7.72621 6.26502 6.85803C6.76312 7.22765 7.32461 7.45114 7.90422 7.45114C8.0129 7.45114 8.13063 7.44255 8.23931 7.42536C8.85514 7.3394 9.41663 6.99556 9.80606 6.46262C9.9419 6.27352 10.0596 6.06721 10.1502 5.84372C10.2408 6.06721 10.3494 6.27352 10.4853 6.45403C10.8747 6.98697 11.4362 7.3308 12.0611 7.42536C12.1698 7.44255 12.2875 7.45114 12.3962 7.45114C13.0482 7.45114 13.6822 7.16748 14.2256 6.69471C13.8361 7.61446 13.7999 8.55141 14.0988 9.32503C14.3433 9.95253 14.8052 10.4253 15.4029 10.6746C15.7108 10.7949 16.0368 10.8551 16.3719 10.8551C17.6217 10.8551 18.962 9.98691 19.7228 8.58579C20.248 7.56289 20.3658 6.46262 20.0216 5.56006ZM4.63487 8.72333C4.5262 9.00699 4.35412 9.07575 4.29979 9.09295C3.80169 9.29925 2.85982 8.7835 2.33455 7.81217C1.9723 7.11591 1.98136 6.5056 2.10815 6.15317C2.1806 5.97266 2.28927 5.84372 2.42512 5.77496C2.51568 5.77496 2.58813 5.74057 2.6787 5.74057C3.20397 5.74057 3.9647 6.23054 4.41752 7.06433C4.71638 7.64885 4.80694 8.29353 4.63487 8.72333ZM8.32081 5.4827C8.21214 5.62023 8.0944 5.70619 7.9495 5.72338C7.49668 5.77496 6.71784 5.11308 6.4552 3.91826C6.27407 3.09306 6.4552 2.47416 6.68161 2.15611C6.79029 2.00998 6.91708 1.90683 7.04387 1.90683C7.49668 1.82947 8.29364 2.49995 8.54722 3.71196C8.72835 4.54575 8.54722 5.17325 8.32081 5.4827ZM13.8361 3.90966C13.5826 5.11308 12.7765 5.77496 12.3328 5.72338C12.2784 5.71479 12.1335 5.69759 11.9705 5.4741C11.7441 5.16465 11.5721 4.54575 11.7532 3.71196C11.9977 2.56012 12.7494 1.90683 13.1931 1.90683H13.2565C13.3833 1.90683 13.5011 2.00139 13.6097 2.13892C13.8995 2.53433 13.9992 3.23059 13.8361 3.90966ZM18.0926 7.81217C17.5674 8.7835 16.6255 9.29925 16.1274 9.09295C16.0731 9.07575 15.901 9.00699 15.7923 8.72333C15.6474 8.29353 15.7108 7.64885 16.0006 7.06433C16.4625 6.23913 17.2323 5.74917 17.7575 5.74917C17.8481 5.74917 17.9115 5.77496 18.0021 5.77496H18.0111C18.147 5.84372 18.2466 5.96407 18.319 6.15317C18.4549 6.49701 18.4639 7.11591 18.0926 7.81217ZM14.1078 10.9325C12.8852 9.68606 11.9252 7.44255 10.114 7.44255C8.29364 7.44255 7.38801 9.72044 6.11106 10.9325C5.15108 11.8694 3.53 12.5571 3.36698 13.8378C3.24925 14.7662 3.87414 15.8836 4.77977 16.3048C5.09675 16.4596 5.43183 16.5197 5.77597 16.5197C7.14349 16.5197 8.67401 15.5484 10.114 15.5484C11.5721 15.5484 13.0935 16.494 14.4791 16.494C14.8142 16.494 15.1403 16.4424 15.4572 16.3048C16.2361 15.9696 16.8881 15.0756 16.8519 14.2676C16.7885 12.8665 15.1131 11.9811 14.1078 10.9325ZM14.7056 14.7404C14.6338 14.7681 14.5564 14.7799 14.4791 14.7748C14.0988 14.7748 13.5011 14.5857 12.9305 14.4052C12.0973 14.1387 11.1464 13.8292 10.114 13.8292C9.08155 13.8292 8.13063 14.1473 7.29744 14.4224C6.72689 14.6029 6.13823 14.8006 5.77597 14.8006C5.65824 14.8006 5.61296 14.8006 5.57673 14.7576C5.37749 14.663 5.14203 14.259 5.1692 14.0441C5.23259 13.8464 5.89371 13.3479 6.21974 13.0814C6.61822 12.8063 7.04387 12.5055 7.39706 12.1445C7.89516 11.6717 8.3027 11.1302 8.70118 10.6058C9.10872 10.0729 9.78795 9.16171 10.114 9.16171C10.4762 9.16171 11.1917 10.1244 11.6264 10.6918C11.9796 11.1731 12.3509 11.6631 12.7675 12.0929C13.1207 12.4539 13.492 12.772 13.8361 13.0814C14.3252 13.4682 15.0316 14.0613 15.0406 14.3192C15.0316 14.4396 14.8505 14.6802 14.7056 14.7404Z" fill="#FCD039"/>
</svg>
