<svg width="25" height="25" viewBox="0 0 25 25" fill="none" xmlns="http://www.w3.org/2000/svg">
<path d="M23.4519 8.29515C23.1819 7.54515 22.6719 7.00515 22.0219 6.72515C20.8519 6.22515 19.4319 6.64515 18.3219 7.70515C18.4319 7.41515 18.5319 7.10515 18.6219 6.77515C18.8719 5.42515 18.6519 4.07515 18.0019 3.16515C17.5719 2.54515 16.9519 2.15515 16.2619 2.04515C14.7219 1.82515 13.1919 3.12515 12.5519 5.04515C11.9119 3.09515 10.3619 1.80515 8.81193 2.04515C8.12193 2.16515 7.50194 2.57515 7.07194 3.20515C6.43194 4.13515 6.23194 5.43515 6.51194 6.78515C6.56194 7.04515 6.62194 7.28515 6.71194 7.51515C5.62194 6.60515 4.32194 6.24515 3.22194 6.72515C2.56194 7.01515 2.06194 7.57515 1.79194 8.31515C1.41594 9.35515 1.54194 10.6251 2.12194 11.8151C2.96194 13.4451 4.44194 14.4551 5.83194 14.4551C6.19194 14.4551 6.55194 14.3851 6.89194 14.2451C7.55194 13.9551 8.06194 13.3951 8.33194 12.6751C8.65194 11.8351 8.62194 10.8151 8.26194 9.80515C8.81194 10.2351 9.43194 10.4951 10.0719 10.4951C10.1919 10.4951 10.3219 10.4851 10.4419 10.4651C11.1219 10.3651 11.7419 9.96515 12.1719 9.34515C12.3219 9.12515 12.4519 8.88515 12.5519 8.62515C12.6519 8.88515 12.7719 9.12515 12.9219 9.33515C13.3519 9.95515 13.9719 10.3551 14.6619 10.4651C14.7819 10.4851 14.9119 10.4951 15.0319 10.4951C15.7519 10.4951 16.4519 10.1651 17.0519 9.61515C16.6219 10.6851 16.5819 11.7751 16.9119 12.6751C17.1819 13.4051 17.6919 13.9551 18.3519 14.2451C18.6919 14.3851 19.0519 14.4551 19.4219 14.4551C20.8019 14.4551 22.2819 13.4451 23.1219 11.8151C23.7019 10.6251 23.8319 9.34515 23.4519 8.29515ZM6.46194 11.9751C6.34194 12.3051 6.15194 12.3851 6.09194 12.4051C5.54194 12.6451 4.50194 12.0451 3.92194 10.9151C3.52194 10.1051 3.53194 9.39515 3.67194 8.98515C3.75194 8.77515 3.87194 8.62515 4.02194 8.54515C4.12194 8.54515 4.20194 8.50515 4.30194 8.50515C4.88194 8.50515 5.72194 9.07515 6.22194 10.0451C6.55194 10.7251 6.65194 11.4751 6.46194 11.9751ZM10.5319 8.20515C10.4119 8.36515 10.2819 8.46515 10.1219 8.48515C9.62194 8.54515 8.76194 7.77515 8.47194 6.38515C8.27194 5.42515 8.47194 4.70515 8.72194 4.33515C8.84194 4.16515 8.98194 4.04515 9.12194 4.04515C9.62193 3.95515 10.5019 4.73515 10.7819 6.14515C10.9819 7.11515 10.7819 7.84515 10.5319 8.20515ZM16.6219 6.37515C16.3419 7.77515 15.4519 8.54515 14.9619 8.48515C14.9019 8.47515 14.7419 8.45515 14.5619 8.19515C14.3119 7.83515 14.1219 7.11515 14.3219 6.14515C14.5919 4.80515 15.4219 4.04515 15.9119 4.04515H15.9819C16.1219 4.04515 16.2519 4.15515 16.3719 4.31515C16.6919 4.77515 16.8019 5.58515 16.6219 6.37515ZM21.3219 10.9151C20.7419 12.0451 19.7019 12.6451 19.1519 12.4051C19.0919 12.3851 18.9019 12.3051 18.7819 11.9751C18.6219 11.4751 18.6919 10.7251 19.0119 10.0451C19.5219 9.08515 20.3719 8.51515 20.9519 8.51515C21.0519 8.51515 21.1219 8.54515 21.2219 8.54515H21.2319C21.3819 8.62515 21.4919 8.76515 21.5719 8.98515C21.7219 9.38515 21.7319 10.1051 21.3219 10.9151ZM16.9219 14.5451C15.5719 13.0951 14.5119 10.4851 12.5119 10.4851C10.5019 10.4851 9.50194 13.1351 8.09194 14.5451C7.03194 15.6351 5.24194 16.4351 5.06194 17.9251C4.93194 19.0051 5.62194 20.3051 6.62194 20.7951C6.97194 20.9751 7.34194 21.0451 7.72194 21.0451C9.23194 21.0451 10.9219 19.9151 12.5119 19.9151C14.1219 19.9151 15.8019 21.0151 17.3319 21.0151C17.7019 21.0151 18.0619 20.9551 18.4119 20.7951C19.2719 20.4051 19.9919 19.3651 19.9519 18.4251C19.8819 16.7951 18.0319 15.7651 16.9219 14.5451ZM17.5819 18.9751C17.5027 19.0074 17.4172 19.0211 17.3319 19.0151C16.9119 19.0151 16.2519 18.7951 15.6219 18.5851C14.7019 18.2752 13.6519 17.9151 12.5119 17.9151C11.3719 17.9151 10.3219 18.2851 9.40194 18.6051C8.77193 18.8151 8.12194 19.0451 7.72194 19.0451C7.59194 19.0451 7.54194 19.0451 7.50194 18.9951C7.28194 18.8851 7.02193 18.4151 7.05194 18.1651C7.12194 17.9352 7.85194 17.3551 8.21194 17.0451C8.65194 16.7251 9.12194 16.3751 9.51194 15.9551C10.0619 15.4051 10.5119 14.7751 10.9519 14.1651C11.4019 13.5451 12.1519 12.4851 12.5119 12.4851C12.9119 12.4851 13.7019 13.6051 14.1819 14.2651C14.5719 14.8251 14.9819 15.3951 15.4419 15.8951C15.8319 16.3151 16.2419 16.6851 16.6219 17.0451C17.1619 17.4951 17.9419 18.1852 17.9519 18.4851C17.9419 18.6251 17.7419 18.9051 17.5819 18.9751Z" fill="white"/>
</svg>
