<svg width="25" height="25" viewBox="0 0 25 25" fill="none" xmlns="http://www.w3.org/2000/svg">
<path d="M16.4125 15.5275H15.4506L15.1097 15.1987C15.8706 14.3147 16.4268 13.2734 16.7383 12.1493C17.0499 11.0253 17.1091 9.84624 16.9118 8.69661C16.3395 5.3116 13.5146 2.60846 10.1052 2.19447C8.90661 2.04283 7.68919 2.1674 6.54613 2.55865C5.40306 2.94989 4.36465 3.59745 3.51034 4.45175C2.65604 5.30605 2.00849 6.34447 1.61724 7.48753C1.226 8.6306 1.10143 9.84802 1.25306 11.0466C1.66706 14.456 4.37019 17.2809 7.7552 17.8532C8.90483 18.0505 10.0839 17.9913 11.2079 17.6797C12.332 17.3682 13.3733 16.812 14.2573 16.0511L14.5861 16.392V17.3539L19.761 22.5289C20.2602 23.0281 21.0761 23.0281 21.5753 22.5289C22.0745 22.0296 22.0745 21.2138 21.5753 20.7146L16.4125 15.5275ZM9.10677 15.5275C6.07487 15.5275 3.62744 13.0801 3.62744 10.0482C3.62744 7.01628 6.07487 4.56885 9.10677 4.56885C12.1387 4.56885 14.5861 7.01628 14.5861 10.0482C14.5861 13.0801 12.1387 15.5275 9.10677 15.5275Z" fill="white"/>
</svg>
