<svg width="149" height="150" viewBox="0 0 149 150" fill="none" xmlns="http://www.w3.org/2000/svg">
<path d="M63.0697 18.0916C62.7459 17.7187 62.3311 17.5212 61.894 17.5055C61.1074 17.4795 60.3832 18.0418 59.9812 18.9043C59.9798 18.7119 59.9679 18.5102 59.9456 18.2991C59.7872 17.4623 59.3575 16.7312 58.7793 16.3513C58.3922 16.0895 57.9477 16.0034 57.5255 16.095C56.5884 16.3142 55.9983 17.4099 56.0597 18.6641C55.2538 17.6805 54.0717 17.2832 53.2322 17.7706C52.8614 17.9952 52.5961 18.3717 52.4892 18.8327C52.3293 19.5144 52.505 20.311 52.9693 21.0286C53.0565 21.1677 53.1446 21.293 53.248 21.4057C52.4159 21.1247 51.5863 21.2089 51.0596 21.7339C50.7442 22.05 50.5819 22.4863 50.5923 22.9748C50.6086 23.6607 50.966 24.3667 51.567 24.9243C52.4164 25.6779 53.4955 25.929 54.2965 25.6164C54.5044 25.5354 54.696 25.4139 54.8603 25.2565C55.1756 24.9404 55.3444 24.5019 55.3385 24.0249C55.3345 23.4672 55.0885 22.8842 54.6549 22.3812C55.0682 22.5061 55.4835 22.517 55.8523 22.373C55.9216 22.3461 55.9944 22.311 56.0587 22.2725C56.4285 22.0617 56.6958 21.691 56.8047 21.2358C56.8418 21.0749 56.8631 20.9068 56.8626 20.734C56.9785 20.8618 57.1012 20.9736 57.2349 21.0613C57.6215 21.3231 58.0685 21.4149 58.4908 21.3233C58.5645 21.3079 58.6417 21.2844 58.7105 21.2575C59.1259 21.0955 59.455 20.7472 59.6778 20.2943C59.6699 21.0097 59.8912 21.6489 60.2827 22.0951C60.602 22.4565 61.0193 22.6598 61.4648 22.679C61.692 22.6835 61.9153 22.643 62.1281 22.5597C62.9236 22.2494 63.5503 21.3325 63.6686 20.2011C63.7364 19.3826 63.5241 18.6133 63.0697 18.0916ZM60.7079 23.1741C59.605 22.6393 58.4091 21.3686 57.2562 21.8185C56.0978 22.2705 56.1157 24.0277 55.6192 25.1601C55.2528 26.0287 54.4004 26.8939 54.6306 27.7959C54.7979 28.4496 55.487 29.0461 56.1731 29.1045C56.4151 29.1298 56.6443 29.0871 56.8631 29.0016C57.7334 28.662 58.4541 27.6285 59.3704 27.2709C60.2981 26.9088 61.5128 27.167 62.3945 26.8228C62.6078 26.7396 62.8019 26.624 62.9677 26.4527C63.3756 26.0338 63.5572 25.2705 63.3236 24.736C62.9182 23.8093 61.6207 23.6299 60.7079 23.1741Z" fill="black"/>
<path d="M71.7108 88.3805C71.7108 90.0816 66.9116 92.5004 64.438 92.5004C61.9639 92.5004 57.6671 90.0816 57.6671 88.3805C57.4488 85.4701 61.7684 85.4701 64.242 85.4701C66.7156 85.4701 71.0336 85.0718 71.7108 88.3805Z" fill="black"/>
<path d="M61.7568 111.782C61.7568 110.809 62.5434 110.02 63.5137 110.02H66.851C67.8213 110.02 68.6079 110.809 68.6079 111.782V115.131C68.6079 116.105 67.8213 116.894 66.851 116.894H63.5137C62.5434 116.894 61.7568 116.105 61.7568 115.131V111.782Z" fill="black"/>
<path fill-rule="evenodd" clip-rule="evenodd" d="M57.5857 107.845C56.4185 107.269 55.0547 108.122 55.0547 109.427V117.537C55.0547 118.87 56.4724 119.721 57.6426 119.09L61.9824 116.751C61.6651 116.432 61.4691 115.991 61.4691 115.505V111.577C61.4691 110.978 61.7671 110.448 62.2225 110.13L57.5857 107.845ZM68.3355 110.285C68.681 110.607 68.8968 111.067 68.8968 111.577V115.505C68.8968 115.905 68.7642 116.274 68.5404 116.57L72.6773 118.962C73.8485 119.64 75.3113 118.791 75.3113 117.435V109.518C75.3113 108.191 73.9054 107.34 72.7357 107.959L68.3355 110.285Z" fill="black"/>
<path d="M85.2275 97.5352C85.2275 97.2163 85.5379 96.9879 85.8428 97.0783C87.2294 97.4885 90.6693 98.4277 93.1255 98.4277C95.5813 98.4277 99.0217 97.4885 100.408 97.0783C100.713 96.9879 101.024 97.2163 101.024 97.5352V97.9882C101.024 98.1978 100.886 98.3815 100.684 98.4362C99.5424 98.7466 95.7565 99.7181 93.1255 99.7181C90.4945 99.7181 86.7086 98.7466 85.5661 98.4362C85.3647 98.3815 85.2275 98.1978 85.2275 97.9882V97.5352Z" fill="black"/>
<path d="M96.1823 103.52C96.1823 105.214 94.8136 106.587 93.1256 106.587C91.4371 106.587 90.0684 105.214 90.0684 103.52C90.0684 101.826 91.4371 100.453 93.1256 100.453C94.8136 100.453 96.1823 101.826 96.1823 103.52Z" fill="black"/>
<path d="M92.5596 99.0181H93.6927V100.418H92.5596V99.0181Z" fill="black"/>
<path d="M98.4786 86.2656C98.4538 86.0366 98.8874 85.841 98.8874 85.841C98.8874 85.841 106.289 84.1349 111.015 84.6822C116.362 85.3011 123.948 89.4577 123.948 89.4577C123.948 89.4577 116.125 85.8628 110.852 85.3657C106.147 84.9221 98.7924 86.6028 98.7924 86.6028C98.7924 86.6028 98.4979 86.4449 98.4786 86.2656Z" fill="black"/>
<path fill-rule="evenodd" clip-rule="evenodd" d="M123.975 89.4062C123.975 89.4062 123.975 89.4062 123.946 89.4578C123.922 89.511 123.922 89.511 123.922 89.511L123.916 89.5085L123.899 89.5005C123.885 89.4941 123.862 89.4836 123.833 89.4707C123.775 89.4444 123.688 89.4057 123.576 89.356C123.352 89.2567 123.027 89.1146 122.619 88.9423C121.804 88.5976 120.662 88.1332 119.356 87.6534C116.742 86.6929 113.474 85.6717 110.845 85.4244C108.501 85.2034 105.492 85.5113 103.066 85.8759C101.853 86.0581 100.788 86.2543 100.025 86.4048C99.644 86.4798 99.3391 86.5439 99.1287 86.5891C99.0238 86.6114 98.9426 86.6293 98.8876 86.6412C98.8604 86.6477 98.8396 86.6521 98.8253 86.6551L98.8094 86.6591L98.8045 86.6601C98.8045 86.6601 98.8045 86.6601 98.7916 86.603C98.7639 86.6546 98.7639 86.6546 98.7639 86.6546L98.7624 86.6541L98.7599 86.6526C98.7575 86.6512 98.754 86.6492 98.7495 86.6467C98.7406 86.6417 98.7287 86.6343 98.7139 86.6253C98.6847 86.6065 98.6451 86.5801 98.605 86.5473C98.5649 86.5146 98.5223 86.4748 98.4882 86.4296C98.454 86.3849 98.4258 86.3318 98.4194 86.2722C98.4109 86.1947 98.4416 86.1252 98.4837 86.0681C98.5258 86.0105 98.5827 85.9608 98.6377 85.9201C98.6931 85.8793 98.749 85.8461 98.7911 85.8232C98.8119 85.8118 98.8297 85.8028 98.8421 85.7969C98.848 85.7939 98.853 85.7914 98.8565 85.7899L98.8604 85.7879L98.8619 85.7874H98.8624C98.8624 85.7874 98.8624 85.7874 98.8862 85.8411C98.8733 85.7835 98.8733 85.7835 98.8733 85.7835L98.8787 85.7825L98.8946 85.7785C98.9089 85.7755 98.9302 85.7706 98.9579 85.7646C99.0134 85.7522 99.0951 85.7338 99.2015 85.7115C99.4134 85.6658 99.7213 85.6012 100.105 85.5252C100.874 85.3737 101.948 85.1775 103.17 84.9982C105.611 84.6401 108.65 84.3491 111.021 84.6238C113.703 84.9342 116.943 86.1311 119.509 87.2481C120.792 87.8069 121.908 88.3463 122.704 88.7461C123.101 88.9458 123.419 89.1106 123.637 89.2259C123.746 89.2835 123.831 89.3282 123.887 89.359C123.916 89.3744 123.938 89.3858 123.952 89.3937L123.969 89.4032L123.973 89.4052L123.974 89.4057L123.975 89.4062ZM98.8862 85.8411L98.8733 85.7835L98.8674 85.785L98.8624 85.7874L98.8862 85.8411ZM98.9055 85.8967C98.9025 85.8982 98.8985 85.9002 98.8936 85.9027C98.8822 85.9081 98.8664 85.9161 98.8466 85.9265C98.808 85.9479 98.757 85.9782 98.707 86.0149C98.657 86.0517 98.6099 86.0939 98.5778 86.1376C98.5456 86.1818 98.5317 86.222 98.5357 86.2593C98.5387 86.2896 98.5545 86.3233 98.5812 86.3586C98.608 86.3934 98.6426 86.4267 98.6788 86.456C98.7144 86.4848 98.7495 86.5086 98.7763 86.5255C98.7857 86.5315 98.7941 86.5364 98.8005 86.5404C98.8149 86.5374 98.8357 86.5325 98.8624 86.5265C98.9178 86.5146 98.999 86.4967 99.1045 86.4738C99.3148 86.4286 99.6208 86.3651 100.003 86.2896C100.767 86.1386 101.834 85.9424 103.048 85.7596C105.476 85.3951 108.497 85.0847 110.857 85.3072C113.501 85.5565 116.781 86.5816 119.396 87.5427C120.553 87.9678 121.581 88.3805 122.367 88.7093C121.601 88.3289 120.597 87.8501 119.462 87.3559C116.898 86.2399 113.672 85.0489 111.008 84.7405C108.652 84.4678 105.627 84.7564 103.186 85.1145C101.967 85.2933 100.895 85.4894 100.128 85.6404C99.7445 85.7159 99.4371 85.7805 99.2257 85.8262C99.1203 85.849 99.0386 85.8669 98.9832 85.8793C98.9555 85.8853 98.9347 85.8903 98.9203 85.8932L98.9055 85.8967ZM98.7916 86.603L98.7639 86.6546L98.7832 86.6651L98.8045 86.6601L98.7916 86.603ZM123.946 89.4578L123.922 89.511L123.975 89.4062L123.946 89.4578Z" fill="black"/>
<path d="M99.2571 88.6548C99.2462 88.4909 99.5606 88.3643 99.5606 88.3643C99.5606 88.3643 104.878 87.3694 108.225 87.8984C112.012 88.4969 117.288 91.6795 117.288 91.6795C117.288 91.6795 111.863 89.0104 108.125 88.5008C104.79 88.0459 99.4705 88.9036 99.4705 88.9036C99.4705 88.9036 99.2655 88.7824 99.2571 88.6548Z" fill="black"/>
<path fill-rule="evenodd" clip-rule="evenodd" d="M117.318 91.6292C117.318 91.6292 117.318 91.6292 117.288 91.6794C117.262 91.732 117.262 91.732 117.262 91.732L117.258 91.7305L117.247 91.7246C117.237 91.7196 117.221 91.7122 117.201 91.7022C117.16 91.6829 117.1 91.6535 117.023 91.6168C116.867 91.5428 116.641 91.437 116.358 91.3079C115.792 91.0501 114.997 90.7009 114.087 90.3359C112.264 89.6048 109.979 88.8126 108.117 88.5588C106.457 88.3323 104.298 88.4327 102.552 88.5901C101.68 88.6686 100.912 88.762 100.361 88.835C100.087 88.8717 99.8659 88.9035 99.7144 88.9259C99.6382 88.9373 99.5798 88.9462 99.5402 88.9522C99.5204 88.9552 99.505 88.9576 99.4951 88.9591L99.4838 88.9611L99.4798 88.9616C99.4798 88.9616 99.4798 88.9616 99.4704 88.9035C99.4407 88.9542 99.4407 88.9542 99.4407 88.9542L99.4402 88.9537L99.4377 88.9527C99.4362 88.9512 99.4338 88.9497 99.4308 88.9477C99.4244 88.9442 99.4154 88.9383 99.4051 88.9313C99.3848 88.9169 99.3565 88.8966 99.3283 88.8712C99.3001 88.8464 99.2699 88.8156 99.2462 88.7813C99.2224 88.7471 99.2016 88.7053 99.1986 88.6587C99.1947 88.5976 99.2214 88.5444 99.2541 88.5032C99.2872 88.462 99.3308 88.4267 99.3719 88.3994C99.4135 88.3711 99.4551 88.3492 99.4857 88.3338C99.5011 88.3264 99.5144 88.3204 99.5234 88.3164C99.5283 88.314 99.5318 88.3125 99.5343 88.3115L99.5372 88.3105L99.5382 88.31H99.5387C99.5387 88.31 99.5387 88.31 99.5605 88.3641C99.5496 88.3065 99.5496 88.3065 99.5501 88.3065L99.5536 88.306L99.5654 88.3035C99.5753 88.3015 99.5907 88.2991 99.6105 88.2956C99.6506 88.2881 99.7095 88.2777 99.7857 88.2648C99.9377 88.2385 100.159 88.2017 100.435 88.159C100.986 88.0741 101.756 87.9658 102.632 87.8744C104.38 87.6916 106.553 87.5744 108.235 87.8406C110.137 88.1411 112.409 89.0898 114.202 89.9604C115.1 90.3965 115.878 90.8132 116.433 91.1216C116.71 91.2756 116.931 91.4022 117.083 91.4906C117.159 91.5348 117.218 91.5696 117.258 91.593C117.278 91.6049 117.292 91.6138 117.303 91.6198L117.314 91.6267L117.318 91.6287L117.318 91.6292ZM99.5605 88.3641L99.5501 88.3065L99.5442 88.3075L99.5387 88.31L99.5605 88.3641ZM99.5773 88.4207C99.5753 88.4217 99.5734 88.4227 99.5704 88.4237C99.5625 88.4272 99.5511 88.4327 99.5372 88.4391C99.5095 88.453 99.4729 88.4724 99.4372 88.4967C99.4011 88.5211 99.3684 88.5484 99.3457 88.5767C99.3229 88.6055 99.314 88.6298 99.3155 88.6507C99.3164 88.6681 99.3249 88.6894 99.3422 88.7138C99.359 88.7381 99.3818 88.762 99.4055 88.7833C99.4298 88.8042 99.4536 88.8221 99.4714 88.8345C99.4758 88.8374 99.4798 88.8399 99.4833 88.8424C99.4932 88.8404 99.506 88.8384 99.5224 88.836C99.562 88.83 99.6209 88.8211 99.6971 88.8096C99.8496 88.7868 100.07 88.755 100.346 88.7188C100.898 88.6452 101.668 88.5519 102.542 88.4729C104.289 88.3155 106.459 88.2141 108.133 88.4426C110.009 88.6984 112.306 89.4955 114.13 90.2266C114.844 90.5127 115.487 90.7894 116.004 91.0198C115.496 90.7437 114.86 90.4109 114.151 90.0662C112.36 89.1965 110.1 88.2544 108.216 87.9564C106.551 87.6931 104.391 87.8089 102.644 87.9916C101.771 88.0825 101.002 88.1903 100.453 88.2752C100.178 88.3174 99.957 88.3542 99.8055 88.3805C99.7298 88.3934 99.6709 88.4039 99.6313 88.4113C99.6115 88.4148 99.5966 88.4173 99.5862 88.4193L99.5773 88.4207ZM99.4704 88.9035L99.4407 88.9542L99.459 88.9651L99.4798 88.9616L99.4704 88.9035ZM117.288 91.6794L117.262 91.732L117.318 91.6292L117.288 91.6794Z" fill="black"/>
<path d="M105.454 78.1794C105.454 80.4626 103.609 82.3137 101.333 82.3137C99.0578 82.3137 97.2129 80.4626 97.2129 78.1794C97.2129 75.8962 99.0578 74.0452 101.333 74.0452C103.609 74.0452 105.454 75.8962 105.454 78.1794Z" fill="black"/>
<path fill-rule="evenodd" clip-rule="evenodd" d="M43.3835 51.9226L43.605 51.6083L43.2302 51.342L43.036 51.7597L43.3835 51.9226ZM63.0906 100.805C63.4262 100.991 63.4257 100.991 63.4257 100.991L63.4252 100.992L63.4242 100.994L63.4198 101.002C63.4163 101.008 63.4114 101.017 63.4044 101.029C63.3911 101.052 63.3718 101.085 63.347 101.127C63.2965 101.212 63.2233 101.331 63.1287 101.476C63.0698 101.565 63.0069 101.675 62.9376 101.795C62.7852 102.06 62.6015 102.378 62.3654 102.657C61.6917 103.454 60.6556 104.283 59.4785 104.544C56.7301 105.155 54.6917 104.451 53.0705 103.053C51.4765 101.679 50.2964 99.6439 49.2048 97.6239C47.1518 93.8259 46.7151 91.3893 45.9957 87.3742L45.9939 87.3648L45.9938 87.3638C45.9567 87.1572 45.9189 86.9461 45.88 86.73C45.4568 84.3793 45.268 81.3357 45.1843 78.8921C45.1423 77.6674 45.1265 76.5886 45.1213 75.8163C45.1186 75.4299 45.1186 75.1195 45.1193 74.9059C45.1194 74.8691 45.1195 74.8349 45.1197 74.8041C45.1198 74.7852 45.1199 74.7673 45.12 74.7509C45.089 74.7231 45.0531 74.6903 45.0127 74.6531C44.8607 74.513 44.6445 74.3084 44.3846 74.0472C43.8653 73.5247 43.17 72.7737 42.4652 71.8593C41.0646 70.0425 39.5868 67.5284 39.4424 64.8504C39.3107 62.4103 40.2259 59.1188 41.1472 56.4811C41.6111 55.153 42.0827 53.9739 42.4384 53.1271C42.6163 52.7034 42.7653 52.3622 42.87 52.1268C42.9223 52.0091 42.9637 51.9177 42.9919 51.8556C43.0061 51.8248 43.017 51.801 43.0245 51.7846L43.0329 51.7662L43.036 51.7597C43.036 51.7597 43.036 51.7597 43.3835 51.9226C43.605 51.6083 43.605 51.6083 43.605 51.6083L43.6068 51.6097L43.6113 51.6127L43.6281 51.6246C43.6429 51.6356 43.6645 51.651 43.6927 51.6713C43.7489 51.7126 43.8312 51.7727 43.9362 51.8511C44.1464 52.0076 44.4478 52.237 44.8149 52.5276C45.5488 53.1092 46.5471 53.9381 47.6044 54.9305C49.7054 56.9017 52.0918 59.5634 53.0502 62.2275C53.3724 63.123 53.6338 64.2976 53.813 65.2348C53.9031 65.7061 53.9739 66.1223 54.0219 66.4213L54.0278 66.4596C54.2031 66.4069 54.4283 66.3404 54.6946 66.2639C55.3758 66.0677 56.3292 65.806 57.4182 65.5417C59.5884 65.0163 62.3258 64.4749 64.5222 64.4446C66.6928 64.4148 69.413 64.8688 71.5722 65.3232C72.6558 65.5517 73.6053 65.7816 74.2839 65.9545C74.5864 66.0315 74.8354 66.097 75.0185 66.1467C75.0819 65.948 75.1675 65.6758 75.2645 65.3585C75.47 64.688 75.7244 63.8198 75.9249 63.0192C76.657 60.0958 79.1989 57.2315 81.4914 55.1306C82.6467 54.0717 83.757 53.1906 84.5783 52.5743C84.9891 52.2658 85.3282 52.0235 85.5649 51.8576C85.6832 51.7746 85.7762 51.7111 85.8401 51.6679C85.8718 51.646 85.8965 51.6296 85.9128 51.6187C85.9213 51.6127 85.9277 51.6088 85.9322 51.6058L85.9386 51.6013H85.9391C85.9391 51.6013 85.9391 51.6013 86.143 51.9117L85.9391 51.6013L86.3143 51.353L86.4994 51.7637L86.15 51.9226C86.4994 51.7637 86.4994 51.7637 86.4994 51.7637L86.5004 51.7657L86.5024 51.7707L86.5108 51.789C86.5183 51.8054 86.5286 51.8293 86.5425 51.8606C86.5702 51.9226 86.6103 52.0145 86.6613 52.1332C86.7628 52.3696 86.9078 52.7123 87.0801 53.138C87.4251 53.9883 87.881 55.1718 88.3261 56.5029C89.2097 59.1457 90.0735 62.4396 89.8854 64.8593C89.6715 67.6114 87.9959 70.127 86.4222 71.9264C85.6302 72.8323 84.852 73.5709 84.2719 74.0824C83.9813 74.3387 83.7402 74.5384 83.5704 74.6749C83.5333 74.7052 83.4996 74.7321 83.4694 74.7559L83.4714 74.7862C83.4739 74.8145 83.4759 74.8448 83.4784 74.8776C83.4942 75.0907 83.5155 75.3996 83.5392 75.7845C83.5873 76.5548 83.6447 77.6306 83.6828 78.8534C83.759 81.293 83.76 84.3396 83.4511 86.7117C82.8898 91.0242 82.4769 93.9009 80.1103 97.6463C78.7826 99.7477 77.504 101.479 75.9393 102.681C74.3597 103.894 72.5088 104.553 70.0698 104.553C68.7071 104.553 67.5487 103.601 66.772 102.746C66.3745 102.307 66.0562 101.871 65.8375 101.545C65.7276 101.382 65.6424 101.245 65.584 101.148C65.5548 101.1 65.5325 101.062 65.5172 101.035C65.5093 101.022 65.5033 101.011 65.4994 101.004L65.4944 100.995L65.4929 100.993L65.4924 100.992V100.991C65.4924 100.991 65.4919 100.991 65.8275 100.805L65.4924 100.991L65.4677 100.947L65.4553 100.898L65.8058 100.81C65.4553 100.898 65.4553 100.898 65.4553 100.898L65.4548 100.896L65.4543 100.893L65.4513 100.882C65.4489 100.872 65.4454 100.857 65.4409 100.838C65.432 100.8 65.4192 100.745 65.4033 100.674C65.3721 100.532 65.3286 100.328 65.2801 100.074C65.184 99.5684 65.0682 98.8641 64.9915 98.0734C64.839 96.5139 64.8271 94.5366 65.4781 93.0938C65.7998 92.3801 66.3448 91.8834 66.9512 91.5055C67.5467 91.135 68.2264 90.8643 68.8452 90.6179L68.861 90.612C69.6258 90.3075 70.2728 90.0458 70.7069 89.6847C70.9158 89.5109 71.0599 89.3256 71.1425 89.1155C71.2247 88.9069 71.2564 88.6472 71.1975 88.3065C71.0886 87.6757 70.8242 87.2212 70.4574 86.883C70.0847 86.5393 69.5862 86.2979 68.9872 86.133C67.7764 85.7998 66.2602 85.8033 64.791 85.8097C64.7034 85.8102 64.6158 85.8102 64.5286 85.8107C64.4232 85.8112 64.3173 85.8112 64.2113 85.8117C62.7609 85.8142 61.2719 85.8201 60.0854 86.1559C59.4988 86.3218 59.0117 86.5617 58.6478 86.9014C58.2894 87.2361 58.0315 87.6841 57.9256 88.3055C57.8687 88.6402 57.8994 88.8975 57.9791 89.1056C58.0593 89.3152 58.1998 89.5009 58.4018 89.6758C58.8216 90.0388 59.4473 90.3075 60.1868 90.6204L60.2022 90.6269C60.7967 90.8782 61.4501 91.1543 62.0229 91.5264C62.6055 91.9048 63.4406 93.0953 63.4406 93.0953C64.0846 94.5401 64.0727 96.5159 63.9222 98.0754C63.8455 98.8651 63.7312 99.5689 63.6361 100.074C63.5881 100.328 63.545 100.532 63.5138 100.673C63.4985 100.744 63.4856 100.8 63.4767 100.837C63.4723 100.856 63.4688 100.871 63.4663 100.881L63.4638 100.892L63.4629 100.895V100.896C63.4629 100.896 63.4624 100.897 63.0906 100.805ZM63.0906 100.805L63.4624 100.897L63.4505 100.946L63.4257 100.991L63.0906 100.805ZM53.3353 67.0039L53.3363 67.0114L53.3997 67.4619L53.8318 67.3248L53.8358 67.3233L53.8496 67.3188L53.8704 67.3124L53.9036 67.3019C53.9516 67.287 54.0229 67.2652 54.1155 67.2369C54.3001 67.1807 54.5694 67.1003 54.906 67.0034C55.5797 66.8097 56.5222 66.5505 57.5984 66.2897C59.7586 65.7662 62.4268 65.2432 64.5326 65.2144C66.6141 65.1856 69.2654 65.6242 71.4148 66.0766C72.4855 66.3021 73.4241 66.5291 74.0953 66.7005C74.4309 66.7859 74.6992 66.8569 74.8834 66.9071C74.9755 66.9319 75.0462 66.9513 75.0943 66.9647C75.118 66.9711 75.1363 66.9766 75.1482 66.9796L75.1651 66.9846H75.166L75.519 67.0849L75.6343 66.7352L75.6472 66.6965C75.6512 66.6841 75.6561 66.6682 75.6625 66.6498C75.6804 66.5947 75.7061 66.5142 75.7388 66.4129C75.8036 66.2098 75.8947 65.9222 75.9982 65.584C76.2046 64.9085 76.4635 64.0259 76.6684 63.2069C77.3406 60.5224 79.7256 57.7913 82.0087 55.6988C83.1408 54.6613 84.2308 53.7961 85.0377 53.1906C85.4297 52.8961 85.7549 52.6632 85.9846 52.5023C86.0826 52.7307 86.2148 53.0451 86.3697 53.4275C86.7103 54.2679 87.1603 55.4356 87.5989 56.7478C88.4825 59.3915 89.2953 62.5513 89.1206 64.7997C88.9265 67.2984 87.3865 69.6566 85.846 71.4193C85.0807 72.2939 84.3273 73.0086 83.7655 73.5043C83.4848 73.7521 83.2521 73.9448 83.0908 74.075C83.0101 74.14 82.9467 74.1892 82.9046 74.222C82.8833 74.2384 82.867 74.2508 82.8566 74.2587C82.8517 74.2627 82.8477 74.2657 82.8452 74.2677L82.8423 74.2697H82.8418L82.6715 74.3973L82.6888 74.6104V74.6114L82.6903 74.6307C82.6913 74.6446 82.6933 74.6655 82.6952 74.6928C82.6997 74.7475 82.7056 74.8289 82.7136 74.9337C82.7289 75.1443 82.7502 75.4502 82.774 75.8322C82.8215 76.5965 82.8784 77.6644 82.916 78.8777C82.9923 81.3099 82.9913 84.3048 82.6908 86.6118C82.1304 90.9135 81.7324 93.6426 79.4628 97.2345C78.1431 99.3225 76.9243 100.955 75.4729 102.07C74.0364 103.174 72.3524 103.784 70.0698 103.784C69.0516 103.784 68.0888 103.054 67.3393 102.228C66.974 101.825 66.678 101.42 66.4735 101.115C66.3716 100.964 66.2929 100.837 66.2399 100.75C66.2176 100.713 66.2003 100.683 66.1874 100.661V100.661C66.184 100.646 66.1795 100.628 66.1751 100.608C66.1686 100.58 66.1607 100.545 66.1518 100.507C66.1221 100.371 66.08 100.175 66.0335 99.9304C65.9404 99.4402 65.829 98.7603 65.7548 97.9984C65.6038 96.4543 65.6157 94.6553 66.177 93.4112C66.4156 92.8818 66.829 92.4874 67.3557 92.1596C67.8878 91.8278 68.5081 91.58 69.1437 91.3272L69.1818 91.3123C69.8986 91.0267 70.6584 90.7247 71.1965 90.2767C71.4792 90.0418 71.7153 89.7562 71.8564 89.3976C71.9974 89.038 72.0321 88.6323 71.9529 88.1748C71.8168 87.3846 71.4737 86.7747 70.9762 86.3163C70.4852 85.8634 69.8629 85.5763 69.1902 85.391C67.868 85.027 66.2513 85.0339 64.8207 85.0399H64.788H64.7875C64.7449 85.0404 64.7029 85.0404 64.6608 85.0409C64.6158 85.0409 64.5707 85.0409 64.5262 85.0414C64.4212 85.0414 64.3158 85.0419 64.2093 85.0419H64.1767C62.7649 85.0448 61.1754 85.0478 59.8775 85.4149C59.2171 85.6016 58.6067 85.8887 58.1251 86.3382C57.638 86.7931 57.3024 87.3966 57.1697 88.1758C57.0935 88.6258 57.1266 89.0256 57.2633 89.3817C57.3994 89.7369 57.6276 90.0219 57.9009 90.2584C58.4226 90.7098 59.1587 91.0207 59.8522 91.3138L59.8893 91.3297C60.4997 91.5879 61.0952 91.8407 61.6061 92.1725C62.1115 92.5008 62.509 92.8912 62.7401 93.4097C63.2965 94.6573 63.3079 96.4573 63.1589 98.0009C63.0852 98.7623 62.9748 99.4422 62.8822 99.9314C62.8362 100.176 62.7951 100.372 62.7654 100.507C62.7505 100.575 62.7179 100.675 62.6842 100.736C62.6179 100.855 62.55 100.958 62.5129 101.014C62.5005 101.033 62.4916 101.046 62.4877 101.053C62.3114 101.323 62.0555 101.687 61.7372 102.063C61.0883 102.831 59.9918 103.472 59.0706 103.676C56.5668 104.233 54.8204 103.065 53.3754 101.819C52.1403 100.754 51.3444 99.3275 50.4652 97.7506C50.2964 97.4481 50.1246 97.1397 49.9459 96.8273C48.3361 93.6148 47.6996 91.2269 46.9816 87.2207C46.9814 87.2193 46.9812 87.2183 46.981 87.2173L46.9829 87.2277C46.9825 87.2252 46.9821 87.2227 46.9816 87.2207C46.9449 87.0161 46.9075 86.807 46.869 86.5935C46.4561 84.3003 46.2686 81.3025 46.185 78.8653C46.1434 77.6495 46.1277 76.5782 46.1225 75.8108C46.1199 75.4274 46.1198 75.12 46.1205 74.9084C46.1208 74.8026 46.1213 74.7211 46.1217 74.666C46.1218 74.6476 46.122 74.6322 46.1221 74.6198L46.1222 74.6034L46.1224 74.5831C45.9494 74.4087 45.8228 74.3034 45.7034 74.2041C45.4761 74.0154 45.2749 73.8475 44.8287 73.2689C43.4587 71.4918 41.4999 67.6565 41.3681 65.2144C41.2455 62.9412 41.8866 60.5487 42.8079 57.911C43.2653 56.6012 43.7309 55.4376 44.0821 54.6007C44.1759 54.3777 44.2962 54.1472 44.3995 53.9495C44.4703 53.814 44.5331 53.6938 44.5739 53.6019C44.8334 53.807 45.0962 53.9833 45.3746 54.1701C45.8704 54.5028 46.4158 54.8689 47.0804 55.4922C49.1699 57.453 51.4364 60.0089 52.3289 62.4887C52.6294 63.3246 52.8819 64.4496 53.0596 65.3798C53.1482 65.8417 53.2175 66.2505 53.2645 66.544C53.2883 66.69 53.3061 66.8077 53.318 66.8882C53.3244 66.9284 53.3289 66.9597 53.3318 66.9806L53.3353 67.0039ZM55.852 72.6843C53.7883 73.0235 51.2607 75.5923 49.485 78.1516C48.0811 79.9416 47.3791 87.3742 53.0502 88.3065C58.3622 88.8016 61.3986 78.6979 62.1768 75.5923C62.9728 72.4166 57.3029 72.1434 55.852 72.6843ZM56.1604 80.992C57.7776 80.992 59.0889 79.6764 59.0889 78.0538C59.0889 76.4312 57.7776 75.116 56.1604 75.116C54.5432 75.116 53.2323 76.4312 53.2323 78.0538C53.2323 79.6764 54.5432 80.992 56.1604 80.992Z" fill="black"/>
<path fill-rule="evenodd" clip-rule="evenodd" d="M72.6292 80.6127C73.9232 80.6127 74.9721 79.5603 74.9721 78.262C74.9721 76.9637 73.9232 75.9118 72.6292 75.9118C71.3352 75.9118 70.2863 76.9637 70.2863 78.262C70.2863 79.5603 71.3352 80.6127 72.6292 80.6127ZM72.6292 81.2003C74.2464 81.2003 75.5572 79.8846 75.5572 78.262C75.5572 76.6394 74.2464 75.3242 72.6292 75.3242C71.012 75.3242 69.7012 76.6394 69.7012 78.262C69.7012 79.8846 71.012 81.2003 72.6292 81.2003Z" fill="black"/>
<path d="M94.9788 86.0383C94.9788 87.1156 93.4557 88.8216 91.5766 88.8216C89.697 88.8216 88.1738 87.1156 88.1738 86.0383C88.1738 84.9605 89.697 84.0874 91.5766 84.0874C93.4557 84.0874 94.9788 84.9605 94.9788 86.0383Z" fill="black"/>
<path d="M92.442 65.9366C92.4281 65.6168 92.6746 65.3396 92.9929 65.3178C93.3112 65.2959 93.581 65.5373 93.5949 65.8572L93.8107 70.795C93.8245 71.1149 93.5775 71.392 93.2592 71.4144C92.9409 71.4362 92.6717 71.1948 92.6578 70.875L92.442 65.9366Z" fill="black"/>
<path d="M90.7935 68.6947C90.7797 68.3748 91.0267 68.0977 91.345 68.0758C91.6633 68.054 91.9326 68.2954 91.9464 68.6152L92.04 70.7598C92.0543 71.0797 91.8073 71.3568 91.489 71.3787C91.1707 71.401 90.9014 71.1591 90.8876 70.8393L90.7935 68.6947Z" fill="black"/>
<path fill-rule="evenodd" clip-rule="evenodd" d="M109.814 55.916C109.814 58.9586 109.74 62.6637 109.596 65.7848C109.509 67.6935 109.433 69.4417 109.265 70.9104C109.095 72.3949 108.885 73.5288 108.645 74.2167C108.373 74.9945 108.387 75.8438 108.686 76.6116C109.308 78.2074 109.606 79.9964 109.562 81.9354C109.486 85.2402 108.531 89.1192 104.801 90.5521L105.344 91.974C110.01 90.1815 111.001 85.3803 111.079 81.9707C111.127 79.8529 110.802 77.8607 110.1 76.0573C109.933 75.6292 110.077 74.7208 110.077 74.7208M109.814 55.916L103.873 63.4663C103.152 64.3827 102.128 64.8396 100.967 64.7929C100.967 64.7929 100.836 64.7691 100.75 64.7512C100.643 64.7294 100.487 64.6544 100.487 64.6544C95.0197 62.5112 92.1377 63.2523 92.1377 63.2523C92.1377 63.2523 95.2405 60.9949 101.095 63.2523" fill="black"/>
<path fill-rule="evenodd" clip-rule="evenodd" d="M16.4092 79.7029H18.2272C18.2272 94.9585 24.2674 109.589 35.0189 120.376C45.7704 131.164 60.3526 137.224 75.5576 137.224C90.7625 137.224 105.345 131.164 116.096 120.376C126.843 109.594 132.882 94.9714 132.888 79.7232C132.888 79.7163 132.888 79.7093 132.888 79.7029H134.706C134.706 80.803 134.675 81.9001 134.615 82.9928C133.811 97.5332 127.699 111.315 117.382 121.666C106.289 132.796 91.2447 139.048 75.5576 139.048C59.8705 139.048 44.8258 132.796 33.7333 121.666C23.4163 111.315 17.3042 97.5332 16.5001 82.9928C16.4396 81.9001 16.4092 80.803 16.4092 79.7029Z" fill="black"/>
<path d="M24.5227 75.4636L9.28516 73.1119L10.164 67.3789C10.344 66.2042 10.7133 65.2526 11.2719 64.524C11.8312 63.79 12.524 63.2779 13.3505 62.9878C14.1727 62.6918 15.0674 62.6183 16.0347 62.7678C17.0118 62.9183 17.8482 63.259 18.5437 63.789C19.2393 64.3194 19.7436 65.0212 20.0565 65.8948C20.3644 66.7675 20.428 67.7936 20.2472 68.9732L19.6647 72.7727L17.3955 72.4225L17.9207 68.996C18.026 68.3096 17.9931 67.7285 17.8222 67.2542C17.6512 66.7794 17.3734 66.4054 16.9889 66.1322C16.605 65.8536 16.1428 65.6728 15.6021 65.5894C15.0615 65.5059 14.5689 65.5397 14.1244 65.6902C13.6807 65.8352 13.3107 66.1119 13.0147 66.5196C12.7144 66.9219 12.5113 67.4688 12.4052 68.1601L12.0162 70.6986L24.9472 72.6937L24.5227 75.4636Z" fill="black"/>
<path d="M30.7018 54.3519C30.1802 55.3909 29.5145 56.1791 28.7049 56.717C27.893 57.2479 26.9888 57.5156 25.9924 57.5191C24.9914 57.5206 23.9509 57.2479 22.8708 56.7021C21.8087 56.1652 20.9781 55.4912 20.3792 54.6812C19.778 53.8642 19.4374 52.9761 19.3573 52.0166C19.2728 51.0545 19.4789 50.0791 19.9757 49.0898C20.2964 48.4513 20.7021 47.9009 21.1928 47.4385C21.6813 46.9694 22.2479 46.6244 22.8927 46.4035C23.5398 46.1781 24.2559 46.1061 25.0412 46.1873C25.822 46.2663 26.665 46.5347 27.5703 46.9924L28.3165 47.3696L24.0517 55.8612L22.4114 55.0323L25.5008 48.8808C25.0324 48.6496 24.5671 48.5412 24.1047 48.5555C23.6378 48.5676 23.2099 48.698 22.8208 48.9467C22.4341 49.191 22.1233 49.5469 21.8884 50.0145C21.6377 50.5136 21.5385 51.0133 21.5908 51.5134C21.6386 52.0111 21.8045 52.4641 22.0882 52.8728C22.3697 53.2746 22.7402 53.594 23.1995 53.8319L24.6314 54.556C25.232 54.8595 25.8027 55.01 26.3436 55.007C26.88 55.002 27.3618 54.8595 27.7891 54.5794C28.2119 54.2967 28.5566 53.8905 28.8231 53.36C29.0015 53.0044 29.1136 52.6582 29.1596 52.3205C29.201 51.9808 29.1762 51.6555 29.0852 51.3441C28.9941 51.0332 28.83 50.7501 28.5929 50.4948L29.9933 48.3443C30.5216 48.7918 30.9082 49.3312 31.1531 49.9623C31.3958 50.5871 31.4834 51.274 31.416 52.0235C31.3441 52.771 31.1061 53.5473 30.7018 54.3519Z" fill="black"/>
<path d="M33.758 31.0857L35.255 32.5744L30.576 37.3112L29.079 35.8225L33.758 31.0857ZM28.2666 32.6966L30.1848 30.7546L37.8947 38.4212C38.1549 38.68 38.3933 38.8391 38.6101 38.8987C38.8267 38.9511 39.0254 38.936 39.206 38.8533C39.3866 38.7706 39.5564 38.6488 39.7154 38.4878C39.8355 38.3663 39.9361 38.2465 40.0172 38.1286C40.1018 38.0072 40.1635 37.9126 40.2022 37.8448L42.0386 39.0222C41.9717 39.1613 41.8644 39.3487 41.7164 39.5844C41.5719 39.8165 41.3672 40.0737 41.1023 40.3562C40.6362 40.8567 40.1303 41.2222 39.5849 41.4525C39.0358 41.6793 38.4772 41.737 37.9089 41.6256C37.3442 41.5106 36.807 41.1962 36.2972 40.6822L28.2666 32.6966Z" fill="black"/>
<path d="M89.1395 16.071C89.1697 15.4083 88.9548 14.8555 88.4949 14.4126C88.0395 13.9705 87.4029 13.6863 86.5842 13.56C86.009 13.4712 85.5021 13.4821 85.0635 13.5928C84.6254 13.7035 84.2739 13.8912 84.0101 14.1562C83.7463 14.421 83.5824 14.7447 83.5185 15.1272C83.4695 15.4457 83.4992 15.733 83.6072 15.9891C83.72 16.2459 83.8903 16.476 84.1185 16.6793C84.3467 16.8776 84.6066 17.0552 84.8972 17.2121C85.1882 17.3691 85.4838 17.509 85.7847 17.6318L87.1584 18.2106C87.7133 18.4338 88.2385 18.7008 88.734 19.0116C89.235 19.3232 89.6691 19.6857 90.0374 20.0991C90.4107 20.5133 90.6834 20.9859 90.8557 21.5169C91.0284 22.0478 91.0636 22.6443 90.9626 23.3061C90.825 24.2019 90.476 24.9555 89.9151 25.5669C89.3553 26.1733 88.6142 26.6015 87.6925 26.8515C86.7762 27.0974 85.708 27.1261 84.4878 26.9378C83.3022 26.7549 82.3013 26.4119 81.485 25.9089C80.6732 25.4067 80.0762 24.7644 79.6936 23.9819C79.3159 23.2002 79.1847 22.2987 79.3005 21.2773L82.0162 21.6964C81.9746 22.235 82.0701 22.7032 82.3038 23.1009C82.5374 23.4987 82.8716 23.8202 83.3062 24.0656C83.7453 24.3117 84.2531 24.4792 84.8284 24.5679C85.4283 24.6606 85.9679 24.6521 86.4471 24.5426C86.9312 24.4289 87.3272 24.2302 87.6351 23.9465C87.943 23.6579 88.1336 23.2949 88.2054 22.8578C88.2618 22.4589 88.1955 22.1124 88.0069 21.8184C87.8193 21.5195 87.5326 21.2511 87.148 21.0134C86.7683 20.7715 86.3169 20.5387 85.7926 20.3152L84.1274 19.5998C82.922 19.0827 82.0053 18.4394 81.3771 17.6699C80.7544 16.8963 80.5267 15.9621 80.6945 14.8672C80.8326 13.9664 81.1969 13.2151 81.7865 12.6133C82.3815 12.0123 83.129 11.5901 84.0294 11.347C84.9308 11.0989 85.9144 11.0572 86.9807 11.2217C88.0623 11.3886 88.9806 11.7239 89.736 12.2277C90.4973 12.7272 91.0596 13.3464 91.424 14.0852C91.7888 14.8191 91.9125 15.6176 91.7952 16.4809L89.1395 16.071Z" fill="black"/>
<path d="M107.917 22.7171L106.969 24.6057L101.033 21.6045L101.982 19.716L107.917 22.7171ZM104.694 17.9749L107.127 19.2052L102.243 28.9312C102.078 29.2595 102.001 29.5362 102.011 29.7614C102.028 29.9844 102.104 30.1693 102.238 30.3161C102.372 30.4628 102.541 30.5873 102.742 30.6892C102.895 30.7663 103.039 30.8253 103.176 30.8662C103.317 30.9094 103.426 30.939 103.502 30.955L102.953 33.0711C102.801 33.0504 102.59 33.0058 102.321 32.9374C102.056 32.8713 101.749 32.7555 101.4 32.59C100.781 32.2999 100.278 31.9301 99.8917 31.4808C99.5071 31.027 99.2794 30.5117 99.2096 29.935C99.1443 29.3606 99.2759 28.7508 99.6056 28.1056L104.694 17.9749Z" fill="black"/>
<path d="M107.888 42.1277C107.624 41.8654 107.401 41.6011 107.219 41.3349C107.037 41.0758 106.906 40.8539 106.827 40.6691L108.771 39.603C108.971 39.9652 109.183 40.2544 109.408 40.4706C109.632 40.6868 109.896 40.8102 110.198 40.8409C110.499 40.8787 110.863 40.8005 111.288 40.6064L111.893 40.3259L117.224 28.9531L119.277 30.9947L115.023 39.0996L115.109 39.1846L123.153 34.8493L125.212 36.8962L112.799 42.864C112.214 43.1479 111.642 43.3196 111.082 43.3791C110.518 43.4421 109.971 43.3734 109.441 43.1728C108.912 42.9794 108.394 42.631 107.888 42.1277Z" fill="black"/>
<path d="M137.118 48.6624L123.413 55.7465L122.165 53.3158L135.87 46.2319L137.118 48.6624Z" fill="black"/>
<path d="M127.615 70.2879C127.428 69.1396 127.505 68.1095 127.845 67.1967C128.191 66.2883 128.765 65.5388 129.57 64.9482C130.378 64.3567 131.38 63.9634 132.573 63.7682C133.748 63.5765 134.814 63.6316 135.773 63.9336C136.738 64.24 137.534 64.758 138.161 65.4871C138.793 66.2152 139.198 67.1261 139.375 68.2193C139.49 68.9251 139.484 69.6095 139.358 70.273C139.238 70.9405 138.981 71.5539 138.589 72.1127C138.198 72.6769 137.661 73.1576 136.978 73.555C136.299 73.9513 135.46 74.2314 134.46 74.3948L133.635 74.5299L132.111 65.1449L133.924 64.8484L135.028 71.6468C135.542 71.5574 135.982 71.3711 136.348 71.0865C136.719 70.8015 136.988 70.4439 137.157 70.0133C137.327 69.5871 137.37 69.1163 137.286 68.5992C137.196 68.0474 136.984 67.5851 136.649 67.2111C136.319 66.8366 135.919 66.5679 135.45 66.405C134.987 66.246 134.5 66.2058 133.989 66.2838L132.407 66.5425C131.743 66.6513 131.193 66.8664 130.757 67.1872C130.326 67.5081 130.02 67.9074 129.838 68.3862C129.662 68.864 129.621 69.3959 129.716 69.9825C129.78 70.3748 129.892 70.7215 130.053 71.0215C130.218 71.321 130.429 71.5698 130.685 71.768C130.941 71.9656 131.239 72.0978 131.581 72.1648L131.708 74.7301C131.018 74.6799 130.389 74.4713 129.821 74.1053C129.259 73.7432 128.786 73.2391 128.401 72.5924C128.021 71.9458 127.759 71.1774 127.615 70.2879Z" fill="black"/>
</svg>
