<svg width="68" height="78" viewBox="0 0 68 78" fill="none" xmlns="http://www.w3.org/2000/svg">
<path d="M65.3803 40.554L39.1219 15.0994C36.923 12.9653 33.3662 11.7568 30.2762 12.0885L20.4306 13.1504L21.8841 3.48793C22.0937 2.08407 21.0911 0.777915 19.6402 0.572221C18.192 0.37167 16.8446 1.33843 16.6324 2.74486L14.98 13.7366L10.2217 14.2483C6.54547 14.6468 3.02312 18.0562 2.60935 21.6327L0.384017 41.0656C0.0392087 44.0636 1.28582 47.5116 3.48729 49.6456L29.7431 75.0977C32.8464 78.1034 37.8912 78.1034 40.9944 75.0977L65.375 51.466C68.4809 48.4552 68.4809 43.5597 65.3803 40.554ZM15.2956 29.4594C16.155 29.5802 16.9825 29.2897 17.5554 28.7317C17.9453 28.3563 18.2185 27.8575 18.3034 27.2867L18.9612 22.908C19.1203 23.0289 19.2848 23.1368 19.4307 23.2808C21.5022 25.2889 21.4995 28.544 19.4307 30.5521C17.3592 32.5602 14.0013 32.5628 11.9271 30.5521C9.85828 28.5466 9.85828 25.2889 11.9271 23.2808C12.4549 22.7692 13.0676 22.3886 13.7175 22.1418L13.0544 26.5462C12.8448 27.9501 13.8474 29.2537 15.2956 29.4594ZM37.6737 55.5876L34.9895 58.1871L29.4752 32.9819L32.178 30.3593L37.6737 55.5876ZM36.7692 43.2177C36.7268 41.765 37.3156 40.4486 38.533 39.271C39.7027 38.1345 40.9599 37.5843 42.302 37.6177C43.6415 37.6563 44.9412 38.2836 46.2063 39.5024C47.5007 40.7597 48.1691 42.1121 48.2168 43.5597C48.2619 45.0047 47.6784 46.3185 46.4716 47.491C45.3496 48.576 44.0924 49.1083 42.6946 49.08C41.3021 49.0543 39.9971 48.4629 38.7956 47.2982C37.4853 46.028 36.8063 44.6679 36.7692 43.2177ZM30.4221 45.3415C30.4619 46.7865 29.873 48.0901 28.6662 49.26C27.5443 50.3476 26.287 50.8772 24.8892 50.8541C23.4941 50.8284 22.1944 50.2344 20.9929 49.0697C19.6826 47.7995 19.0063 46.4394 18.9639 44.9841C18.9241 43.534 19.5129 42.2175 20.7277 41.0374C21.8921 39.9112 23.1519 39.3661 24.5047 39.4021C25.8574 39.4407 27.1623 40.0706 28.4222 41.2919C29.7192 42.5492 30.385 43.8991 30.4221 45.3415ZM63.5051 49.6431L39.1245 73.2747C37.0583 75.2803 33.6925 75.2803 31.6236 73.2747L5.36782 47.8253C3.76048 46.2646 2.77115 43.5417 3.02578 41.3459L5.24846 21.9181C5.39169 20.7071 6.02295 19.5038 7.03085 18.5267C8.03875 17.5497 9.28271 16.9377 10.5214 16.804L14.5875 16.3669L14.1922 18.9973L10.8158 19.3572C9.36494 19.5141 8.04671 20.7919 7.88757 22.1984L5.66223 41.6339C5.49778 43.0403 6.21127 45.0073 7.24304 46.0074L33.4988 71.4569C34.5306 72.4597 36.2149 72.4597 37.2466 71.4569L61.6272 47.8253C62.6616 46.8225 62.6616 45.1898 61.6272 44.1896L35.3741 18.7376C34.3423 17.7374 32.3132 17.0457 30.8624 17.2051L19.6455 18.4085L20.0381 15.7833L30.5733 14.6494C32.8331 14.4051 35.642 15.359 37.2519 16.9197L63.5077 42.3718C65.5713 44.3747 65.5713 47.6376 63.5051 49.6431Z" fill="#FCD039"/>
<path d="M44.6652 45.4881C45.7076 44.4776 45.4927 43.2666 44.0286 41.8447C43.347 41.184 42.6786 40.8086 42.0287 40.716C41.3763 40.6234 40.8219 40.7983 40.3684 41.2379C39.3074 42.2664 39.5196 43.5032 41.0023 44.9456C42.4107 46.3134 43.6308 46.4909 44.6652 45.4881Z" fill="#FCD039"/>
<path d="M22.5971 42.976C21.5282 44.0122 21.735 45.2541 23.223 46.6939C24.6288 48.0566 25.8409 48.2469 26.8594 47.2596C27.8992 46.2517 27.687 45.0381 26.2229 43.6162C24.7932 42.2304 23.5864 42.017 22.5971 42.976Z" fill="#FCD039"/>
</svg>
