<svg width="93" height="93" viewBox="0 0 93 93" fill="none" xmlns="http://www.w3.org/2000/svg">
<path d="M89.8067 57.9484V19.3677C89.8067 8.73133 81.1527 0.0773926 70.5163 0.0773926H58.6454V1.56126C58.6454 8.10662 53.3198 13.4322 46.7744 13.4322C40.2291 13.4322 34.9034 8.10662 34.9034 1.56126V0.0773926H23.0325C12.3961 0.0773926 3.74216 8.73133 3.74216 19.3677V57.9484C2.10545 57.9484 0.774414 59.2794 0.774414 60.9161V66.8516C0.774414 68.4883 2.10545 69.8193 3.74216 69.8193H18.5809V78.1082C18.5809 79.1989 18.8732 80.2346 19.3733 81.1709C18.8865 81.7007 18.5809 82.3996 18.5809 83.1742V89.1096C18.5809 90.7464 19.9119 92.0774 21.5486 92.0774H72.0002C73.6354 92.0774 74.968 90.7464 74.968 89.1096V83.1742C74.968 82.3996 74.6623 81.7007 74.1756 81.1709C74.6742 80.2346 74.968 79.1989 74.968 78.1082V69.8193H89.8067C91.4419 69.8193 92.7744 68.4883 92.7744 66.8516V60.9161C92.7744 59.2794 91.4419 57.9484 89.8067 57.9484ZM32.0099 3.04513C32.1049 4.00668 32.2963 4.94004 32.5678 5.83926L29.7544 7.0041L30.8911 9.7463L33.7149 8.57701C34.1674 9.41688 34.7002 10.2048 35.2996 10.9378L33.1347 13.1028L35.2329 15.201L37.3993 13.0346C38.1323 13.634 38.9203 14.1667 39.7602 14.6193L38.5909 17.4446L41.3331 18.5813L42.4979 15.7664C43.3971 16.0379 44.3305 16.2278 45.292 16.3243V19.3677H48.2598V16.3228C49.2213 16.2264 50.1547 16.0364 51.0539 15.7649L52.2187 18.5798L54.9609 17.4431L53.7902 14.6193C54.63 14.1667 55.418 13.6355 56.151 13.0346L58.3174 15.201L60.4156 13.1028L58.2507 10.9378C58.8502 10.2048 59.3829 9.41688 59.8354 8.57701L62.6593 9.7463L63.7959 7.0041L60.9825 5.83926C61.2525 4.94004 61.444 4.00668 61.5389 3.04513H67.4729C66.7073 13.8077 57.7284 22.3355 46.7744 22.3355C35.8205 22.3355 26.8416 13.8077 26.0759 3.04513H32.0099ZM18.5809 66.8516H3.74216V60.9161H6.7099V65.3677H9.67764V60.9161H12.6454V65.3677H15.6131V60.9161H18.5809V66.8516ZM72.0002 89.1096H21.5486V83.1742H24.5163V87.6258H27.4841V83.1742H30.4518V87.6258H33.4196V83.1742H36.3873V87.6258H39.3551V83.1742H42.3228V87.6258H45.2905V83.1742H48.2583V87.6258H51.226V83.1742H54.1938V87.6258H57.1615V83.1742H60.1293V87.6258H63.097V83.1742H66.0647V87.6258H69.0325V83.1742H72.0002V89.1096ZM72.0002 78.1082C72.0002 78.8739 71.7509 79.598 71.3087 80.2064H22.2401C21.7979 79.598 21.5486 78.8739 21.5486 78.1082V57.9484H72.0002V78.1082ZM72.0002 54.9806H21.5486V49.0451L23.0325 47.9322L28.968 52.3838L34.9034 47.9322L40.8389 52.3838L46.7744 47.9322L52.7099 52.3838L58.6454 47.9322L64.5809 52.3838L70.5163 47.9322L72.0002 49.0451V54.9806ZM72.0002 45.3355L70.5163 44.2226L64.5809 48.6742L58.6454 44.2226L52.7099 48.6742L46.7744 44.2226L40.8389 48.6742L34.9034 44.2226L28.968 48.6742L23.0325 44.2226L21.5486 45.3355V40.1419L23.0325 39.029L28.968 43.4806L34.9034 39.029L40.8389 43.4806L46.7744 39.029L52.7099 43.4806L58.6454 39.029L64.5809 43.4806L70.5163 39.029L72.0002 40.1419V45.3355ZM72.0002 36.4322L70.5163 35.3193L64.5809 39.7709L58.6454 35.3193L52.7099 39.7709L46.7744 35.3193L40.8389 39.7709L34.9034 35.3193L28.968 39.7709L23.0325 35.3193L21.5486 36.4322V32.7226H72.0002V36.4322ZM72.0002 23.8193V29.7548H21.5486V23.8193H18.5809V57.9484H6.7099V19.3677C6.7099 10.368 14.0328 3.04513 23.0325 3.04513H23.1082C23.8798 15.4444 34.1853 25.3032 46.7744 25.3032C59.3651 25.3032 69.6691 15.4444 70.4407 3.04513H70.5163C79.516 3.04513 86.8389 10.368 86.8389 19.3677V57.9484H74.968V23.8193H72.0002ZM89.8067 66.8516H74.968V60.9161H77.9357V65.3677H80.9035V60.9161H83.8712V65.3677H86.8389V60.9161H89.8067V66.8516Z" fill="#032640"/>
</svg>
