<svg width="75" height="75" viewBox="0 0 75 75" fill="none" xmlns="http://www.w3.org/2000/svg">
<path d="M32.5835 17.0418C32.7596 15.6284 31.7566 14.34 30.343 14.164C28.9296 13.988 27.6413 14.9912 27.4653 16.4045L32.5835 17.0418ZM20.8301 69.7015C20.6542 71.1151 21.6573 72.4035 23.0707 72.5796C24.484 72.7553 25.7725 71.7523 25.9484 70.339L20.8301 69.7015ZM47.5662 16.4045C47.3901 14.9912 46.1017 13.988 44.6885 14.164C43.2749 14.34 42.2719 15.6284 42.448 17.0418L47.5662 16.4045ZM49.0829 70.339C49.259 71.7523 50.5474 72.7553 51.9606 72.5796C53.3742 72.4035 54.3772 71.1151 54.2012 69.7015L49.0829 70.339ZM64.8052 26.2939C64.3936 24.9303 62.955 24.1584 61.5912 24.5697C60.2279 24.9811 59.4559 26.42 59.8672 27.7836L64.8052 26.2939ZM6.86532 55.2917C7.2767 53.9283 6.50479 52.4893 5.14121 52.078C3.77763 51.6665 2.33874 52.4384 1.92736 53.8021L6.86532 55.2917ZM6.0768 40.048C5.66545 41.4114 6.43736 42.8504 7.80094 43.2617C9.16452 43.6733 10.6034 42.9013 11.0148 41.5376L6.0768 40.048ZM23.3892 5.54794H51.6422V0.390158H23.3892V5.54794ZM56.1264 9.8461V13.2846H61.2842V9.8461H56.1264ZM56.986 12.425H16.326V17.5828H56.986V12.425ZM18.9049 15.0039V9.8461H13.7471V15.0039H18.9049ZM51.6422 5.54794C53.378 5.54794 54.4274 5.55314 55.1825 5.65203C55.5312 5.69762 55.7131 5.75233 55.8018 5.78792C55.8424 5.80411 55.8603 5.81508 55.864 5.81763C55.8675 5.81962 55.8685 5.82052 55.872 5.82392L59.47 2.12843C58.3914 1.07821 57.0875 0.699556 55.852 0.537877C54.6839 0.384966 53.236 0.390158 51.6422 0.390158V5.54794ZM61.2842 9.8461C61.2842 8.3 61.29 6.87404 61.1308 5.72035C60.9603 4.48523 60.5583 3.18802 59.47 2.12843L55.872 5.82392C55.8726 5.82471 55.8744 5.82633 55.872 5.82392C55.8713 5.82309 55.872 5.82385 55.872 5.82392C55.872 5.82406 55.875 5.82743 55.8781 5.83331C55.8812 5.83929 55.8867 5.84981 55.8936 5.86611C55.9232 5.93643 55.9761 6.09776 56.0215 6.42587C56.1209 7.14486 56.1264 8.15032 56.1264 9.8461H61.2842ZM23.3892 0.390158C21.7955 0.390158 20.3475 0.384966 19.1794 0.537877C17.944 0.699556 16.64 1.07821 15.5614 2.12843L19.1595 5.82392C19.1629 5.82052 19.1641 5.81966 19.1673 5.81763C19.1713 5.81508 19.189 5.80411 19.2295 5.78792C19.3184 5.75233 19.5003 5.69762 19.8488 5.65203C20.6042 5.55314 21.6534 5.54794 23.3892 5.54794V0.390158ZM18.9049 9.8461C18.9049 8.15036 18.9107 7.14486 19.01 6.42587C19.0553 6.09776 19.1082 5.93643 19.1379 5.86611C19.1448 5.84981 19.1501 5.83929 19.1533 5.83331C19.1565 5.82743 19.1593 5.82406 19.1595 5.82392C19.1595 5.82385 19.1601 5.82309 19.1595 5.82392C19.157 5.82633 19.1588 5.82471 19.1595 5.82392L15.5614 2.12843C14.4731 3.18802 14.0712 4.48523 13.9007 5.72035C13.7414 6.87404 13.7471 8.3 13.7471 9.8461H18.9049ZM4.32931 66.4868C9.59929 69.6489 20.3111 74.3184 37.5157 74.3184V69.1606C21.2967 69.1606 11.4961 64.7717 6.98292 62.0642L4.32931 66.4868ZM37.5157 74.3184C54.7204 74.3184 65.4321 69.6489 70.7023 66.4868L68.0485 62.0642C63.5354 64.7717 53.7346 69.1606 37.5157 69.1606V74.3184ZM69.1546 58.5683C69.6216 60.1163 69.0962 61.4356 68.0485 62.0642L70.7023 66.4868C74.1405 64.4241 75.1105 60.4526 74.0927 57.0784L69.1546 58.5683ZM0.938886 57.0784C-0.0790545 60.4526 0.890953 64.4241 4.32931 66.4868L6.98292 62.0642C5.93547 61.4356 5.40979 60.1163 5.87685 58.5683L0.938886 57.0784ZM27.4653 16.4045L20.8301 69.7015L25.9484 70.339L32.5835 17.0418L27.4653 16.4045ZM42.448 17.0418L49.0829 70.339L54.2012 69.7015L47.5662 16.4045L42.448 17.0418ZM74.0927 57.0784L64.8052 26.2939L59.8672 27.7836L69.1546 58.5683L74.0927 57.0784ZM1.92736 53.8021L0.938886 57.0784L5.87685 58.5683L6.86532 55.2917L1.92736 53.8021ZM13.857 14.259L6.0768 40.048L11.0148 41.5376L18.795 15.7487L13.857 14.259ZM56.1264 13.2846C56.1264 12.8099 56.5115 12.425 56.986 12.425V17.5828C59.36 17.5828 61.2842 15.6584 61.2842 13.2846H56.1264Z" fill="#032640"/>
</svg>
