<svg width="94" height="101" viewBox="0 0 94 101" fill="none" xmlns="http://www.w3.org/2000/svg">
<path d="M92.8377 20.1067L78.8721 3.34834C77.301 1.46279 74.992 0.381348 72.5373 0.381348H22.0104C19.5557 0.381348 17.2467 1.46279 15.6754 3.34834L1.70978 20.1067C0.860757 21.1257 0.722671 22.5897 1.36681 23.7499L8.44748 36.4946C9.23673 37.9151 10.9692 38.531 12.4777 37.9274L17.3154 35.9925V79.5505C17.3154 81.5909 18.0674 83.5503 19.4326 85.0671L30.7588 97.6517C32.3201 99.3866 34.5541 100.381 36.8881 100.381H57.6598C59.9938 100.381 62.2277 99.3864 63.7893 97.6517L75.1152 85.0671C76.4805 83.5503 77.2324 81.5911 77.2324 79.5505V35.9927L82.0699 37.9276C83.5787 38.5319 85.3113 37.9153 86.1006 36.495L93.1811 23.7499C93.8248 22.5899 93.6867 21.1259 92.8377 20.1067ZM58.9621 3.51279C58.1934 9.27881 53.2467 13.7425 47.2738 13.7425C41.301 13.7425 36.3543 9.27881 35.5856 3.51279H58.9621ZM32.4291 3.51279C33.2147 11.0103 39.5719 16.8739 47.2738 16.8739C54.9758 16.8739 61.333 11.0103 62.1182 3.51279H65.6826C64.8852 12.9704 56.934 20.4229 47.2736 20.4229C37.6133 20.4229 29.6621 12.9704 28.8647 3.51279H32.4291ZM11.3149 35.0202C11.2658 35.0392 11.2106 35.0196 11.1852 34.9739L4.1047 22.2296C4.08341 22.1911 4.08771 22.1452 4.11583 22.1118L6.59709 19.1345L14.6756 33.6759L11.3149 35.0202ZM17.6992 32.4663L17.6065 32.5034L8.7465 16.555L17.9371 5.52588C19.2697 9.30654 22.5588 20.9108 17.6992 32.4663ZM31.6277 93.9358L21.7602 82.972C21.1606 82.306 20.7565 81.5011 20.569 80.6394C21.6606 80.4415 22.7731 80.3395 23.892 80.3395C30.1338 80.3395 35.9758 83.5315 39.3725 88.7302C36.4686 89.872 33.8174 91.6382 31.6277 93.9358ZM57.6596 97.2499H36.8881C35.7627 97.2499 34.6758 96.8755 33.7922 96.204C37.2797 92.4853 42.168 90.3606 47.2738 90.3606C52.3861 90.3606 57.267 92.4841 60.7555 96.204C59.8719 96.8755 58.7852 97.2499 57.6596 97.2499ZM72.7877 82.972L62.9199 93.9364C60.7291 91.6372 58.0801 89.8698 55.177 88.7282C58.5736 83.531 64.4147 80.3395 70.6559 80.3395C71.7746 80.3395 72.8873 80.4415 73.9791 80.6394C73.7914 81.5013 73.3871 82.306 72.7877 82.972ZM74.1006 77.4821C72.9652 77.3003 71.8129 77.2081 70.6557 77.2081C63.0594 77.2081 55.9686 81.2509 52.0826 87.7735C50.5182 87.4159 48.9063 87.229 47.2738 87.229C45.6428 87.229 44.0309 87.4161 42.4656 87.7743C38.5795 81.2509 31.4889 77.2081 23.8918 77.2081C22.7346 77.2081 21.5822 77.3003 20.4471 77.4821V34.0021C23.9082 25.9997 23.7174 18.0616 22.9354 12.7827C22.2834 8.38213 21.1465 5.09814 20.6084 3.70811C21.0592 3.58018 21.5301 3.51318 22.0104 3.51318H25.7235C26.5285 14.6993 35.886 23.5546 47.2738 23.5546C58.6617 23.5546 68.0194 14.6991 68.8242 3.51279H72.5371C73.0172 3.51279 73.4883 3.57979 73.9391 3.70771C73.401 5.09775 72.2641 8.38154 71.6121 12.7823C70.2092 22.2526 72.1547 29.5044 74.1006 34.0062V77.4821ZM76.9412 32.5034L76.8483 32.4663C71.9887 20.9108 75.2779 9.30635 76.6106 5.52607L85.8014 16.5552L76.9412 32.5034ZM90.4432 22.2292L83.3627 34.9739C83.3371 35.0196 83.2809 35.0394 83.2326 35.02L79.8723 33.6759L87.9508 19.1345L90.432 22.1118C90.4598 22.1452 90.4643 22.1913 90.4432 22.2292Z" fill="#032640"/>
</svg>
