<svg width="101" height="101" viewBox="0 0 101 101" fill="none" xmlns="http://www.w3.org/2000/svg">
<path d="M86.3073 66.2391H14.724C12.6133 66.2391 10.589 65.4006 9.09657 63.9082C7.60409 62.4157 6.76563 60.3914 6.76563 58.2808V27.4058C6.7656 26.7566 6.89414 26.1138 7.14383 25.5146C7.39352 24.9153 7.75941 24.3714 8.22038 23.9143C8.68136 23.4572 9.2283 23.096 9.82963 22.8513C10.431 22.6067 11.0748 22.4836 11.724 22.4891C12.5527 22.5025 13.3656 22.7182 14.0918 23.1177C14.818 23.5171 15.4356 24.088 15.8906 24.7808C22.0156 33.7391 42.5573 29.8641 42.5573 22.4891L83.4323 41.3224C86.6662 42.8231 89.4039 45.2166 91.3232 48.221C93.2425 51.2254 94.2634 54.7156 94.2656 58.2808C94.2656 60.3914 93.4272 62.4157 91.9347 63.9082C90.4422 65.4006 88.418 66.2391 86.3073 66.2391Z" stroke="#032640" stroke-width="5" stroke-miterlimit="10"/>
<path d="M94.2657 58.2808V66.2391C94.2547 70.4532 92.5729 74.491 89.5891 77.467C86.6054 80.4429 82.5632 82.1141 78.3491 82.1141H14.7241C13.6774 82.1196 12.6401 81.9175 11.672 81.5196C10.704 81.1216 9.82446 80.5356 9.08436 79.7955C8.34426 79.0554 7.75826 78.1759 7.36028 77.2078C6.96229 76.2398 6.76021 75.2024 6.76574 74.1558V58.2808" stroke="#032640" stroke-width="5" stroke-miterlimit="10"/>
<path d="M38.5986 14.5308L42.557 22.4891" stroke="#032640" stroke-width="5" stroke-miterlimit="10"/>
<path d="M50.5156 42.3641L58.474 30.4058" stroke="#032640" stroke-width="5" stroke-miterlimit="10"/>
<path d="M62.4326 50.3224L70.391 38.3641" stroke="#032640" stroke-width="5" stroke-miterlimit="10"/>
</svg>
