<svg width="55" height="103" viewBox="0 0 55 103" fill="none" xmlns="http://www.w3.org/2000/svg">
<path d="M12.1429 59.9149C11.0753 59.7265 10.6671 59.0357 10.6671 57.9995C10.6671 56.2725 10.6671 54.5455 10.6671 52.8185C10.6671 51.8451 11.0439 51.1543 12.0801 50.9659C13.3989 51.1857 13.6501 51.5625 13.7129 53.0069C13.7129 53.3523 13.3675 53.9803 14.0897 54.0431C14.9375 54.1059 15.9423 54.2629 16.6331 53.9175C17.1041 53.6977 16.7587 52.6301 16.7901 51.9393C16.8215 50.9659 16.7901 49.9925 16.7901 49.0191C16.7901 46.2559 16.7587 43.4613 16.7901 40.6981C16.8215 38.1861 18.2659 36.7417 20.7779 36.6475C20.9977 36.6475 21.2489 36.6161 21.4687 36.5847C21.8455 36.5847 22.1909 36.6161 22.5677 36.6161C29.7269 36.6161 36.8861 36.6161 44.0453 36.6161C46.9655 36.6161 48.4413 38.0605 48.4413 40.9807C48.4413 44.5917 48.4413 48.2027 48.4413 51.8137C48.4413 54.0745 48.4413 54.0431 50.6707 54.0431C51.3929 54.0431 51.5499 53.8233 51.5499 53.1325C51.5185 47.0723 51.5499 41.0121 51.5185 34.9519C51.5185 33.6645 51.3929 33.5389 50.0741 33.5389C42.2555 33.5389 34.4055 33.5389 26.5869 33.5389C24.8913 33.5389 23.1643 33.5703 21.4687 33.5703C19.3649 33.5703 17.2611 33.5389 15.1573 33.5389C13.7757 33.5389 13.6501 33.6645 13.6501 35.0147C13.6501 38.7513 13.6501 42.4879 13.6501 46.2245C13.6501 47.5747 13.3675 47.8887 12.0487 48.2027C11.0125 47.9515 10.6043 47.2607 10.6043 46.2245C10.6357 42.3309 10.6357 38.4687 10.6043 34.5751C10.6043 33.4761 11.0125 32.5027 11.6405 31.6235C9.22273 31.3409 7.55853 29.8337 5.98853 28.3265C4.98373 27.3845 5.17213 25.8145 6.20833 24.6841C8.37493 22.3605 9.69374 19.5973 10.7927 16.6457C11.0439 15.9863 10.8241 15.7979 10.2589 15.6409C9.31694 15.3897 8.40633 15.1071 7.46433 14.8559C6.74213 14.6675 6.05133 14.2907 5.67453 13.6627C5.23493 12.8777 4.63833 12.8149 3.88473 12.8149C1.71813 12.7835 0.179536 11.3077 0.0539359 9.14106C-0.00886406 8.07346 -0.00886406 7.00586 0.0539359 5.93826C0.179536 3.67746 1.74953 2.23306 4.07313 2.23306C4.76393 2.23306 5.26633 2.13886 5.61173 1.44806C5.98853 0.694462 6.86774 0.537462 7.43294 0.00366211C20.6837 0.00366211 33.9345 0.00366211 47.1853 0.00366211C48.7553 0.600262 49.8857 1.54226 50.0741 3.30066C50.1683 4.21126 49.8857 4.99626 49.5089 5.81266C47.1539 10.6483 44.8303 15.4839 42.4753 20.2881C42.2555 20.7591 42.0985 21.1045 42.6009 21.5755C43.2917 22.2663 43.4487 23.2083 43.4487 24.1817C43.4487 26.0657 43.4801 27.9183 43.4173 29.8023C43.3859 30.3989 43.5743 30.5245 44.1395 30.5245C46.1805 30.4931 48.2215 30.5245 50.2625 30.5245C53.1513 30.5245 54.6271 32.0003 54.6271 34.9205C54.6271 45.1569 54.6271 55.3933 54.6271 65.6297C54.6271 76.4941 54.6271 87.3585 54.6271 98.2229C54.6271 101.394 53.2141 102.807 50.0427 102.807C38.4247 102.807 26.8381 102.807 15.2201 102.807C12.1115 102.807 10.6985 101.394 10.6985 98.2857C10.6985 87.1387 10.6985 76.0231 10.6985 64.8761C10.6985 63.4945 10.9497 63.1491 12.1429 62.7095C13.4931 63.0863 13.7129 63.3689 13.7129 64.8133C13.7129 67.8277 13.7129 70.8107 13.7129 73.8251C13.7129 74.2647 13.6187 74.7043 14.3095 74.6729C16.6959 74.6415 19.1137 74.6415 21.5001 74.6101C21.5943 74.6101 21.6885 74.6414 21.7827 74.6414C31.4225 74.6414 41.0309 74.6415 50.6707 74.6729C51.4243 74.6729 51.5499 74.3903 51.5499 73.7309C51.5185 68.5499 51.5185 63.3689 51.5499 58.1879C51.5499 57.2145 51.2359 57.0575 50.3567 57.0575C42.9463 57.0889 35.5045 57.0575 28.0941 57.0889C25.8961 57.0889 23.6981 57.1203 21.4687 57.1203C19.1765 57.0889 16.8843 57.1203 14.5921 57.0575C13.8385 57.0261 13.6187 57.2459 13.6501 57.9995C13.7129 59.2555 13.3361 59.6323 12.1429 59.9149ZM37.3571 23.3025C36.3523 23.3025 35.3475 23.3025 34.3427 23.3025C33.2123 23.2083 32.0819 23.2083 30.9515 23.3025C29.9467 23.3025 28.9419 23.3025 27.9371 23.3025C27.2777 23.3025 26.5869 23.3025 25.9275 23.2397C25.1425 23.2083 24.8599 23.5537 24.8599 24.3073C24.8913 26.0029 24.8913 27.7299 24.8599 29.4255C24.8599 30.1791 25.1111 30.5559 25.8961 30.4931C26.5555 30.4617 27.2149 30.4617 27.9057 30.4617C28.9105 30.4617 29.9153 30.4617 30.9515 30.4617C32.0819 30.4617 33.2123 30.4617 34.3113 30.4617C35.3161 30.4617 36.3209 30.4617 37.3571 30.4617C38.0165 30.4617 38.6759 30.4617 39.3667 30.4931C40.0889 30.5245 40.4029 30.2419 40.4029 29.4883C40.4029 27.7299 40.3715 25.9715 40.4029 24.1817C40.4029 23.5223 40.1517 23.1769 39.4609 23.2083C38.7387 23.2711 38.0479 23.3025 37.3571 23.3025ZM21.5001 99.7301C21.7513 99.7301 22.0339 99.7615 22.2851 99.7615C31.5481 99.7615 40.8111 99.7615 50.0741 99.7615C51.3929 99.7615 51.5185 99.6359 51.5185 98.2543C51.5185 92.1313 51.5185 86.0083 51.5185 79.8853C51.5185 77.6873 51.5185 77.7187 49.3519 77.6873C48.5983 77.6873 48.4099 77.8443 48.4099 78.6293C48.4413 83.1823 48.4413 87.7353 48.4413 92.2883C48.4413 95.3341 47.0283 96.7471 43.9511 96.7471C39.7435 96.7471 35.5359 96.7471 31.2969 96.7471C28.0313 96.7471 24.7343 96.7785 21.4687 96.7785C17.5437 96.7157 16.6645 94.5805 16.7273 91.5661C16.8529 87.6725 16.7587 83.7475 16.7587 79.8539C16.7587 77.7187 16.7587 77.7501 14.6549 77.6873C13.9013 77.6873 13.6501 77.8443 13.6501 78.6607C13.6815 82.7427 13.6815 86.8247 13.6815 90.8753C13.6815 93.4501 13.6815 96.0249 13.6815 98.5997C13.6815 99.2905 13.8699 99.7929 14.6863 99.7929C16.9471 99.7615 19.2079 99.7615 21.5001 99.7301ZM27.4975 3.08086C21.3745 3.11226 15.2515 3.11226 9.12853 3.08086C8.18653 3.08086 7.80973 3.42626 7.84113 4.36826C7.90393 6.34646 7.84113 8.32466 7.84113 10.3029C7.84113 11.8729 7.84113 11.8415 9.41113 12.2811C15.0003 13.8197 20.2441 16.0491 24.7343 19.8171C25.1425 20.1625 25.5507 20.2253 26.0217 20.2253C30.0723 20.2567 34.1229 20.2567 38.1735 20.3195C38.8329 20.3195 39.1783 20.1311 39.4609 19.5345C41.8473 14.5733 44.2337 9.61206 46.6515 4.65086C47.2795 3.36346 47.0911 3.08086 45.6467 3.08086C39.6179 3.08086 33.5577 3.08086 27.4975 3.08086ZM32.6157 77.7187C28.6593 77.7187 24.7343 77.7501 20.7779 77.7187C20.0871 77.7187 19.8045 77.8129 19.8045 78.6293C19.8359 83.2137 19.8359 87.798 19.8045 92.3825C19.8045 93.3244 20.0871 93.6699 21.0605 93.6699C28.7535 93.6385 36.4465 93.6385 44.1395 93.6699C45.0187 93.6699 45.3955 93.4187 45.3955 92.4767C45.3641 87.8295 45.3641 83.1823 45.3955 78.5351C45.3955 77.8443 45.1757 77.7187 44.5477 77.7187C40.5913 77.7187 36.6035 77.7187 32.6157 77.7187ZM32.6471 54.0431C36.6349 54.0431 40.5913 54.0431 44.5791 54.0745C45.2071 54.0745 45.4269 53.9489 45.4269 53.2581C45.3955 49.1447 45.3955 45.0313 45.4269 40.9179C45.4269 39.9759 45.0815 39.6933 44.1709 39.6933C36.4779 39.7247 28.7849 39.7247 21.0919 39.6933C20.2127 39.6933 19.8359 39.9445 19.8359 40.8865C19.8673 44.9999 19.8673 49.1133 19.8359 53.2267C19.8359 53.9175 20.0557 54.0431 20.6837 54.0431C24.6715 54.0117 28.6593 54.0431 32.6471 54.0431ZM8.62613 26.6623C9.37973 27.1647 10.0391 27.6357 10.6671 28.0753C10.9811 28.2951 11.2009 28.3579 11.5463 28.0753C14.3723 25.7517 16.8215 23.0827 18.6113 19.8485C18.8311 19.4403 18.7369 19.2833 18.3601 19.1263C17.1355 18.5297 15.9109 17.9645 14.6863 17.3365C14.1211 17.0539 13.8699 17.1167 13.6501 17.7761C12.5511 21.0417 10.9811 24.0247 8.62613 26.6623ZM13.4303 30.5245C16.0993 30.5245 18.6113 30.5245 21.1233 30.5245C21.6571 30.5245 21.8769 30.4617 21.8455 29.8337C21.7827 28.0753 21.8141 26.2855 21.8141 24.5271C21.8141 23.7735 21.8141 22.9885 22.2537 22.2977C22.6305 21.7011 22.0967 21.5127 21.7827 21.2929C21.2489 20.9475 21.2489 21.5441 21.1233 21.7325C19.1451 25.1551 16.5389 27.9811 13.4303 30.5245Z" fill="#032640"/>
</svg>
