<svg width="115" height="69" viewBox="0 0 115 69" fill="none" xmlns="http://www.w3.org/2000/svg">
<path d="M0.650391 15.7577C1.40399 1.12532 21.2802 -4.30688 29.2872 7.31112C47.562 7.68792 67.4068 7.68792 85.713 7.31112C87.5342 5.30152 89.1356 3.54312 91.4906 2.41272C102.01 -2.64268 113.847 5.23872 114.381 15.7263C114.381 27.7839 114.381 39.8729 114.381 51.9305C113.282 58.6501 110.456 63.6741 104.616 66.3745C98.9638 68.9807 87.5342 67.9445 79.5272 67.9445C77.7688 67.9445 75.194 68.5411 74.409 66.6257C74.252 65.2755 75.0056 64.8673 75.979 64.6161C82.2904 64.3335 89.7322 65.2127 95.29 64.1765C95.9808 64.2707 95.8866 63.5799 96.389 63.5171C97.2368 62.8577 97.959 62.1355 98.6184 61.2877C100.031 59.3723 101.35 57.3627 101.507 54.1913C101.884 42.3535 101.884 28.9457 101.507 17.1079C100.848 11.4559 97.7706 8.25312 93.0606 6.68312C90.266 5.67832 86.9376 10.4197 86.184 13.5597C84.614 19.9967 87.0946 30.6099 85.7444 36.4503C83.9546 37.8947 76.0104 37.3295 71.9598 37.3295C61.9432 37.3295 52.9 37.3295 43.323 37.3295C38.9584 37.3295 30.763 37.8633 29.3186 36.4503C28.2824 30.8297 29.9152 21.5039 29.0988 14.9099C28.6278 11.2047 24.7342 5.30152 22.0024 6.68312C17.2296 8.34732 14.0268 11.5815 13.5558 17.5789C13.179 29.1341 13.179 42.2279 13.5558 53.7831C13.964 58.9327 16.3818 62.0413 19.773 64.2079C24.483 65.0243 31.862 64.6475 37.985 64.6475C44.0452 64.6475 50.0426 64.6475 55.7574 64.6475C56.7308 64.8673 57.4844 65.2755 57.3274 66.6571C55.3178 68.9493 51.3614 67.9759 48.2214 67.9759C38.2362 67.9759 26.053 68.6353 16.9156 67.9759C7.08739 67.2537 2.00059 60.5655 0.71319 51.9933C0.65039 39.8729 0.650391 27.8153 0.650391 15.7577ZM9.09699 61.5075C10.3844 62.7321 12.237 63.3915 13.9954 64.1765C14.2152 63.5485 13.5244 62.7949 13.1162 62.1669C9.15979 56.0753 10.0076 46.8437 10.0076 35.7281C10.0076 29.2597 9.66219 22.6343 10.0076 17.7359C10.5414 10.4825 14.3408 7.27972 18.2344 4.20252C9.78779 4.13972 5.42319 8.12752 4.22999 15.3181C3.85319 27.0931 3.85319 40.4067 4.22999 52.1817C4.26139 55.4159 5.61159 57.3313 6.89899 59.2781C7.52699 60.1259 8.24919 60.8481 9.09699 61.5075ZM110.802 15.2867C109.608 8.09612 105.244 4.10832 96.7972 4.17112C101.005 7.37392 104.741 11.0477 105.024 18.1755C105.024 29.7307 105.024 41.2859 105.024 52.8097C104.867 55.4159 104.396 57.8651 103.454 59.9061C102.732 61.4761 100.816 63.1089 101.005 64.1137C106.217 62.0727 110.205 58.7757 110.77 52.1189C111.178 40.4067 111.178 27.0617 110.802 15.2867ZM39.5236 16.6369C39.1468 19.5257 34.4054 18.0185 32.647 19.5257C32.647 19.5885 32.647 19.6827 32.647 19.7455C32.2702 23.8903 32.2702 29.6051 32.647 33.7499C35.3788 33.7499 38.1106 33.7499 40.8738 33.7499C54.2816 34.2837 68.6314 33.8127 82.416 33.9697C82.6358 29.6679 83.0754 23.2623 82.1962 19.3059C80.6262 18.8977 79.2132 18.3011 77.078 18.4267C76.8268 18.0499 75.0998 18.0499 74.8486 18.4267C68.7256 18.6779 64.7692 21.0643 61.9746 24.6439C66.245 35.0373 48.347 33.7499 53.0884 24.4241C51.9266 23.0425 50.7334 21.9435 48.4098 20.6561C46.5886 19.6513 42.5066 19.2745 42.852 16.8881C43.009 16.0717 43.6056 15.7263 44.422 15.5693C47.091 16.1973 48.7552 16.9195 50.859 18.2383C53.7792 20.0595 54.8154 22.8227 59.3056 22.2261C63.7644 16.8567 73.0274 13.2457 82.6358 15.7891C82.573 13.7481 83.2324 12.3665 83.7348 10.8907C66.3392 11.0477 48.347 10.6081 31.3282 11.1105C31.9876 12.3979 32.4586 13.8423 32.4272 15.7891C34.8136 15.8205 39.084 13.4027 39.5236 16.6369ZM55.9458 28.1921C57.8298 30.3273 60.6558 27.0303 58.395 25.5231C56.2284 25.0835 55.412 26.5593 55.9458 28.1921Z" fill="#032640"/>
</svg>
