<svg width="103" height="101" viewBox="0 0 103 101" fill="none" xmlns="http://www.w3.org/2000/svg">
<path d="M51.4298 99.9805C42.7431 99.9805 34.0876 99.7911 25.4008 100.012C11.7905 100.359 2.28833 90.5136 0.751682 80.0053C0.563521 78.7115 0.343999 77.4177 0.312638 76.1239C0.281278 62.0814 0.218557 48.0389 0.375358 33.9963C0.406718 31.3772 1.37889 28.758 1.97473 26.1704C2.19425 25.2868 2.85282 24.6241 3.85635 25.0343C4.76579 25.413 4.98531 26.1704 4.60899 27.1171C3.32322 30.3989 3.16642 33.8701 3.19778 37.3413C3.22914 42.4534 3.22914 47.534 3.2605 52.6461C3.2605 53.0563 3.60546 53.4981 3.76227 53.9083C4.23267 53.6559 4.89123 53.4981 5.0794 53.0879C5.73796 51.6678 6.77285 50.8474 8.3095 50.6265C9.46983 50.4687 9.65799 49.806 9.65799 48.7646C9.62663 44.0943 9.62663 39.3924 9.65799 34.7221C9.72071 27.4642 14.3934 21.4054 21.2299 19.7013C22.4216 19.4173 23.7074 19.2596 24.9304 19.228C29.07 19.1649 33.1782 19.1964 37.3177 19.228C45.7536 19.2911 52.402 25.981 52.4647 34.4697C52.4961 39.14 52.4961 43.8419 52.4647 48.5122C52.4647 49.806 52.747 50.4687 54.1268 50.8474C55.1304 51.1314 56.1339 51.9518 56.7924 52.8039C57.4197 53.6243 57.9841 53.9399 58.9877 53.9083C61.1202 53.8452 63.284 53.9714 65.4165 53.8452C66.1064 53.8137 67.0159 53.3403 67.4236 52.8039C68.5212 51.226 69.9951 50.5002 71.814 50.4687C74.4796 50.4056 77.1452 50.4056 79.8109 50.4687C81.6925 50.5002 83.1978 51.2576 84.2954 52.8985C84.6404 53.435 85.5184 53.8137 86.177 53.8452C88.5604 53.9714 90.9751 53.9083 93.3899 53.8768C94.4248 53.8768 95.3969 54.0661 95.4283 55.2968C95.491 56.6222 94.4248 56.7168 93.4526 56.7168C91.1946 56.7484 88.9681 56.7484 86.7101 56.7168C85.5812 56.6853 84.7344 57.0008 84.0759 58.0422C83.1978 59.4622 81.8179 60.1565 80.0931 60.1565C77.2707 60.1565 74.4483 60.1565 71.6258 60.1565C69.807 60.1565 68.4898 59.3676 67.3609 57.9475C66.8905 57.3479 65.981 56.8115 65.2284 56.7799C63.1586 56.6222 61.0574 56.6537 58.9563 56.7799C58.2977 56.8115 57.6392 57.3795 57.012 57.7897C56.0084 58.484 55.1304 59.4307 54.0328 59.904C52.9351 60.3774 52.4961 60.9454 52.4961 62.1129C52.5275 66.9411 52.5275 71.8007 52.4961 76.6288C52.402 84.6757 45.9418 91.2394 37.9449 91.3971C33.3036 91.4918 28.6623 91.4603 23.9896 91.3971C17.1845 91.3025 10.9751 85.8748 9.84616 79.1218C9.62663 77.7964 9.53255 76.4079 9.50119 75.051C9.46983 70.8856 9.43847 66.7517 9.50119 62.5863C9.53255 61.1663 9.34439 60.2827 7.65094 59.904C6.71013 59.7147 5.98884 58.6102 5.14212 57.9475C4.70307 57.6004 4.23267 57.2533 3.76227 56.9062C3.5741 57.4111 3.2605 57.8844 3.2605 58.3893C3.22914 64.6374 3.16642 70.9171 3.2605 77.1653C3.35458 86.0326 11.0378 94.8999 19.8814 96.3515C21.5122 96.6355 23.2056 96.7301 24.8677 96.7301C42.4295 96.8248 59.9912 96.9195 77.5529 96.9195C88.2468 96.9195 96.3377 91.0185 98.9406 81.3307C99.4737 79.3427 99.7246 77.1968 99.756 75.1141C99.8501 61.7658 99.8187 48.386 99.8501 35.0377C99.8501 29.1682 97.7176 24.1823 93.7975 19.9538C89.9716 15.7884 85.0794 13.7057 79.56 13.6741C60.7438 13.5479 41.9277 13.611 23.1115 13.6741C20.0382 13.6741 17.1531 14.5892 14.4247 16.0408C14.1111 16.1986 13.7662 16.3879 13.4526 16.5773C12.5745 17.0506 11.6023 17.4608 11.0065 16.3564C10.4106 15.2835 11.1006 14.4946 12.0414 14.1159C14.5816 13.0745 17.1217 11.6545 19.7874 11.3074C23.8642 10.7394 28.0037 10.9287 32.1433 10.8656C34.5894 10.8025 34.5894 10.8656 35.0598 8.53043C35.9065 4.20723 39.607 0.925374 43.9975 0.862261C49.0778 0.767593 54.1268 0.767593 59.2072 0.862261C63.7544 0.95693 67.4863 4.39656 68.1135 9.09844C68.3017 10.4554 68.8348 10.834 70.1206 10.8656C74.4483 10.9287 78.8387 10.7078 83.1037 11.3074C93.9543 12.8852 102.547 22.7307 102.641 33.7439C102.798 48.2598 102.798 62.7756 102.641 77.2915C102.516 88.1784 93.4839 98.1186 82.7274 99.5702C81.0653 99.7911 79.4032 99.8858 77.7411 99.8858C68.9916 100.012 60.2107 99.9805 51.4298 99.9805ZM49.8305 42.6743C49.8305 39.8973 49.8618 37.0888 49.7991 34.3119C49.6737 28.1269 45.2205 22.7939 39.1053 22.3521C33.6172 21.9418 28.0665 22.0049 22.5784 22.4152C17.4667 22.7623 12.8881 27.906 12.6999 33.0812C12.4804 38.6351 12.5118 44.2206 12.4491 49.7745C12.4177 52.7723 12.4491 52.7723 9.50119 53.3403C9.15623 53.4034 8.65446 53.4665 8.49766 53.6874C8.08998 54.287 7.49414 55.0443 7.55686 55.6439C7.65094 56.2435 8.40358 56.843 8.96807 57.2848C9.25031 57.5057 9.78343 57.4111 10.1911 57.4426C12.2923 57.6951 12.4491 57.8844 12.4804 59.9987C12.5118 65.2686 12.4177 70.5069 12.5118 75.7768C12.6372 83.445 17.7803 88.5886 25.3695 88.6833C29.3522 88.7464 33.3036 88.7149 37.2864 88.6833C44.562 88.6517 49.7991 83.3503 49.8305 76.0293C49.8618 70.9171 49.8305 65.8366 49.8305 60.7245C49.8305 57.7582 49.8305 57.7582 52.8411 57.4426C53.97 57.3164 54.7227 56.8115 54.8481 55.6124C55.0049 54.4132 54.3777 53.719 53.2801 53.435C52.8724 53.3403 52.4647 53.2772 52.0571 53.2456C50.05 53.151 49.8618 52.9616 49.8618 50.8789C49.8305 48.1335 49.8305 45.4197 49.8305 42.6743ZM51.5866 3.76544C49.2973 3.76544 47.0081 3.73388 44.7188 3.76544C41.3632 3.82855 38.6662 5.87971 37.9136 8.81444C37.6941 9.69801 37.7254 10.55 38.7917 10.834C39.7325 11.0865 40.5792 11.1496 41.0182 9.85579C41.7709 7.58374 42.7744 6.95262 45.4087 6.95262C49.3287 6.92106 53.2174 6.95262 57.1374 6.92106C59.4894 6.92106 61.4651 7.29974 62.1864 10.0451C62.5 11.2127 63.6917 11.0234 64.6012 10.8656C65.6674 10.6763 65.2597 9.88735 65.1343 9.22467C64.5071 5.94282 62.0296 3.82855 58.4859 3.73388C56.1966 3.73388 53.8759 3.76544 51.5866 3.76544ZM75.8595 57.3795C75.8595 57.4111 75.8595 57.4111 75.8595 57.4426C77.208 57.4426 78.5878 57.4742 79.9363 57.4426C81.2221 57.4111 82.0061 56.7484 82.0688 55.423C82.1315 54.1292 81.3162 53.4034 80.1558 53.3719C77.3021 53.2772 74.4169 53.3088 71.5318 53.4034C70.3714 53.435 69.5874 54.1608 69.7129 55.4861C69.8383 56.7168 70.5282 57.3795 71.7826 57.3795C73.1625 57.3795 74.511 57.3795 75.8595 57.3795ZM59.0504 10.834C59.1131 10.6763 59.1445 10.5185 59.2072 10.3291C58.7054 10.1398 58.235 9.82424 57.7333 9.82424C53.6251 9.79268 49.5169 9.79268 45.4087 9.82424C44.9069 9.82424 44.4052 10.1714 43.9034 10.3291C43.9347 10.4869 43.9975 10.6447 44.0288 10.834C49.0151 10.834 54.0328 10.834 59.0504 10.834Z" fill="#032640"/>
<path d="M47.4776 55.4546C47.4776 62.4916 47.5717 69.5287 47.4463 76.5657C47.3522 82.0249 42.8363 86.3481 37.411 86.3797C33.2401 86.4113 29.0691 86.4113 24.8669 86.3797C19.5356 86.3481 15.1138 82.3721 14.8943 77.039C14.6434 70.1598 14.6748 63.2805 14.6748 56.4013C14.6434 49.522 14.7062 42.6427 14.7062 35.7635C14.7062 31.3456 16.2428 27.6535 20.351 25.6339C21.9817 24.845 23.9574 24.4979 25.7763 24.4348C29.6336 24.277 33.4909 24.4032 37.3796 24.4979C43.3381 24.6872 47.4149 28.9158 47.4149 34.9115C47.4463 41.7276 47.4149 48.5753 47.4149 55.3915C47.4463 55.4546 47.4776 55.4546 47.4776 55.4546ZM44.4357 36.931C45.0942 34.2172 44.8434 33.8701 42.3345 33.8701C41.3937 33.8701 40.4529 33.8701 39.5121 33.9017C38.5399 33.9332 38.1009 33.5545 38.1323 32.5132C38.195 30.8407 38.1323 29.1682 38.1323 27.4326C37.0033 27.4326 36.0938 27.4326 35.059 27.4326C35.059 29.1051 34.9962 30.6829 35.0903 32.2607C35.153 33.6176 34.6199 33.9963 33.3655 33.9332C31.578 33.8385 29.8218 33.8701 28.0343 33.9332C26.8739 33.9963 26.4663 33.5545 26.529 32.387C26.6231 30.746 26.5603 29.0735 26.5603 27.4011C25.9958 27.3379 25.6822 27.3379 25.3686 27.3064C23.8947 27.1171 23.2361 27.6535 23.3929 29.1998C23.5184 30.3042 23.3929 31.4087 23.4243 32.5132C23.4557 33.4599 23.0793 33.8701 22.1385 33.8385C21.0409 33.807 19.9433 33.8701 18.8457 33.8385C17.999 33.807 17.5913 34.1225 17.6227 35.0377C17.654 35.6057 17.6227 36.1737 17.6227 36.931C19.1907 36.931 20.5705 36.9942 21.9817 36.8995C23.1107 36.8364 23.4557 37.3097 23.4243 38.3826C23.3929 41.0649 23.3929 43.7472 23.4243 46.4295C23.4243 47.4393 23.048 47.8495 22.0445 47.818C20.6019 47.7548 19.1907 47.818 17.7481 47.818C17.7481 48.9855 17.7481 49.8376 17.7481 50.8789C19.222 50.8789 20.5705 50.942 21.919 50.8789C22.9539 50.8158 23.4557 51.1629 23.4243 52.2989C23.3616 54.9812 23.3929 57.6635 23.4243 60.3458C23.4557 61.4187 23.048 61.8605 21.9504 61.8289C20.5705 61.7658 19.1593 61.8289 17.7167 61.8289C17.7167 62.9334 17.7167 63.7854 17.7167 64.8268C19.222 64.8268 20.6332 64.8583 22.0131 64.8268C23.048 64.7952 23.3929 65.2055 23.3929 66.2153C23.3616 68.8975 23.3302 71.5798 23.3929 74.2621C23.4243 75.4612 22.8912 75.8083 21.7936 75.7452C20.4451 75.6821 19.0966 75.7137 17.8108 75.7137C17.4031 78.396 17.7167 78.7431 20.0374 78.7431C23.2989 78.7431 23.3929 78.7431 23.3302 82.0249C23.2989 83.6027 24.1456 83.6659 25.2746 83.7605C26.5917 83.8552 26.4976 83.0032 26.4976 82.1196C26.4976 81.4254 26.529 80.7627 26.4976 80.0684C26.4349 79.1533 26.7799 78.7115 27.7207 78.7431C29.7591 78.7746 31.7975 78.7746 33.8359 78.7431C34.714 78.7431 35.059 79.1218 35.059 79.9738C35.0276 81.1729 35.059 82.3721 35.059 83.4765C37.5678 83.9814 38.0695 83.7921 38.1323 82.4036C38.2891 78.7431 38.2891 78.7431 42.0209 78.7746C44.4984 78.8062 44.6866 78.5537 44.4984 75.7137C42.9617 75.7137 41.4251 75.6506 39.8884 75.7452C38.634 75.8083 38.1009 75.3981 38.1323 74.0412C38.2263 71.5167 38.195 68.9922 38.1323 66.4677C38.1009 65.237 38.5086 64.7637 39.763 64.8268C41.3624 64.8899 42.9617 64.8583 44.4984 64.8583C44.9688 61.9236 44.9374 61.892 42.3973 61.8605C41.4565 61.8605 40.5156 61.7974 39.5748 61.8605C38.4772 61.9236 38.1009 61.4503 38.1323 60.3773C38.195 57.7582 38.195 55.1075 38.1323 52.4883C38.1009 51.2891 38.5713 50.9105 39.7003 50.9736C41.2996 51.0367 42.899 50.9736 44.4357 50.9736C45.0002 48.102 44.9061 47.9757 42.4286 47.9442C41.4878 47.9442 40.547 47.9126 39.6062 47.9442C38.5713 48.0073 38.0695 47.6286 38.1009 46.4926C38.1636 43.8103 38.1636 41.128 38.1009 38.4458C38.0695 37.2782 38.6027 36.9942 39.6062 37.0257C41.2996 36.9626 42.899 36.931 44.4357 36.931Z" fill="#032640"/>
</svg>
