<svg width="71" height="113" viewBox="0 0 71 113" fill="none" xmlns="http://www.w3.org/2000/svg">
<path d="M33.1781 21.4709C33.4047 20.3079 34.122 19.8609 35.2987 19.8859C37.24 19.9297 39.1844 19.8546 41.1257 19.9172C41.9783 19.9453 42.2363 19.7233 42.23 18.8449C42.186 14.1555 42.2049 9.44735 42.2112 4.74859C42.2112 1.713 43.6553 0.296807 46.7355 0.296807H53.2232C56.2059 0.296807 57.65 1.73488 57.65 4.73296C57.65 10.8896 57.65 17.0452 57.65 23.1997C57.65 25.2412 57.6311 27.2795 57.65 29.3178C57.6846 32.319 59.4906 34.2135 62.4922 34.4292C65.0092 34.6106 66.5446 36.2456 66.5446 38.806C66.5446 50.098 66.5446 61.39 66.5446 72.6821C66.5446 76.2647 67.2965 79.7693 67.737 83.3113C68.6809 90.7862 69.7381 98.2423 70.682 105.717C71.1759 109.625 68.747 112.226 64.7575 112.226C58.0118 112.226 51.2662 112.226 44.5205 112.226C41.0785 112.226 39.1718 110.697 38.3915 107.343C37.5106 103.554 36.6223 99.7669 35.7266 95.982C35.7088 95.8976 35.671 95.8187 35.6163 95.7518C35.5615 95.685 35.4915 95.632 35.412 95.5975C34.938 97.5816 34.4639 99.5616 33.9899 101.537C33.477 103.694 32.9957 105.858 32.4482 108.009C31.7875 110.616 29.7267 112.204 27.0083 112.21C20.0864 112.223 13.1572 112.223 6.22071 112.21C2.29728 112.21 -0.106487 109.622 0.340286 105.761C0.81223 101.678 1.40059 97.6045 1.94175 93.5279C2.78076 87.215 3.61977 80.902 4.45878 74.5891C4.4953 74.19 4.50581 73.789 4.49025 73.3886C4.49025 61.9861 4.49025 50.5847 4.49025 39.1843C4.49025 36.1018 5.86518 34.6231 8.93596 34.4011C10.059 34.3194 11.1169 33.8462 11.9229 33.0648C12.7288 32.2834 13.231 31.2442 13.3408 30.1306C13.388 29.6617 13.3911 29.1928 13.3911 28.7113C13.3911 20.7706 13.3911 12.83 13.3911 4.88927C13.3911 1.66298 14.7692 0.284302 17.9753 0.284302H24.3528C27.4016 0.284302 28.83 1.71613 28.83 4.78298C28.83 9.95588 28.83 15.1288 28.83 20.3017C28.83 20.6987 28.8709 21.0989 28.8929 21.4959C28.874 24.3096 28.8929 27.0982 28.8111 29.8962C28.7693 30.1994 28.8429 30.5071 29.0175 30.7592C29.1921 31.0113 29.4551 31.1896 29.755 31.2592C33.0932 32.5097 36.488 32.3972 39.9112 31.7188C40.1912 31.6469 40.4681 31.5687 40.7481 31.5031C41.8619 31.2467 42.3213 30.6371 42.2174 29.4304C42.0916 28.0704 42.1891 26.6886 42.1891 25.3162C42.1891 23.0528 42.1891 23.0528 39.9175 23.2341C38.401 23.2154 36.8845 23.1997 35.368 23.1747C33.9584 23.1622 33.54 22.8308 33.1781 21.4709ZM60.8215 72.7415C61.0354 72.7665 61.2494 72.8071 61.4507 72.8134C63.2347 72.8477 63.2347 72.8446 63.2347 71.0814C63.2347 68.8336 63.2347 68.8336 60.8057 69.0962C59.2326 68.9368 59.2326 68.9368 59.2326 70.4312C59.2326 70.7563 59.2326 71.0814 59.2326 71.4065C59.2515 72.8915 59.2515 72.8915 60.8215 72.729V72.7415ZM61.2651 76.1522C59.8776 76.1303 58.4901 76.1209 57.1057 76.0865C56.5677 76.0865 56.4481 76.2741 56.6998 76.7118C57.9583 78.9565 59.4434 80.9979 61.9164 82.0858C62.6117 82.586 63.4172 82.7642 64.3611 82.9455C64.1377 81.298 63.9143 79.7224 63.7318 78.1468C63.4423 75.9521 63.4518 75.9521 61.2651 76.1522ZM52.0244 3.62314C50.3412 3.62314 48.6579 3.595 46.9904 3.58875C45.5305 3.58875 45.5273 3.58875 45.5273 5.01745C45.5273 15.0923 45.5273 25.1682 45.5273 35.2452C45.5273 38.5778 47.3018 40.1128 50.7093 39.747C53.0847 39.5407 54.3653 38.0651 54.3653 35.4703C54.3653 25.5767 54.3653 15.6821 54.3653 5.78651C54.3433 3.44807 54.8183 3.50122 52.0244 3.62314ZM23.2044 3.62314C21.5211 3.62314 19.841 3.595 18.1703 3.59188C16.723 3.59188 16.7199 3.59188 16.7199 5.02683C16.7199 15.0975 16.7199 25.1693 16.7199 35.2421C16.7199 38.5871 18.4818 40.1159 21.8892 39.7501C24.2616 39.5532 25.5578 38.0619 25.561 35.4797C25.561 25.5799 25.561 15.6801 25.561 5.78025C25.5389 3.45745 26.0046 3.49809 23.2012 3.62314H23.2044ZM64.5624 108.906C66.7365 109.006 67.6709 108.096 67.3941 105.992C66.6557 100.221 65.8912 94.4522 65.1004 88.6853C64.7858 86.3125 64.726 86.3188 62.3852 85.9249C59.7765 85.0383 57.4818 83.4205 55.778 81.2667C54.6782 79.9046 53.7808 78.3928 53.1131 76.7775C53.0532 76.5545 52.9141 76.3607 52.7214 76.232C52.5288 76.1032 52.2957 76.0482 52.0653 76.0772C47.3753 76.1001 42.6852 76.1001 37.9951 76.0772C37.262 76.0772 37.1708 76.3648 37.1739 76.9775C37.196 80.3633 37.1739 83.749 37.1739 87.1347C37.1674 87.4254 37.1938 87.7159 37.2526 88.0007C38.7502 94.4053 40.2552 100.809 41.7675 107.212C42.0381 108.349 42.8184 108.94 43.9951 108.94C50.8561 108.94 57.7119 108.929 64.5624 108.906ZM33.7508 87.9601C33.8061 87.6037 33.8429 87.2447 33.8609 86.8846C33.8609 83.6458 33.8389 80.407 33.8829 77.1682C33.8829 76.3398 33.7067 76.0553 32.8132 76.0647C28.272 76.1126 23.7309 76.1126 19.1897 76.0647C18.4283 76.0647 18.1011 76.3148 17.8463 77.0025C17.5471 77.7442 17.1818 78.4578 16.7545 79.1346C14.5836 82.7361 11.6386 85.3934 7.33764 86.1562C6.39375 86.325 6.16407 86.7127 6.06339 87.5192C5.65752 90.8018 5.20446 94.0844 4.77656 97.3607C4.38642 100.353 3.96796 103.341 3.63131 106.342C3.45197 107.934 4.32349 108.931 5.85259 108.934C12.6643 108.934 19.476 108.934 26.2878 108.909C28.3266 109.009 28.9401 108.553 29.4152 106.574C29.8903 104.595 30.3591 102.7 30.7964 100.759C31.7864 96.4926 32.7723 92.2253 33.7539 87.9569L33.7508 87.9601ZM60.8278 65.6761C61.1172 65.6949 61.4098 65.7261 61.6993 65.7293C63.2473 65.7293 63.2473 65.7293 63.2473 64.1849C63.2473 56.1838 63.2473 48.1837 63.2473 40.1847C63.2473 37.7931 63.2473 37.7931 60.8435 37.6368C60.0003 37.2991 59.091 37.1147 58.3265 36.5895C57.801 36.2268 57.6343 36.305 57.5304 36.9615C56.9893 40.3597 54.595 42.62 51.1592 43.0483C46.918 43.5766 43.4413 41.4852 42.4503 37.7681C42.2412 36.9176 42.1586 36.0413 42.2049 35.167C42.2206 34.6574 42.0444 34.5418 41.5504 34.6856C37.624 35.8162 33.4544 35.8097 29.5316 34.6668C28.981 34.5074 28.8079 34.6668 28.8331 35.2108C28.8835 36.051 28.8072 36.894 28.6066 37.7118C27.7036 41.2507 24.6517 43.2703 20.4923 43.1046C16.852 42.9576 14.0424 40.5379 13.5138 37.0365C13.4131 36.38 13.2967 36.2081 12.6738 36.6051C11.6497 37.2487 10.4788 37.625 9.26947 37.6993C7.84734 37.7993 7.80644 37.8368 7.80329 39.2624C7.80329 47.7033 7.82532 56.1629 7.77498 64.6101C7.77498 65.6261 8.08961 65.7699 8.99574 65.7668C19.5148 65.7355 30.035 65.7355 40.5562 65.7668C41.0308 65.7501 41.5058 65.7868 41.972 65.8762C42.3405 65.9392 42.6712 66.1389 42.8972 66.4349C43.1232 66.7308 43.2278 67.101 43.1896 67.4706C43.2001 67.8598 43.058 68.2378 42.7932 68.5248C42.5285 68.8118 42.1618 68.9853 41.7707 69.0087C41.4057 69.0428 41.0389 69.0532 40.6726 69.04H17.4718C14.9202 69.04 14.9768 69.04 14.8982 71.6035C14.8667 72.6383 15.2128 72.854 16.1819 72.854C28.5342 72.8227 40.8866 72.8154 53.2389 72.8321C55.9636 72.8321 55.9258 72.8321 55.9699 70.1092C55.9699 69.2338 55.7276 68.9931 54.8655 69.0243C53.0722 69.0869 51.2725 69.0619 49.4791 69.0243C48.4219 69.0056 47.7581 68.371 47.736 67.4612C47.714 66.5515 48.3653 65.8981 49.3973 65.7793C49.7591 65.7418 50.1304 65.7637 50.4953 65.7605L60.8278 65.6761ZM14.6685 76.0865C12.3969 76.0865 10.3455 76.1084 8.29726 76.0865C7.70576 76.0865 7.56732 76.3116 7.5044 76.8275C7.27996 78.6678 7.02826 80.506 6.74929 82.3422C6.65175 82.9862 6.90031 82.9674 7.40057 82.8361C10.9087 81.8201 13.0136 79.341 14.6685 76.0834V76.0865ZM9.75085 69.0056C7.80329 69.0056 7.80329 69.0056 7.80329 70.9157C7.80329 72.8259 7.80329 72.8071 9.65646 72.8071C11.6292 72.8071 11.6292 72.8071 11.6292 70.897C11.6292 68.9868 11.6386 69.0056 9.75085 69.0056Z" fill="#032640"/>
<path d="M35.5191 45.9932C38.8888 45.9932 42.2554 45.9932 45.625 45.9932C48.0917 45.9932 49.2527 47.1374 49.2527 49.5978C49.2527 51.1953 49.3565 52.796 48.9727 54.3779C48.462 56.5742 47.2221 58.5358 45.4528 59.9468C43.6835 61.3577 41.4878 62.1359 39.2192 62.156C36.1516 62.156 33.0556 62.4967 30.0131 61.9559C27.8004 61.5432 25.7918 60.4026 24.3108 58.7178C22.8298 57.033 21.9625 54.9019 21.8485 52.6678C21.7824 51.508 21.7761 50.3387 21.8107 49.1758C21.8705 47.1968 23.0693 46.0151 25.0892 45.9995C28.5627 45.9776 32.0425 45.9964 35.5191 45.9932ZM25.4038 49.3071C25.2622 49.2821 25.1427 49.2852 25.1615 49.4821C25.1615 50.42 25.0766 51.3579 25.1269 52.2958C25.182 54.0759 25.9382 55.7634 27.2327 56.9953C28.5271 58.2271 30.2565 58.9049 32.0488 58.8828C34.355 58.9015 36.6612 58.8828 38.9706 58.8828C39.5118 58.8828 40.075 58.9453 40.5784 58.6514C43.797 58.095 45.9271 55.2469 45.9523 51.4611C45.9523 49.157 45.9523 49.157 43.6523 49.2883L25.4038 49.3071Z" fill="#032640"/>
<path d="M22.7583 35.1233C22.7671 35.4477 22.6781 35.7673 22.5029 36.0411C22.3276 36.3149 22.074 36.5305 21.7746 36.6601C21.4752 36.7898 21.1437 36.8276 20.8225 36.7688C20.5013 36.7099 20.2051 36.5571 19.972 36.3299C19.7388 36.1027 19.5792 35.8114 19.5137 35.4935C19.4483 35.1756 19.4799 34.8455 19.6045 34.5455C19.7291 34.2456 19.941 33.9894 20.2131 33.81C20.4852 33.6305 20.8051 33.5359 21.1317 33.5383C21.5546 33.5482 21.9579 33.7174 22.2599 34.0117C22.5619 34.306 22.7401 34.7033 22.7583 35.1233Z" fill="#032640"/>
<path d="M49.9129 36.7958C49.5911 36.792 49.2776 36.6943 49.0114 36.5147C48.7452 36.3351 48.5381 36.0816 48.4158 35.7858C48.2936 35.4901 48.2617 35.1651 48.3241 34.8515C48.3864 34.5378 48.5403 34.2493 48.7665 34.022C48.9928 33.7946 49.2814 33.6384 49.5963 33.5729C49.9112 33.5074 50.2386 33.5354 50.5376 33.6535C50.8367 33.7716 51.0941 33.9746 51.2778 34.237C51.4616 34.4995 51.5635 34.8099 51.571 35.1295C51.573 35.3473 51.5317 35.5634 51.4494 35.7653C51.367 35.9671 51.2452 36.1508 51.0911 36.3057C50.937 36.4606 50.7535 36.5837 50.5513 36.6678C50.3491 36.7519 50.1321 36.7954 49.9129 36.7958Z" fill="#032640"/>
</svg>
