<svg width="101" height="63" viewBox="0 0 101 63" fill="none" xmlns="http://www.w3.org/2000/svg">
<path d="M60.0786 49.8899C60.1567 49.4765 60.1975 48.8101 60.1975 48.394C60.1975 44.6566 57.1571 41.6162 53.42 41.6162C49.6826 41.6162 46.6426 44.6566 46.6426 48.394C46.6426 48.9007 46.7042 49.4004 46.8153 49.8899H60.0786Z" fill="#032640"/>
<path d="M68.9999 25.5519C68.9989 25.5667 68.9999 25.5367 68.9999 25.5519C68.3053 25.6926 67.514 25.7724 66.7996 25.7724C60.9272 25.7724 56.1491 20.9947 56.1491 15.1219C56.1491 14.3778 56.2356 13.6431 56.3878 12.9216H43.2982C42.2164 12.9216 41.1706 13.0778 40.179 13.3637C39.9713 13.928 39.7157 14.465 39.4225 14.9755C41.4218 16.7128 42.7491 19.165 43.0363 21.8987C43.6501 27.7384 39.3982 32.9893 33.5578 33.6041L32.0322 33.6502V38.6233C32.0322 44.696 36.8629 49.6593 42.8831 49.8792C42.814 49.3886 42.7706 48.8933 42.7706 48.3936C42.7706 42.5209 47.5484 37.7431 53.4211 37.7431C59.142 37.7431 63.8218 42.2775 64.0602 47.9408C67.04 45.9115 69.0006 42.4923 69.0006 38.6233V25.5519H68.9999Z" fill="#032640"/>
<path d="M29.119 16.3728C30.112 14.5792 31.4328 12.9913 33.0042 11.6943L23.7265 7.62899C23.5147 8.2896 23.4063 8.97849 23.4063 9.68724C23.4059 13.0613 25.8871 15.8593 29.119 16.3728Z" fill="#032640"/>
<path d="M73.9287 40.3869C76.1721 39.2808 77.6257 36.9761 77.6257 34.3105C77.6257 31.6832 76.12 29.4054 73.9287 28.2812V40.3869Z" fill="#032640"/>
<path d="M94.9219 45.929C94.9219 49.2617 97.3421 52.034 100.516 52.5963V39.262C97.3417 39.8239 94.9219 42.5963 94.9219 45.929Z" fill="#032640"/>
<path d="M33.1541 29.7522C36.869 29.3613 39.575 26.0199 39.1844 22.3037C39.0033 20.5802 38.172 19.032 36.9195 17.9287C35.7339 18.8953 34.344 19.6014 32.8454 19.9913C32.3218 21.2889 32.0312 22.7051 32.0312 24.1883V29.7765C32.404 29.7987 32.7791 29.7913 33.1541 29.7522Z" fill="#032640"/>
<path d="M75.7773 9.71654C75.7773 13.4539 78.8178 16.494 82.5548 16.494C86.2918 16.494 89.3322 13.4539 89.3322 9.71654C89.3322 7.30071 88.0326 5.05761 85.938 3.8465L75.9457 8.22462C75.8346 8.71755 75.7773 9.21957 75.7773 9.71654Z" fill="#032640"/>
<path d="M27.1025 38.6233V24.1879C27.1025 22.7505 27.2927 21.3576 27.6459 20.0297C22.9948 18.8883 19.5325 14.6856 19.5325 9.68724C19.5325 8.45526 19.752 7.22731 20.1698 6.07108L9.86748 1.55694C4.72404 -0.697271 0.515625 2.05357 0.515625 7.6694V13.0441C1.91125 12.3933 3.44492 12.0415 5.01158 12.0415C10.884 12.0415 15.6621 16.8189 15.6621 22.6916C15.6621 28.5643 10.884 33.3421 5.01158 33.3421C3.44492 33.3421 1.91125 32.9899 0.515625 32.3394V55.1421C0.515625 60.7579 4.72404 63.5088 9.86748 61.2546L33.0042 51.1179C29.4022 48.1448 27.1025 43.6472 27.1025 38.6233ZM14.6035 55.7872C8.73111 55.7872 3.95334 51.0095 3.95334 45.1367C3.95334 39.2644 8.73078 34.4862 14.6035 34.4862C20.4762 34.4862 25.254 39.264 25.254 45.1367C25.254 51.0095 20.4762 55.7872 14.6035 55.7872Z" fill="#032640"/>
<path d="M91.0486 45.929C91.0486 40.4566 95.1981 35.9367 100.515 35.3458V7.6694C100.515 2.05357 96.3068 -0.697271 91.1634 1.55694L89.9691 2.08017C92.0068 4.06233 93.2048 6.80845 93.2048 9.71687C93.2048 15.5893 88.427 20.3674 82.5543 20.3674C76.7742 20.3674 72.0584 15.7381 71.9109 9.99263L68.027 11.695C71.6116 14.6536 73.9045 19.1216 73.9267 24.1165C78.3025 25.4408 81.4981 29.5091 81.4981 34.3111C81.4981 39.5505 77.694 43.9152 72.7035 44.7967C71.6796 47.2701 70.0624 49.4381 68.0264 51.1186L91.1631 61.2553C95.8722 63.3189 99.7951 61.1856 100.425 56.5014C95.1506 55.8687 91.0486 51.3704 91.0486 45.929Z" fill="#032640"/>
<path d="M14.6036 38.3593C10.8666 38.3593 7.82617 41.3997 7.82617 45.1367C7.82617 48.8741 10.8666 51.9142 14.6036 51.9142C18.341 51.9142 21.3814 48.8741 21.3814 45.1367C21.3814 41.4 18.3407 38.3593 14.6036 38.3593Z" fill="#032640"/>
<path d="M11.7894 22.6916C11.7894 18.9546 8.74896 15.9142 5.01158 15.9142C3.35233 15.9142 1.7493 16.5293 0.515625 17.6219V27.7613C1.7493 28.8539 3.35266 29.4691 5.01158 29.4691C8.74896 29.4694 11.7894 26.429 11.7894 22.6916Z" fill="#032640"/>
<path d="M60.3002 13.2199C60.1194 13.8371 60.0225 14.4744 60.0225 15.1219C60.0225 18.859 63.0629 21.8994 66.7999 21.8994C67.4477 21.8994 68.0848 21.8024 68.7019 21.6216C67.7299 17.4674 64.4545 14.192 60.3002 13.2199Z" fill="#032640"/>
</svg>
