<svg width="101" height="101" viewBox="0 0 101 101" fill="none" xmlns="http://www.w3.org/2000/svg">
<path d="M50.516 94.0308C52.714 94.0308 54.4958 92.2586 54.4958 90.0724C54.4958 87.8863 52.714 86.1141 50.516 86.1141C48.318 86.1141 46.5361 87.8863 46.5361 90.0724C46.5361 92.2586 48.318 94.0308 50.516 94.0308Z" stroke="#032640" stroke-width="5" stroke-miterlimit="10"/>
<path d="M30.5332 46.2391H70.5411V70.1141C70.5522 72.7346 70.0421 75.3315 69.0402 77.7552C68.0382 80.1789 66.5643 82.3816 64.7032 84.2365C62.842 86.0915 60.6304 87.562 58.1957 88.5636C55.7609 89.5652 53.151 90.0779 50.5162 90.0724C45.2164 90.0724 40.1336 87.9785 36.3861 84.2512C32.6386 80.5239 30.5332 75.4686 30.5332 70.1974V46.2391Z" stroke="#032640" stroke-width="5" stroke-miterlimit="10"/>
<path d="M70.499 46.2391H78.5006C80.6228 46.2391 82.658 47.0776 84.1586 48.57C85.6592 50.0625 86.5022 52.0867 86.5022 54.1974V62.1558H78.5006C76.3785 62.1558 74.3432 61.3173 72.8426 59.8248C71.342 58.3323 70.499 56.3081 70.499 54.1974V46.2391Z" stroke="#032640" stroke-width="5" stroke-miterlimit="10"/>
<path d="M30.6162 46.3224V54.2808C30.6162 56.3914 29.7732 58.4157 28.2726 59.9082C26.772 61.4006 24.7368 62.2391 22.6146 62.2391H14.613V54.2808C14.613 52.1701 15.4561 50.1458 16.9566 48.6534C18.4572 47.1609 20.4925 46.3224 22.6146 46.3224H30.6162Z" stroke="#032640" stroke-width="5" stroke-miterlimit="10"/>
<path d="M38.5347 46.2391V38.3641C38.5237 36.2568 37.6771 34.2389 36.1789 32.7488C34.6807 31.2587 32.6518 30.4167 30.5331 30.4058H26.3438C21.073 30.3618 16.0332 28.2484 12.3218 24.5259C8.61046 20.8034 6.52813 15.7732 6.52832 10.5308V2.57243" stroke="#032640" stroke-width="5" stroke-miterlimit="10"/>
<path d="M26.5107 14.5308V30.4058" stroke="#032640" stroke-width="5" stroke-miterlimit="10"/>
<path d="M62.4971 46.2391V38.3641C62.5081 36.2568 63.3546 34.2389 64.8528 32.7488C66.3511 31.2587 68.3799 30.4167 70.4987 30.4058H74.688C79.9587 30.3618 84.9985 28.2484 88.7099 24.5259C92.4213 20.8034 94.5036 15.7732 94.5034 10.5308V2.57243" stroke="#032640" stroke-width="5" stroke-miterlimit="10"/>
<path d="M74.5205 14.5308V30.4058" stroke="#032640" stroke-width="5" stroke-miterlimit="10"/>
</svg>
