<svg width="103" height="99" viewBox="0 0 103 99" fill="none" xmlns="http://www.w3.org/2000/svg">
<path d="M94.2452 7.6739C94.2452 7.3913 94.2138 7.0773 94.1196 6.7947L97.1654 3.7489C97.8248 3.0895 97.8248 1.9905 97.1654 1.3311C96.506 0.671698 95.4384 0.671698 94.7476 1.3311L91.7018 4.3769C91.4192 4.2827 91.1366 4.2513 90.8226 4.2513H79.8326H23.1556H12.1656C11.883 4.2513 11.569 4.2827 11.2864 4.3769L8.24059 1.3311C7.58119 0.671698 6.48219 0.671698 5.82279 1.3311C5.16339 1.9905 5.16339 3.0581 5.82279 3.7489L8.86859 6.7947C8.77439 7.0773 8.74299 7.3599 8.74299 7.6739V18.6639C-2.65521 35.8397 -2.65521 58.1651 8.74299 75.3409V86.3309C8.74299 86.6135 8.77439 86.9275 8.86859 87.2101L5.82279 90.2559C5.38319 90.6955 5.22619 91.3235 5.38319 91.9201C5.54019 92.5167 6.01119 92.9877 6.60779 93.1447C7.20439 93.3017 7.83239 93.1133 8.27199 92.7051L11.3178 89.6593C11.6004 89.7535 11.883 89.7849 12.197 89.7849H23.187C43.5342 103.287 70.5382 100.555 87.8082 83.3165C105.078 66.0779 107.779 39.0425 94.2766 18.6953V7.6739H94.2452ZM70.287 62.3727C68.403 62.3727 66.8644 63.9113 66.8644 65.7953V66.5803C61.7776 67.2711 56.628 67.5851 51.4784 67.5223C44.696 67.6165 37.9136 67.0513 31.2568 65.8267C24.9454 64.6963 18.5712 64.0997 12.1656 64.0997V57.2545C18.3828 57.2545 24.5686 57.8197 30.6916 58.9187C37.5368 60.1747 44.5076 60.7399 51.4784 60.6457C58.4492 60.7399 65.42 60.1433 72.2652 58.9187C78.3882 57.7883 84.574 57.2545 90.7912 57.2545V62.3727H70.287ZM71.7314 45.3225C65.0432 46.5471 58.2922 47.1123 51.5098 47.0181C44.7274 47.1123 37.945 46.5471 31.2882 45.3225C24.9768 44.1921 18.6026 43.5955 12.197 43.5955V36.7503C18.4142 36.7503 24.6 37.3155 30.723 38.4145C37.5682 39.6705 44.539 40.2357 51.5098 40.1415C58.4806 40.2357 65.4514 39.6391 72.2966 38.4145C78.4196 37.2841 84.6054 36.7503 90.8226 36.7503V43.5955C84.417 43.5955 78.0114 44.1607 71.7314 45.3225ZM90.8226 47.0181V53.8633C84.417 53.8633 78.0428 54.4285 71.7314 55.5903C65.0432 56.8149 58.2922 57.3801 51.5098 57.2859C44.7274 57.3801 37.945 56.8149 31.2882 55.5903C24.9768 54.4599 18.6026 53.8633 12.197 53.8633V47.0181C18.4142 47.0181 24.6 47.5833 30.723 48.6823C37.5682 49.9383 44.539 50.5035 51.5098 50.4093C58.4806 50.5035 65.4514 49.9069 72.2966 48.6823C78.3882 47.5519 84.6054 47.0181 90.8226 47.0181ZM71.7314 35.0547C65.0432 36.2793 58.2922 36.8445 51.5098 36.7503C44.7274 36.8445 37.945 36.2793 31.2882 35.0547C24.9768 33.9243 18.6026 33.3277 12.197 33.3277V26.4825C18.4142 26.4825 24.6 27.0477 30.723 28.1467C37.5682 29.4027 44.539 29.9679 51.5098 29.8737C58.4806 29.9679 65.4514 29.3713 72.2966 28.1467C78.4196 27.0163 84.6054 26.4825 90.8226 26.4825V33.3277C84.417 33.3277 78.0114 33.9243 71.7314 35.0547ZM90.8226 23.0599C84.417 23.0599 78.0428 23.6251 71.7314 24.7869C65.0432 26.0115 58.2922 26.5767 51.5098 26.4825C44.7274 26.5767 37.945 26.0115 31.2882 24.7869C24.9768 23.6565 18.6026 23.0599 12.197 23.0599V16.2147C18.4142 16.2147 24.6 16.7799 30.723 17.8789C37.5682 19.1349 44.539 19.7001 51.5098 19.6059C58.4806 19.7001 65.4514 19.1035 72.2966 17.8789C78.4196 16.7485 84.6054 16.2147 90.8226 16.2147V23.0599ZM12.1656 67.5223C18.3828 67.5223 24.5686 68.0875 30.6916 69.1865C37.5368 70.4425 44.5076 71.0077 51.4784 70.9135C56.628 70.9763 61.7776 70.6623 66.8644 70.0029V76.8167C61.7776 77.5075 56.628 77.8215 51.4784 77.7587C44.696 77.8529 37.9136 77.2877 31.2568 76.0631C24.9454 74.9327 18.5712 74.3361 12.1656 74.3361V67.5223ZM70.287 65.7953H88.3734L70.287 83.9131V65.7953ZM23.1556 4.2513C30.6288 4.2513 73.0188 4.2513 73.0188 4.2513H23.1556ZM79.3302 7.6739H79.3616H90.8226V12.8235C84.417 12.8235 78.0428 13.3887 71.7314 14.5505C65.0432 15.7751 58.2922 16.3403 51.5098 16.2461C44.7274 16.3403 37.945 15.7751 31.2882 14.5505C24.9768 13.4201 18.6026 12.8235 12.197 12.8235V7.6739H79.3302ZM3.62479 46.9867C3.62479 39.5135 5.38319 32.1345 8.74299 25.4463V68.5271C5.38319 61.8703 3.62479 54.4913 3.62479 46.9867ZM12.1656 77.7901C18.3828 77.7901 24.5686 78.3553 30.6916 79.4543C37.5368 80.7103 44.5076 81.2755 51.4784 81.1813C56.628 81.2441 61.7776 80.9301 66.8644 80.2707V86.2995H12.1656V77.7901ZM51.4784 94.8717C44.0052 94.8717 36.6262 93.1133 29.938 89.7535H67.147C67.8692 89.7535 68.56 89.5965 69.188 89.3139C69.2194 89.3139 69.2508 89.2825 69.2822 89.2825C69.8474 89.0313 70.3498 88.6859 70.758 88.2777L92.6752 66.3605C93.1148 65.9209 93.4602 65.4185 93.68 64.8847C93.68 64.8533 93.7114 64.8219 93.7114 64.7905C93.994 64.1311 94.151 63.4403 94.151 62.7495V25.4463C101.624 40.2985 100.902 57.9453 92.1728 72.1067C83.5378 86.2681 68.1204 94.8717 51.4784 94.8717Z" fill="#032640"/>
</svg>
