<svg width="110" height="109" viewBox="0 0 110 109" fill="none" xmlns="http://www.w3.org/2000/svg">
<path d="M0.00314696 84.2877C1.62978 81.9461 2.97954 79.4358 4.43942 76.9941C10.3125 67.1694 16.1604 57.3331 21.9831 47.4855C22.3801 46.819 22.885 46.2222 23.4776 45.7191C26.4572 43.1525 29.4178 40.5639 32.3407 38.0254C26.8819 31.7729 27.2784 24.6669 29.443 17.5172C32.4949 7.41627 40.6753 1.19816 51.2783 0.300921C56.8283 -0.168016 62.2274 0.332185 67.2772 2.78317C74.8283 6.44401 79.016 12.6559 80.6458 20.6966C81.3259 24.0654 81.3259 27.535 80.6458 30.9038C80.2174 33.3171 79.0724 35.548 77.3579 37.3095C76.8702 37.8034 76.8608 38.0348 77.3988 38.4943C80.2871 40.9547 83.1345 43.4588 86.0039 45.938C86.4324 46.3078 86.797 46.7451 87.0831 47.2322C94.2797 59.3475 101.483 71.4596 108.692 83.5687C109.513 84.9505 109.409 85.5476 108.195 86.5824C104.497 89.7295 100.798 92.8755 97.0977 96.0205C95.7102 97.1991 94.7947 97.0584 93.8224 95.5141C89.9064 89.2949 85.9913 83.0758 82.0773 76.8566C81.8791 76.544 81.7627 76.1501 81.3159 75.9187C81.5425 79.045 81.7596 82.1337 81.9892 85.2099C82.4549 91.4416 82.9247 97.6733 83.3988 103.905C83.4523 104.608 83.468 105.318 83.5781 106.015C83.7512 107.112 83.5058 108.019 82.5493 108.669H26.6711C25.7272 108.019 25.4629 107.106 25.6423 106.015C25.7461 105.39 25.765 104.765 25.8153 104.118C26.2894 97.815 26.7613 91.5125 27.2312 85.2099C27.4608 82.1337 27.6779 79.0575 27.9045 75.9281C27.4797 76.1282 27.379 76.4939 27.1997 76.7784C23.2438 83.0539 19.2931 89.3335 15.3476 95.6172C14.4541 97.0366 13.4598 97.1804 12.2013 96.0987C10.7666 94.8857 9.32561 93.6821 7.91293 92.441C5.28892 90.1338 2.5013 88.0111 0 85.5632L0.00314696 84.2877ZM67.8183 52.2717V52.2499C65.9778 53.1877 64.8545 52.5093 64.8482 50.4554C64.8482 48.3389 64.8482 46.2224 64.8482 44.0309C64.078 44.267 63.2942 44.457 62.5011 44.5999C61.5981 44.7093 61.4125 45.1314 61.4156 45.988C61.4429 63.0782 61.4502 80.1777 61.4377 97.2867C61.4474 97.4626 61.4474 97.639 61.4377 97.815C61.3842 98.3027 61.5509 98.5153 62.0826 98.4934C63.2185 98.4527 64.3574 98.4621 65.4932 98.4496C69.8634 98.4496 74.2336 98.4496 78.6038 98.509C79.5697 98.509 79.5823 98.137 79.5257 97.4023C79.1062 92.1919 78.7035 86.9815 78.3175 81.7711C77.8298 75.2966 77.3579 68.8221 76.8513 62.3508C76.753 61.4055 76.9322 60.4522 77.3673 59.6059C79.2268 55.9982 81.0296 52.3593 82.8513 48.7328C83.0369 48.3639 83.3012 48.0607 82.8136 47.648C80.2179 45.4596 77.6505 43.2244 75.0768 41.0079C74.4727 40.07 73.8183 40.07 72.8996 40.6952C71.7132 41.4577 70.4366 42.072 69.0989 42.5241C68.4854 42.7429 68.2368 43.043 68.2494 43.7308C68.2997 46.2912 68.2714 48.8548 68.2714 51.4183L68.0323 51.9685L67.8183 52.2717ZM60.6731 36.728C60.1068 35.3962 60.2421 34.8523 61.3653 34.0019C62.4478 33.1407 63.6061 32.3779 64.8262 31.7229C65.6442 31.3008 66.4466 30.8507 67.274 30.4442C69.4292 29.3938 70.4958 27.7588 70.4518 25.3047C70.3385 18.8427 67.23 14.5441 61.1797 12.8247C57.6181 11.8118 53.9746 11.7711 50.3249 12.3276C47.5814 12.7465 45.014 13.6156 42.8934 15.4758C39.8824 18.1143 38.8724 21.5688 38.8032 25.4297C38.756 27.7994 39.8258 29.4188 41.9086 30.3942C47.2928 32.8641 51.8665 36.7932 55.1042 41.73C55.2898 42.0114 55.4345 42.3834 55.8907 42.3334C57.9765 42.145 60.0413 41.7725 62.0606 41.2204C66.1508 40.195 70.0963 38.8476 73.4942 36.2653C75.4663 34.8354 76.827 32.7226 77.3075 30.3442C77.8986 27.5738 77.9435 24.7157 77.4397 21.9283C76.0113 14.1909 72.0281 8.32288 64.5179 5.29042C59.4461 3.24272 54.1351 3.05828 48.8053 4.09307C44.4728 4.9309 40.6249 6.7879 37.6265 10.0329C32.7309 15.3069 30.9627 21.6282 31.6486 28.6935C32.0167 32.5295 33.9642 35.34 37.2584 37.3158C40.1727 39.0118 43.3208 40.2757 46.6029 41.0673C48.0124 41.4299 49.4157 41.8488 51.0958 41.9582C50.6647 41.4205 50.3942 41.0579 50.0984 40.7077C47.4047 37.6272 44.0863 35.1471 40.3606 33.4298C36.991 31.8448 35.2888 29.1406 35.358 25.3922C35.3655 24.3679 35.4528 23.3457 35.6192 22.3347C36.6669 16.3667 39.8572 12.1119 45.6873 10.0048C49.3936 8.66365 53.2384 8.42605 57.1367 8.70429C59.3377 8.82487 61.5093 9.26297 63.5834 10.0048C70.1025 12.4495 73.2614 17.3734 73.7868 24.0729C74.1927 29.2344 72.6573 31.6322 67.9756 33.8956C66.3717 34.658 64.8575 35.5943 63.4607 36.6874C62.52 37.4252 61.6201 37.4814 60.6731 36.728ZM33.2217 41.8394C30.969 43.7777 28.7225 45.7285 26.4509 47.6449C25.9286 48.0857 26.2243 48.4358 26.4257 48.836C28.0901 52.1467 29.701 55.4887 31.4409 58.7587C32.2023 60.1937 32.5799 61.5723 32.2904 63.2042C32.0702 64.4547 32.0953 65.7334 32.0009 66.9995C31.6024 72.3121 31.2018 77.6267 30.7991 82.9434C30.4257 87.9037 30.0513 92.864 29.6758 97.8244C29.6381 98.3152 29.745 98.509 30.3051 98.5059C34.8515 98.4746 39.3979 98.4715 43.9443 98.459C44.8315 98.459 45.7251 98.4215 46.606 98.5121C47.5814 98.6122 47.8236 98.2808 47.8236 97.3117C47.7922 80.7133 47.7848 64.114 47.8016 47.5136C47.8016 44.7469 47.8016 44.7719 45.0297 44.1654C44.4477 44.0372 44.3785 44.1841 44.3847 44.6843C44.4036 46.6257 44.3847 48.5703 44.3847 50.5117C44.3847 52.1154 43.8499 52.65 42.2264 52.7C41.185 52.2499 40.8861 51.3964 40.9364 50.3553C40.9364 48.0638 40.9364 45.7754 40.9836 43.4776C40.9836 42.9336 40.7193 42.7586 40.3009 42.5772C39.228 42.1177 38.1551 41.655 37.1168 41.1298C34.9773 40.0606 34.9868 40.045 33.2217 41.8394ZM58.0302 75.4029C58.0302 69.115 58.0302 62.8281 58.0302 56.5422C58.0302 53.1502 58.0145 49.7614 58.0302 46.3694C58.0302 45.6628 57.8855 45.4628 57.1367 45.6285C55.4307 46.003 53.6618 45.9913 51.961 45.5941C51.3003 45.4409 51.1587 45.6566 51.1839 46.2568C51.2185 47.1384 51.1839 48.0232 51.1839 48.9048C51.1839 67.3434 51.1839 85.782 51.1839 104.221C51.1839 105.005 51.316 105.343 52.2096 105.296C53.8047 105.218 55.4094 105.218 57.0077 105.296C57.8855 105.34 58.046 105.027 58.0428 104.227C58.0197 94.6189 58.0155 85.0109 58.0302 75.4029ZM85.4659 51.1713C84.1161 53.8442 82.9017 56.4265 81.5267 58.9213C80.6191 60.504 80.2206 62.3247 80.3846 64.139C80.5891 66.7869 80.8975 69.3036 82.694 71.4232C83.1154 71.992 83.496 72.5895 83.833 73.2114L91.5886 85.5476C91.9032 85.3068 92.2178 85.1099 92.4758 84.8942C95.1376 82.7777 97.771 80.6206 100.477 78.5573C101.226 77.9852 101.223 77.6194 100.773 76.8597C97.0946 70.7416 93.4606 64.5985 89.8109 58.4648C88.3888 56.067 86.9604 53.6754 85.4659 51.1713ZM23.8174 51.2588C23.7153 51.3493 23.6216 51.4487 23.5374 51.5558C18.4593 60.0884 13.3801 68.62 8.29992 77.1505C7.98529 77.7007 8.06395 77.9727 8.54848 78.3509C11.3655 80.5602 14.1636 82.7923 16.9428 85.0474C17.4714 85.4757 17.7073 85.5007 18.0975 84.8723C21.4011 79.5577 24.7456 74.2743 28.0775 68.9784C28.3556 68.5679 28.5225 68.093 28.562 67.5998C28.6785 65.7678 28.8232 63.9389 28.9679 62.1101C29.0028 61.7591 28.9362 61.4056 28.776 61.0909C27.1462 57.849 25.5007 54.6008 23.8174 51.2588ZM38.4729 105.271H45.3947C47.7985 105.271 47.7544 105.271 47.7985 102.905C47.8142 102.029 47.5122 101.86 46.7067 101.863C41.6978 101.895 36.6858 101.879 31.6769 101.879C29.2228 101.879 29.2574 101.879 29.1944 104.339C29.1756 105.105 29.4178 105.277 30.1383 105.277C32.9354 105.249 35.7073 105.271 38.4729 105.271ZM70.6406 105.271H77.877C80.2902 105.271 80.2399 105.271 79.897 102.867C79.7805 102.035 79.4722 101.86 78.6982 101.867C73.7585 101.898 68.8189 101.882 63.8792 101.882C61.3621 101.882 61.3905 101.882 61.4093 104.383C61.4093 105.074 61.6138 105.29 62.3123 105.284C65.1031 105.252 67.875 105.271 70.6469 105.271H70.6406ZM15.7126 88.5988C15.7126 88.3174 15.5427 88.2299 15.398 88.1236C12.516 85.8352 9.62451 83.5593 6.75823 81.2458C6.25797 80.8426 6.00627 80.9332 5.71996 81.4491C5.29307 82.2622 4.82471 83.0531 4.31671 83.8187C3.95174 84.3502 4.05242 84.6753 4.51178 85.0693C7.2113 87.3618 9.90138 89.6607 12.582 91.9658C13.0571 92.3753 13.3812 92.4034 13.7241 91.7751C14.2307 90.8372 14.8348 89.9712 15.398 89.074L15.7126 88.5988ZM96.1192 92.319C96.3189 92.2016 96.5112 92.0721 96.695 91.9314C99.2813 89.743 101.842 87.5046 104.457 85.335C105.177 84.7379 105.284 84.2564 104.715 83.503C104.24 82.8402 103.819 82.1408 103.456 81.4115C103.183 80.8957 102.934 80.8863 102.49 81.2458C99.6294 83.5572 96.7558 85.8498 93.8696 88.1236C93.511 88.405 93.4763 88.5957 93.7281 88.9739C94.3762 89.9431 94.9708 90.9435 95.5907 91.9314C95.7134 92.119 95.8109 92.319 96.1192 92.319Z" fill="#032640"/>
<path d="M22.3543 13.8062C22.2127 16.0134 21.2185 17.614 19.208 18.5144C18.2919 18.9126 17.2771 19.0308 16.2931 18.8537C15.3091 18.6767 14.4005 18.2124 13.6831 17.5202C12.1351 16.054 11.701 14.1595 12.5159 12.1087C13.8499 8.75107 15.8195 5.73423 17.7576 2.70802C17.9388 2.41861 18.2103 2.196 18.5306 2.07409C18.851 1.95219 19.2027 1.93767 19.5321 2.03275C19.8529 2.08176 20.1495 2.23135 20.3788 2.45967C20.608 2.688 20.7578 2.98313 20.8063 3.30201C21.4387 6.80341 22.0523 10.3079 22.3543 13.8062ZM18.3082 8.80421C17.1525 10.2237 16.2423 11.8243 15.615 13.5405C15.3223 14.3877 15.7628 15.0567 16.5997 15.3912C17.8583 15.9008 19.0633 14.891 18.906 13.4092C18.7455 11.8804 18.5095 10.3486 18.3082 8.81359V8.80421Z" fill="#032640"/>
<path d="M97.2705 18.1862C97.3523 21.2655 95.4142 23.5446 92.7304 23.8478C91.4465 23.9769 90.1603 23.6251 89.1238 22.8612C88.0873 22.0973 87.3751 20.9764 87.1269 19.718C86.9066 18.6957 87.1646 17.7516 87.5516 16.8388C88.914 13.6093 90.7986 10.6675 92.6707 7.71947C92.8483 7.43295 93.1082 7.20584 93.4169 7.06741C93.7256 6.92897 94.0689 6.88554 94.4027 6.94271C94.7364 6.99989 95.0453 7.15506 95.2895 7.38822C95.5337 7.62138 95.7021 7.92185 95.7729 8.25094C96.3864 11.6492 96.9433 15.0537 97.2705 18.1862ZM93.2181 13.3905C92.2983 14.8643 91.4704 16.3928 90.7388 17.9673C90.3927 18.7083 90.3392 19.3992 90.9874 19.9931C91.2219 20.2386 91.5303 20.4018 91.8662 20.4582C92.2021 20.5145 92.5473 20.4611 92.85 20.3058C93.2006 20.166 93.4925 19.911 93.6769 19.5833C93.8612 19.2556 93.9269 18.8751 93.8631 18.505C93.6775 16.895 93.4541 15.2756 93.2181 13.3905Z" fill="#032640"/>
<path d="M102.39 38.51C102.465 41.6362 100.502 43.909 97.8308 44.1997C96.5644 44.3213 95.2974 43.9746 94.2722 43.2259C93.247 42.4772 92.5357 41.3791 92.2745 40.1419C92.083 39.1664 92.2132 38.1556 92.6457 37.2595C94.0081 33.9925 95.9147 31.007 97.8088 28.0464C97.9894 27.7619 98.2516 27.5377 98.5616 27.4025C98.8716 27.2674 99.2152 27.2275 99.5482 27.288C99.8812 27.3485 100.188 27.5067 100.43 27.7421C100.672 27.9776 100.837 28.2795 100.905 28.6091C101.512 32.0136 102.063 35.4244 102.39 38.51ZM98.2996 33.8206C97.2795 35.3993 96.4044 37.0661 95.685 38.8007C95.5831 39.0673 95.5693 39.3592 95.6456 39.6341C95.722 39.9091 95.8846 40.1526 96.1098 40.3294C96.3287 40.5648 96.6151 40.7277 96.9303 40.7959C97.2455 40.8641 97.5741 40.8344 97.8717 40.7109C98.2147 40.6037 98.5116 40.3853 98.7147 40.0905C98.9178 39.7957 99.0154 39.4417 98.9918 39.0852C98.8692 37.3195 98.6349 35.5633 98.2902 33.8268L98.2996 33.8206Z" fill="#032640"/>
<path d="M20.4731 25.9268C20.2718 28.1745 20.1333 30.4254 20.0075 32.6795C19.9363 33.8546 19.4357 34.9634 18.5996 35.7976C17.7636 36.6318 16.6497 37.1338 15.4674 37.2094C14.2881 37.2774 13.1232 36.9239 12.1832 36.213C11.2432 35.502 10.5902 34.4805 10.3421 33.3328C10.2191 32.834 10.2118 32.3139 10.3209 31.8118C10.4299 31.3098 10.6523 30.8389 10.9713 30.4348C12.8591 27.865 15.3919 25.9768 17.9404 24.1167C18.192 23.9426 18.4912 23.8494 18.7977 23.8494C19.1043 23.8494 19.4035 23.9426 19.6551 24.1167C20.2435 24.4574 20.5015 25.0389 20.4731 25.9268ZM16.6126 29.5626C15.6777 30.2646 14.8184 31.0608 14.0484 31.9385C13.4915 32.5263 13.6834 33.0108 14.2026 33.461C14.4029 33.6376 14.6488 33.7551 14.9127 33.8003C15.1765 33.8455 15.4479 33.8166 15.6961 33.7169C15.9443 33.6171 16.1596 33.4504 16.3176 33.2357C16.4757 33.0209 16.5702 32.7666 16.5906 32.5013C16.6515 31.5228 16.6578 30.5417 16.6095 29.5626H16.6126Z" fill="#032640"/>
<path d="M64.6472 74.7745C63.5146 74.4618 63.1244 73.6928 63.137 72.5548C63.1779 69.638 63.137 66.7212 63.137 63.8013C63.137 61.6129 63.4894 61.2597 65.6918 61.1409L72.9283 61.1753C74.4762 61.1753 75.0835 61.7567 75.0898 63.2511C75.0898 66.3773 75.0898 69.5119 75.0898 72.6549C75.0898 74.1523 74.4794 74.7307 72.9346 74.7369C70.1742 74.7557 67.4118 74.7682 64.6472 74.7745ZM66.5665 67.9655C66.5665 68.8471 66.6011 69.7287 66.5665 70.6072C66.5319 71.2324 66.7678 71.3887 67.3562 71.37C68.5612 71.3325 69.7662 71.3356 70.9713 71.37C71.5124 71.37 71.7201 71.2355 71.7075 70.6634C71.6739 68.8669 71.6739 67.0703 71.7075 65.2738C71.7075 64.7017 71.5124 64.5516 70.9713 64.5672C69.7662 64.5985 68.5612 64.6048 67.3562 64.5672C66.7678 64.5485 66.5319 64.711 66.5665 65.33C66.6011 66.2023 66.5665 67.0839 66.5665 67.9655Z" fill="#032640"/>
<path d="M56.3216 54.382C56.3248 54.7184 56.227 55.0482 56.0408 55.3292C55.8546 55.6102 55.5885 55.8298 55.2762 55.96C54.964 56.0902 54.6198 56.1251 54.2876 56.0602C53.9553 55.9953 53.65 55.8336 53.4106 55.5957C53.1712 55.3578 53.0084 55.0544 52.9431 54.7243C52.8778 54.3942 52.9129 54.0522 53.044 53.7419C53.175 53.4317 53.396 53.1672 53.6788 52.9822C53.9616 52.7972 54.2935 52.7001 54.6321 52.7032C55.0784 52.7089 55.5048 52.8876 55.8205 53.2012C56.1361 53.5148 56.3159 53.9385 56.3216 54.382Z" fill="#032640"/>
<path d="M54.5753 61.1815C54.9138 61.1728 55.2472 61.2644 55.5331 61.4447C55.819 61.625 56.0444 61.8857 56.1806 62.1937C56.3168 62.5018 56.3576 62.8431 56.2979 63.1742C56.2381 63.5054 56.0805 63.8114 55.8452 64.0532C55.6098 64.2951 55.3073 64.4618 54.9762 64.5322C54.6451 64.6027 54.3004 64.5735 53.9861 64.4486C53.6717 64.3237 53.4019 64.1086 53.2109 63.8307C53.02 63.5529 52.9167 63.2248 52.9141 62.8884C52.9122 62.4448 53.0849 62.0181 53.3953 61.6992C53.7056 61.3803 54.1291 61.1945 54.5753 61.1815Z" fill="#032640"/>
<path d="M56.3215 71.4388C56.3046 71.7744 56.1876 72.0975 55.9854 72.367C55.7833 72.6364 55.505 72.84 55.186 72.9519C54.8671 73.0638 54.5218 73.0789 54.1942 72.9953C53.8666 72.9117 53.5714 72.7332 53.3462 72.4824C53.1209 72.2317 52.9758 71.9201 52.9293 71.5872C52.8828 71.2543 52.9369 70.9152 53.0849 70.6129C53.2328 70.3107 53.4679 70.059 53.7602 69.8899C54.0525 69.7207 54.3888 69.6418 54.7264 69.6631C55.1726 69.6944 55.5889 69.8975 55.8868 70.2291C56.1847 70.5607 56.3407 70.9947 56.3215 71.4388Z" fill="#032640"/>
<path d="M54.6007 78.1414C54.9392 78.1383 55.2709 78.2354 55.5537 78.4202C55.8365 78.6051 56.0575 78.8694 56.1886 79.1794C56.3197 79.4895 56.355 79.8313 56.2899 80.1614C56.2249 80.4914 56.0625 80.7948 55.8234 81.0328C55.5843 81.2709 55.2793 81.4328 54.9472 81.498C54.6152 81.5633 54.2711 81.5288 53.9588 81.3992C53.6465 81.2695 53.3801 81.0503 53.1936 80.7697C53.007 80.4891 52.9087 80.1597 52.9112 79.8234C52.9153 79.3791 53.0945 78.9541 53.4104 78.6396C53.7263 78.3252 54.1536 78.1463 54.6007 78.1414Z" fill="#032640"/>
<path d="M56.322 88.3611C56.3123 88.6972 56.2022 89.0228 56.0057 89.2966C55.8092 89.5703 55.5352 89.7797 55.2185 89.8982C54.9019 90.0168 54.5569 90.039 54.2275 89.9621C53.898 89.8852 53.5991 89.7127 53.3687 89.4665C53.1382 89.2203 52.9867 88.9115 52.9334 88.5795C52.8801 88.2475 52.9274 87.9072 53.0693 87.602C53.2112 87.2967 53.4413 87.0404 53.7303 86.8655C54.0193 86.6906 54.3542 86.605 54.6922 86.6198C55.139 86.6409 55.5597 86.8349 55.8643 87.1604C56.1689 87.4858 56.3332 87.9168 56.322 88.3611Z" fill="#032640"/>
<path d="M54.6573 98.4873C54.3189 98.4953 53.9858 98.4031 53.7003 98.2225C53.4149 98.0418 53.1899 97.7808 53.0542 97.4727C52.9185 97.1647 52.8781 96.8234 52.9382 96.4925C52.9983 96.1615 53.1562 95.8558 53.3917 95.6143C53.6272 95.3727 53.9297 95.2063 54.2607 95.1361C54.5917 95.066 54.9363 95.0953 55.2505 95.2204C55.5647 95.3454 55.8343 95.5605 56.0251 95.8383C56.2158 96.1161 56.3191 96.444 56.3217 96.7803C56.3235 97.2244 56.1504 97.6516 55.8394 97.9706C55.5283 98.2896 55.1041 98.475 54.6573 98.4873Z" fill="#032640"/>
</svg>
