<svg width="78" height="101" viewBox="0 0 78 101" fill="none" xmlns="http://www.w3.org/2000/svg">
<path d="M5.35375 100.452C5.30971 100.305 5.187 100.286 5.058 100.245C1.66315 99.1415 0.0239332 96.8902 0.0239332 93.3381C0.0239332 87.1512 0.0239332 80.9643 0.0239332 74.7774C0.0239332 64.6184 0.0428117 54.4532 0.00505623 44.2973C-0.0309763 43.4373 0.125932 42.5801 0.464407 41.7879C0.802883 40.9956 1.31445 40.2881 1.96205 39.7165C2.91946 38.869 3.68533 37.8294 4.20919 36.6663C4.73306 35.5033 5.00305 34.2431 5.00137 32.9689C5.04227 29.1604 5.02025 25.3489 5.0234 21.5404C5.0234 17.6163 6.71925 15.3493 10.4822 14.2268C13.9872 13.1825 17.4859 12.1256 20.9971 11.1C21.6264 10.9187 21.9001 10.6654 21.8561 9.96186C21.7837 8.79556 21.8215 7.61676 21.8403 6.44733C21.8844 3.80205 23.5267 1.8478 26.1319 1.41005C34.3826 0.0101272 42.8124 0.0101272 51.0631 1.41005C53.6588 1.8478 55.3169 3.81143 55.3641 6.44733C55.3861 7.69805 55.3924 8.92376 55.3641 10.1588C55.3641 10.6779 55.5277 10.8749 56.0311 11.0218C59.6682 12.0818 63.2927 13.17 66.9173 14.2675C70.4285 15.3306 72.1842 17.6892 72.1842 21.3434C72.1842 24.958 72.2219 28.5726 72.1842 32.1872C72.1432 35.2608 73.1658 37.8498 75.4626 39.9229C76.0288 40.4188 76.4782 41.0325 76.7789 41.7204C77.0796 42.4083 77.2242 43.1536 77.2025 43.9033C77.1899 60.4775 77.1899 77.0496 77.2025 93.6195C77.2025 97.1685 75.0945 99.6167 71.5769 100.302C71.5329 100.302 71.5046 100.395 71.4699 100.445L5.35375 100.452ZM65.5234 27.003C66.3541 27.2406 67.2067 27.0499 68.0405 27.1186C68.6383 27.1687 68.8428 26.9216 68.8334 26.3307C68.805 24.5453 68.8522 22.7599 68.8145 20.9776C68.783 19.4986 68.1538 18.3261 66.7285 17.7414C65.7081 17.314 64.6435 16.9994 63.5539 16.8033C60.6813 15.9278 57.8024 15.0648 54.9362 14.1612C54.4359 14.0048 54.3069 14.2737 54.1119 14.5895C53.19 16.1248 52.2776 17.6694 51.3368 19.1922C49.7322 21.7812 48.2881 24.464 46.4255 27.053C49.5434 27.053 52.5198 27.053 55.4962 27.053C58.8439 27.0467 62.1852 27.0217 65.5234 27.003ZM70.4443 88.5322C69.3084 87.9725 68.2796 87.2815 67.7322 86.0964C67.6527 85.8737 67.4988 85.6848 67.2961 85.5613C67.0934 85.4378 66.8541 85.3872 66.6184 85.4179C58.1297 85.4346 49.642 85.4346 41.1554 85.4179C40.4664 85.4179 40.2682 85.6149 40.2745 86.2965C40.3059 89.586 40.3122 92.8628 40.2745 96.1647C40.2745 96.9183 40.4601 97.1497 41.2467 97.1434C47.6682 97.1122 54.093 97.1434 60.5177 97.1247C63.4343 97.1247 66.3509 97.1028 69.2644 97.0934C69.557 97.0934 69.8496 97.1278 70.1422 97.1278C72.4359 97.1278 73.7951 95.7864 73.8108 93.5257C73.8108 92.275 73.773 90.9993 73.8265 89.7392C73.858 89.0044 73.6786 88.6729 72.8826 88.748C72.0643 88.8288 71.2379 88.7545 70.4474 88.5291L70.4443 88.5322ZM65.5234 30.4925C65.4917 30.4828 65.459 30.4765 65.4259 30.4737C58.3803 30.4612 51.3347 30.4456 44.2891 30.4268C43.6599 30.4268 43.6347 30.7614 43.6378 31.2241C43.6378 33.0815 43.6378 34.9357 43.6378 36.793C43.6378 38.4846 43.1344 40.0918 41.6588 40.9297C40.3091 41.6958 40.1266 42.6651 40.2776 43.944C40.2962 44.0736 40.2962 44.2052 40.2776 44.3348C40.1297 45.1916 40.4695 45.423 41.3442 45.4198C49.5686 45.3854 57.7962 45.4011 66.0206 45.3979C67.493 45.3979 68.9686 45.3698 70.4254 45.3542L73.1658 45.3886C73.4804 45.3886 73.7667 45.3886 73.7793 44.9633C73.8076 43.9252 73.8422 42.9684 72.8984 42.1492C70.9929 40.4406 69.6673 38.1869 69.1039 35.6986C68.739 34.229 68.7893 32.7344 68.8113 31.246C68.8113 30.6738 68.6666 30.408 68.0436 30.4487C67.2193 30.4862 66.3698 30.4737 65.5234 30.4925ZM70.4097 48.7999C70.0195 48.778 69.6294 48.7405 69.2361 48.7405H44.9687C43.6913 48.7405 42.4139 48.7593 41.1365 48.7405C40.5325 48.7405 40.2682 48.8937 40.2713 49.566C40.2986 54.0582 40.2986 58.5493 40.2713 63.0394C40.2713 63.5897 40.4444 63.8273 40.9981 63.7523C41.0966 63.7458 41.1954 63.7458 41.2939 63.7523C49.7112 63.7523 58.1276 63.7523 66.5429 63.7523C66.9393 63.7523 67.3735 63.8899 67.6126 63.3364C68.1695 62.0388 69.2392 61.254 70.4914 60.6818C71.3519 60.4752 72.2374 60.3899 73.1217 60.4285C73.5213 60.4535 73.8108 60.4003 73.8108 59.875C73.7961 56.3584 73.7961 52.8418 73.8108 49.3252C73.8108 48.9219 73.6755 48.6998 73.2476 48.7342C72.3037 48.7624 71.3504 48.6217 70.4097 48.7999ZM20.0941 48.7718C14.8524 48.7718 9.61069 48.7905 4.36267 48.753C3.53205 48.753 3.33069 48.9906 3.34327 49.7911C3.39047 52.9804 3.39676 56.1729 3.34327 59.3623C3.34327 60.2253 3.54464 60.4754 4.4193 60.4316C6.7161 60.3128 8.50949 61.2227 9.54776 63.3177C9.78373 63.7929 10.133 63.7429 10.52 63.7429C19.015 63.7429 27.4911 63.7429 35.9766 63.7585C36.7191 63.7585 36.9205 63.5522 36.9016 62.8205C36.8681 58.4576 36.8681 54.0946 36.9016 49.7317C36.9016 48.9688 36.6971 48.7405 35.9168 48.7436C30.6437 48.7874 25.3736 48.7718 20.0941 48.7718ZM20.1099 45.3979H34.0605C37.1596 45.3979 37.1502 45.3979 36.8922 42.2711C36.8905 42.1133 36.8414 41.9597 36.7511 41.8298C36.6608 41.7 36.5336 41.6 36.3856 41.5426C34.3877 40.4982 33.5068 38.8035 33.5225 36.5929C33.5225 34.8669 33.4785 33.1534 33.5445 31.418C33.576 30.5769 33.2897 30.4049 32.4937 30.408C24.9615 30.4362 17.4292 30.4268 9.897 30.4268C8.35846 30.4268 8.32386 30.4268 8.36476 31.9902C8.48117 35.9456 7.1849 39.3413 4.30604 42.0835C3.98273 42.3747 3.72757 42.7328 3.55851 43.1326C3.38945 43.5323 3.31061 43.9641 3.32754 44.3974C3.32754 45.2353 3.58554 45.4073 4.38155 45.4011C9.64215 45.3792 14.8713 45.3979 20.1099 45.3979ZM23.4324 67.0792C19.273 67.0792 15.1104 67.0792 10.951 67.0792C10.2903 67.0792 10.048 67.2168 10.0543 67.9297C10.0879 72.3906 10.0879 76.8515 10.0543 81.3124C10.0543 81.9565 10.2368 82.1254 10.8755 82.1223C19.2656 82.1014 27.6557 82.1014 36.0458 82.1223C36.7475 82.1223 36.9142 81.9065 36.9111 81.2405C36.8838 76.8442 36.8838 72.449 36.9111 68.0548C36.9111 67.2793 36.6908 67.0698 35.92 67.0761C31.7543 67.098 27.5949 67.0792 23.4324 67.0792ZM53.6368 82.0879C57.8308 82.0879 62.0248 82.0691 66.2219 82.1066C66.9676 82.1066 67.1438 81.9096 67.1375 81.1874C67.1018 76.7932 67.1018 72.3979 67.1375 68.0016C67.1375 67.3043 67.0085 67.0636 66.2345 67.0636C57.9136 67.0928 49.5917 67.0928 41.2687 67.0636C40.4853 67.0636 40.2808 67.2856 40.2839 68.0485C40.3175 72.4115 40.3175 76.7744 40.2839 81.1373C40.2839 81.8971 40.4758 82.1223 41.2561 82.1129C45.3715 82.0754 49.4994 82.0941 53.6273 82.0941L53.6368 82.0879ZM21.2834 97.1216C26.1979 97.1216 31.1156 97.1216 36.0301 97.1216C36.6059 97.1216 36.9111 97.0559 36.9048 96.3492C36.8702 92.9629 36.8765 89.5766 36.9048 86.1871C36.9048 85.5993 36.7349 85.4054 36.1276 85.4054C27.5425 85.4221 18.9562 85.4221 10.3689 85.4054C10.0858 85.4054 9.80891 85.3585 9.63271 85.7181C8.51893 88.0382 6.5871 88.9106 4.09209 88.7261C3.53834 88.6854 3.34642 88.8762 3.35901 89.439C3.39361 90.7397 3.35901 92.0436 3.35901 93.3475C3.35901 95.7833 4.6773 97.0997 7.11882 97.0997C11.8425 97.1184 16.564 97.1257 21.2834 97.1216ZM30.6688 26.9623C30.1811 26.2338 29.6652 25.5271 29.2152 24.7735C27.2037 21.4633 25.2058 18.1458 23.2215 14.8209C22.8755 14.2362 22.5703 14.0361 21.8498 14.2612C18.2976 15.3712 14.7203 16.4031 11.1524 17.4787C9.20482 18.0665 8.38049 19.1703 8.36161 21.2059C8.34588 22.8318 8.40566 24.4609 8.33959 26.0837C8.30498 26.9217 8.60073 27.1061 9.39674 27.103C16.2053 27.0749 23.0107 27.103 29.8193 27.0811C30.0931 27.0905 30.4077 27.2031 30.6688 26.9623ZM49.8612 4.57438C42.4033 3.42004 34.8105 3.42004 27.3526 4.57438C32.2713 8.64691 36.126 13.8412 38.588 19.7144C41.058 13.839 44.9214 8.64464 49.8486 4.57438H49.8612ZM51.9975 7.16024C45.9504 12.5852 41.4229 18.6075 40.3563 26.8341C41.3147 26.5886 42.2136 26.154 42.9995 25.5561C43.7855 24.9583 44.4423 24.2093 44.931 23.354C47.1606 19.6477 49.3945 15.9424 51.6326 12.2382C51.8238 12.0151 51.9481 11.7432 51.9912 11.4534C51.985 10.0994 51.985 8.74866 51.985 7.16024H51.9975ZM25.2132 7.16024C25.2603 9.5116 24.7192 11.716 26.3521 13.5671C26.5857 13.881 26.791 14.2148 26.9656 14.5645C28.7464 17.5162 30.5209 20.4742 32.3143 23.4196C33.4785 25.327 35.2781 26.6184 36.8261 26.6559C35.7375 18.5825 31.2226 12.5727 25.2006 7.16337L25.2132 7.16024ZM6.71925 74.6492C6.71925 71.7871 6.71925 68.9251 6.71925 66.063C6.71925 64.2901 6.14662 63.7836 4.36267 63.7179C3.50374 63.6866 3.35271 63.9962 3.35586 64.7716C3.38418 71.3098 3.37159 77.8448 3.37159 84.3829C3.37159 84.5768 3.37159 84.7738 3.37159 84.9677C3.35854 85.0622 3.37989 85.1582 3.43181 85.2385C3.48373 85.3188 3.5628 85.378 3.65476 85.4054C5.2279 85.9901 6.70666 85.0083 6.71295 83.3292C6.72554 80.44 6.71925 77.5446 6.71925 74.6492ZM73.8076 74.6117C73.8076 71.2629 73.8076 67.9109 73.8076 64.5621C73.8076 64.2495 73.9713 63.8523 73.3986 63.7367C71.536 63.3646 70.4663 64.1994 70.4663 66.0818C70.4663 71.71 70.4663 77.3383 70.4663 82.9665C70.4663 84.9645 70.9697 85.4304 72.9519 85.4461C73.6409 85.4461 73.836 85.2522 73.8297 84.5706C73.7888 81.2374 73.8076 77.9292 73.8076 74.6117ZM36.8859 34.007C36.8859 34.4614 36.8859 34.9159 36.8859 35.3703C36.8859 35.8581 36.8702 36.3458 36.8859 36.8305C36.9362 38.0218 37.5466 38.7066 38.5503 38.7222C39.554 38.7379 40.2524 38.0374 40.2776 36.7961C40.3059 35.4985 40.2776 34.1977 40.2776 32.9001C40.2776 30.2955 40.2776 30.3142 37.6284 30.383C36.9992 30.383 36.8419 30.6019 36.8639 31.1804C36.9142 32.1215 36.8859 33.0658 36.8859 34.007Z" fill="#032640"/>
</svg>
