<svg width="97" height="97" viewBox="0 0 97 97" fill="none" xmlns="http://www.w3.org/2000/svg">
<path d="M0.560547 25.4897C0.560547 24.2965 0.560547 23.1033 0.560547 21.9415C0.968747 20.7797 0.874548 19.5237 1.12575 18.3619C1.37695 17.2629 1.56535 16.2267 0.560547 15.3789C0.560547 14.6253 0.560547 13.8717 0.560547 13.1181C0.811747 13.0553 0.748948 12.8355 0.780348 12.6471C1.28275 10.2921 2.25615 8.15689 3.79475 6.30429C4.04595 6.02169 4.26575 5.61349 4.61115 5.58209C5.67875 5.51929 5.96135 4.64009 6.46375 3.98069C6.87195 3.44689 7.24875 2.94449 7.65695 2.44209C8.97575 0.872094 10.2631 0.589493 12.1157 1.43729C13.3089 1.97109 14.5335 2.44209 15.7581 2.85029C23.5453 5.39369 31.5837 6.30429 39.6849 6.71249C47.8803 7.15209 56.1071 7.05789 64.2711 6.17869C71.4617 5.42509 78.5895 4.26329 85.2777 1.21749C86.6593 0.589494 87.9781 0.934893 89.0143 2.06529C89.5481 2.66189 90.0191 3.32129 90.5216 3.98069C91.0239 4.64009 91.3065 5.51929 92.3741 5.58209C92.5625 5.58209 92.7823 5.83329 92.9393 6.02169C95.1059 8.47089 96.2363 11.3283 96.4247 14.5939C96.4561 15.1905 96.362 15.7243 95.891 16.1011C95.5456 16.3837 95.5769 16.6349 95.6397 16.9803C96.0793 19.3981 96.3619 21.8473 96.4247 24.3279C96.4875 26.2119 95.2943 27.5307 93.4103 27.7191C92.2171 27.8447 91.0554 27.9075 89.8621 28.0331C84.116 28.6925 78.5267 29.9799 73.3457 32.7117C68.6671 35.1609 64.8991 38.5207 62.7953 43.5133C61.0997 47.5639 61.0998 51.7715 61.4765 56.0419C61.5393 56.7641 62.0103 56.6699 62.45 56.6699C69.8918 56.7955 77.1138 58.1771 84.116 60.7205C91.4322 63.3581 95.0746 68.8531 96.2049 76.2949C96.6759 79.3721 96.2049 82.4807 96.4561 85.5579C96.6132 87.8501 95.577 89.2003 93.7557 90.2365C93.2533 90.5191 92.7195 90.8017 92.1857 91.0529C88.7317 92.5601 85.0893 93.3765 81.4156 94.0045C74.6331 95.1977 67.7566 95.7943 60.88 96.1397C47.8803 96.7677 34.9435 96.4851 22.0067 94.9465C16.9513 94.3499 11.9273 93.5649 7.12315 91.9321C4.57975 91.0843 2.06775 90.1423 0.591946 87.6617C0.591946 83.9251 0.591946 80.1571 0.591946 76.4205C1.03155 75.4785 1.06295 74.4109 1.34555 73.4061C2.94695 67.9111 6.02415 63.6721 11.3935 61.3485C14.3765 60.0611 17.4851 59.1819 20.6251 58.4283C25.2409 57.3607 29.9509 56.7327 34.6923 56.7013C35.2889 56.7013 35.5401 56.5129 35.5401 55.9163C35.5715 55.0057 35.6657 54.1265 35.6971 53.2159C35.9797 46.9987 34.3469 41.5037 29.7939 37.0763C26.4341 33.8107 22.3521 31.8011 17.9876 30.3567C13.3089 28.8181 8.50475 28.0959 3.60635 27.7505C2.38175 27.6563 1.50255 27.0283 0.937348 25.9607C0.811748 25.8351 0.843147 25.5525 0.560547 25.4897ZM84.6811 8.50229C85.686 8.34529 86.5651 7.87429 87.4757 7.46609C88.7003 6.93229 88.7317 6.90089 87.9153 5.83329C86.4081 3.88649 87.0675 3.94929 84.6183 5.07969C83.1425 5.58209 81.6667 6.11589 80.1909 6.52409C70.9594 9.13029 61.5079 9.91529 51.9623 10.1037C43.7669 10.2607 35.6029 9.97809 27.5017 8.78489C22.3521 8.03129 17.2653 6.96369 12.3983 5.04829C11.6761 4.76569 10.9853 3.91789 10.2317 4.38889C9.60375 4.79709 9.22695 5.64489 8.72455 6.27289C8.34775 6.74389 8.41055 6.96369 8.97575 7.21489C11.2679 8.25109 13.5915 9.06749 16.0093 9.72689C23.2313 11.7365 30.6103 12.6471 38.0521 13.0239C49.8899 13.6205 61.6964 13.4321 73.4085 11.3911C77.0824 10.7631 80.7561 9.97809 84.2415 8.59649C84.4299 8.65929 84.5869 8.65929 84.6811 8.50229ZM73.2201 29.2263C73.3143 29.1949 73.4085 29.1321 73.5027 29.1007C76.6427 27.7819 79.8769 26.6829 83.2053 25.9293C85.4661 25.4269 87.7897 25.1757 90.082 24.7675C90.8984 24.7361 91.6833 24.7047 92.4997 24.6733C93.0021 24.6419 93.2848 24.4849 93.222 23.8883C93.0649 22.1299 92.9393 20.3715 92.6881 18.6131C92.6254 18.1421 92.4055 18.0479 91.9973 18.2049C91.2123 18.5189 90.4587 18.8329 89.6737 19.1469C87.6013 19.7749 85.5289 20.4657 83.3937 20.9681C73.3771 23.4487 63.1721 24.2651 52.9043 24.4849C44.3635 24.6733 35.8228 24.3907 27.3133 23.3859C19.7145 22.4753 12.2099 21.1251 5.08215 18.2049C4.61115 18.0165 4.39135 18.0165 4.29715 18.6131C4.04595 20.3401 3.95175 22.0985 3.79475 23.8255C3.73195 24.3907 3.95175 24.5791 4.48555 24.6419C6.02415 24.7675 7.59415 24.8931 9.13275 25.1129C15.0987 25.9293 20.8449 27.4993 26.1201 30.5451C32.5571 34.2503 37.0473 39.4627 38.4917 46.9359C39.2767 50.9865 38.9942 55.0057 38.3975 59.0563C37.6125 64.2373 35.9483 69.0729 32.8397 73.3747C27.0621 81.3503 15.4755 86.6883 4.29715 81.7585C4.17155 81.6957 4.01455 81.6957 3.79475 81.6643C3.79475 83.0773 3.85755 84.4589 3.76335 85.8405C3.70055 86.6883 4.07735 87.1593 4.76815 87.5361C6.71495 88.5723 8.78735 89.2003 10.9225 89.7341C18.4585 91.6495 26.1515 92.4345 33.8759 92.8741C41.2863 93.3137 48.6967 93.4079 56.1385 93.1567C63.7374 92.9055 71.3362 92.4031 78.8721 91.2099C81.9179 90.7389 84.9638 90.2051 87.8839 89.1689C88.041 89.1689 88.2293 89.1689 88.3235 89.0119C88.3549 89.0119 88.3863 89.0119 88.4177 88.9805C89.9877 88.6665 91.4321 88.0385 92.7823 87.1907C93.0649 87.0023 93.3161 86.7825 93.3161 86.3743C93.2847 84.9613 93.3161 83.5169 93.3161 82.1039C93.3161 81.6957 93.1905 81.6015 92.8137 81.7585C91.9345 82.1039 91.0239 82.4493 90.1447 82.7947C89.9249 82.8261 89.7051 82.8575 89.5167 82.9203C86.5023 83.6739 83.4566 83.9251 80.348 83.3913C77.7418 82.9203 75.324 82.0097 72.9375 80.9421C72.7805 80.8479 72.655 80.7223 72.4979 80.6281C68.2276 78.2731 64.9305 74.9761 62.5756 70.7057C58.9331 64.1117 57.8341 56.9839 58.3051 49.5735C58.7761 42.3515 62.2301 36.7623 67.9763 32.4919C69.5777 31.2359 71.4303 30.2939 73.2201 29.2263ZM48.477 21.3763C53.2183 21.3763 57.9597 21.1879 62.7011 20.8425C68.9811 20.4029 75.2297 19.5865 81.3841 18.1735C85.215 17.2943 88.9515 16.1325 92.5312 14.4369C93.0649 14.1857 93.2533 13.9031 93.1277 13.3065C92.8765 12.0819 92.4055 10.9201 91.809 9.82109C91.4949 9.22449 91.2123 9.22449 90.6471 9.50709C88.3549 10.7317 85.9371 11.6423 83.4566 12.3959C74.3192 15.1591 64.8991 16.1325 55.4163 16.4465C45.4625 16.7605 35.5087 16.5721 25.6491 15.0335C18.9295 13.9973 12.3355 12.6157 6.27535 9.41289C5.89855 9.22449 5.67875 9.19309 5.42755 9.60129C4.70535 10.7945 4.20295 12.0505 3.95175 13.4321C3.85755 13.9973 4.04595 14.2799 4.54835 14.4997C5.42755 14.8451 6.24395 15.2847 7.12315 15.5987C13.6857 18.1421 20.5309 19.3981 27.4703 20.2459C34.4412 21.0623 41.4434 21.3763 48.477 21.3763ZM64.2083 66.8749C64.8363 68.7903 66.3436 71.2081 68.2275 73.2491C73.8482 79.3721 83.1425 82.7005 91.8717 78.6499C93.2219 78.0219 93.2533 78.0533 93.0649 76.5461C92.7823 74.3167 92.3113 72.5269 89.6423 71.6791C84.9323 70.1719 80.1909 68.9787 75.324 68.2251C71.6815 67.6285 68.0077 67.1889 64.2083 66.8749ZM32.8711 66.9063C32.4943 66.9377 32.2118 66.9377 31.9606 66.9377C28.9461 67.2203 25.9317 67.5657 22.9487 68.0053C17.5165 68.8217 12.1785 69.9207 6.99755 71.8675C5.33335 72.4955 4.42275 73.3747 4.20295 75.1017C4.10875 75.9181 3.98315 76.7031 3.82615 77.4881C3.76335 77.8649 3.92035 78.0533 4.23435 78.2103C7.18595 79.6861 10.2945 80.5967 13.5915 80.4397C19.3692 80.1571 24.299 77.8335 28.3496 73.6887C30.2649 71.7419 31.7721 69.5125 32.8711 66.9063ZM7.75115 68.1937C8.34775 68.0053 8.91295 67.8169 9.50955 67.6599C17.1083 65.3991 24.8955 64.3629 32.7456 63.7349C33.6875 63.6721 34.2841 63.4209 34.4097 62.4161C34.4725 61.8823 34.6295 61.3799 34.7551 60.8775C34.9436 60.2495 34.8493 59.9041 34.0329 59.9669C32.9653 60.0297 31.9291 60.0611 30.8615 60.1553C24.5501 60.5949 18.4271 62.0393 12.5553 64.3629C10.6085 65.0851 8.97575 66.3411 7.75115 68.1937ZM89.2655 68.0681C88.0723 66.4039 86.5023 65.1793 84.6497 64.4257C78.1813 61.7567 71.3989 60.3437 64.4281 59.9669C61.9789 59.8413 62.0417 59.8727 62.5756 62.2591C62.7953 63.2639 63.2663 63.6407 64.3025 63.7035C68.6985 63.9861 73.0318 64.5513 77.365 65.3049C81.3842 65.9643 85.3406 66.9063 89.2655 68.0681Z" fill="#032640"/>
</svg>
