<svg width="79" height="107" viewBox="0 0 79 107" fill="none" xmlns="http://www.w3.org/2000/svg">
<path d="M68.5409 0.499512C68.3144 11.3353 69.9756 21.8943 73.8676 31.9939C74.9531 34.7783 75.2481 37.8085 74.7202 40.75C73.2478 50.0945 73.1188 59.5082 73.8456 68.9377C74.5225 78.1237 76.1999 87.2084 78.8482 96.0304C79.0527 96.7037 78.7569 96.9365 78.2724 97.2228C73.7197 99.9161 68.7958 101.716 63.7208 103.088C52.3375 106.158 40.7717 106.863 29.0612 105.639C20.5348 104.742 12.3041 102.741 4.47925 99.1893C3.16993 98.5878 1.89479 97.9145 0.659647 97.1725C0.168825 96.8799 0.0115137 96.6345 0.190852 96.0493C2.33083 88.9814 3.83238 81.7358 4.67746 74.3996C5.68823 65.9576 5.87894 57.4375 5.24694 48.9587C4.93231 44.8685 4.45093 40.8192 3.74616 36.7888C3.66953 36.3486 3.72424 35.8956 3.90347 35.4863C6.65568 28.8188 8.5778 21.8384 9.62658 14.7019C10.3009 10.0021 10.6018 5.25627 10.5264 0.50895H30.9773C30.9773 7.74542 31.0182 14.9567 30.9773 22.1806C30.9522 27.2147 34.5704 30.8015 38.9563 31.157C43.1944 31.4999 47.5237 28.0547 47.9264 23.8198C48.0302 22.7218 48.0585 21.6174 48.0617 20.5257C48.0743 13.8534 48.09 7.18119 48.1089 0.50895L68.5409 0.499512ZM50.3427 35.8261C50.4155 35.98 50.5109 36.1221 50.6259 36.2477C51.5698 36.9934 51.1104 37.4275 50.3553 37.975C41.8603 44.1449 29.3696 41.7097 23.7346 32.7836C21.6328 29.4517 20.7299 25.824 20.7487 21.9163C20.7739 16.253 20.7487 10.5645 20.7739 4.88859C20.7739 4.10831 20.5537 3.88492 19.7891 3.91324C18.2443 3.96987 16.69 3.9919 15.1452 3.91324C14.1698 3.85975 13.8363 4.13033 13.8395 5.14344C13.7955 8.78835 13.4726 12.4246 12.8736 16.0202C11.8317 22.7792 10.0202 29.3969 7.47452 35.7443C7.27898 36.1466 7.19945 36.5955 7.24484 37.0406C7.78915 40.5738 8.24221 44.1166 8.55684 47.6782C9.18172 55.0164 9.18909 62.3942 8.57887 69.7337C8.08528 75.936 7.13887 82.094 5.7472 88.1584C5.57101 88.9261 5.7472 89.2092 6.44253 89.5207C13.2134 92.5443 20.3303 94.3125 27.6517 95.2312C35.9202 96.2791 44.2914 96.223 52.5452 95.0645C59.3259 94.1568 65.955 92.3474 72.2567 89.6843C73.2415 89.2627 73.4554 88.8254 73.2163 87.7965C71.3664 79.6464 70.3126 71.3357 70.07 62.9817C69.7784 54.7965 70.2874 46.6024 71.5897 38.5162C71.8213 37.2467 71.6882 35.9375 71.2058 34.7406C68.876 28.8616 67.2097 22.7408 66.2378 16.4921C65.6191 12.6219 65.2555 8.71524 65.1492 4.79735C65.1303 4.13348 64.9101 3.91953 64.2431 3.93841C62.629 3.98246 61.0087 4.00448 59.3946 3.93841C58.5074 3.90065 58.2305 4.11775 58.2399 5.06164C58.2903 10.8068 58.2399 16.5519 58.2714 22.297C58.3299 26.0664 57.2689 29.7684 55.2227 32.9346C54.1812 34.555 54.1875 34.5613 52.6805 33.5293C52.447 33.2823 52.1945 33.054 51.9253 32.8465C51.4912 32.5571 51.4502 32.318 51.7806 31.8806C54.0082 28.9451 54.908 25.588 54.8891 21.9446C54.864 16.7847 54.8891 11.6217 54.8891 6.45859C54.8891 3.92268 54.8891 3.94155 52.3973 3.94155C51.6327 3.94155 51.4219 4.12719 51.4251 4.91061C51.4628 10.6211 51.444 16.3348 51.444 22.0453C51.4601 23.0421 51.3864 24.0382 51.2237 25.0217C50.1508 30.8235 44.7077 34.9357 38.5095 34.555C32.8242 34.2089 27.8122 29.2063 27.6769 23.48C27.529 17.8167 27.6171 12.1251 27.6045 6.44915C27.6045 3.82514 27.6045 3.84087 24.9207 3.90065C24.3575 3.90065 24.1562 4.03594 24.1562 4.64318C24.1845 10.8036 24.0492 16.9641 24.2222 23.1214C24.3858 28.9388 27.1766 33.4034 32.2925 36.147C37.487 38.9346 42.7319 38.6326 47.7848 35.5744C49.2321 34.6934 49.2069 34.6682 50.3427 35.8261ZM38.884 102.773C42.7193 102.735 45.8782 102.625 49.0276 102.301C57.381 101.439 65.4607 99.5354 73.1408 96.0713C75.0915 95.1903 75.0758 95.1903 74.5126 93.1956C74.3615 92.6607 74.2231 92.4908 73.6222 92.752C64.8786 96.5967 55.6663 98.5034 46.1865 99.1421C36.8462 99.8169 27.4574 99.0969 18.3292 97.0057C13.9444 96.0149 9.66154 94.6172 5.5364 92.8306C5.28155 92.7173 4.93231 92.2297 4.61768 92.8621C3.77133 94.5579 3.96955 95.1652 5.68742 95.9643L5.96745 96.0933C16.6554 100.885 27.9254 102.732 38.884 102.773Z" fill="#032640"/>
</svg>
