<svg width="93" height="19" viewBox="0 0 93 19" fill="none" xmlns="http://www.w3.org/2000/svg">
<path d="M12.055 16.7057C10.855 17.839 9.28831 18.4057 7.35498 18.4057C5.42165 18.4057 3.85498 17.839 2.65498 16.7057C1.45498 15.5724 0.85498 14.0557 0.85498 12.1557V0.605712H2.60498V12.1557C2.60498 13.5557 3.02165 14.664 3.85498 15.4807C4.68831 16.2974 5.85498 16.7057 7.35498 16.7057C8.85498 16.7057 10.0216 16.2974 10.855 15.4807C11.6883 14.664 12.105 13.5557 12.105 12.1557V0.605712H13.855V12.1557C13.855 14.0557 13.255 15.5724 12.055 16.7057ZM28.1089 5.95571C29.5589 5.95571 30.7589 7.15571 30.7589 8.60571C30.7589 10.0807 29.5589 11.2807 28.1089 11.2807C26.6339 11.2807 25.4339 10.0807 25.4339 8.60571C25.4339 7.15571 26.6339 5.95571 28.1089 5.95571ZM48.4089 14.1807C49.0589 15.0474 49.6422 15.6557 50.1589 16.0057C50.6922 16.3557 51.1006 16.5307 51.3839 16.5307C51.6839 16.5307 51.9506 16.5057 52.1839 16.4557C52.4172 16.4057 52.6339 16.3474 52.8339 16.2807V18.0307C52.6506 18.1307 52.4006 18.2057 52.0839 18.2557C51.7839 18.3224 51.4839 18.3557 51.1839 18.3557C50.8339 18.3557 50.4506 18.2807 50.0339 18.1307C49.6172 17.9974 49.1589 17.7307 48.6589 17.3307C48.1589 16.914 47.5922 16.3057 46.9589 15.5057C46.3589 16.2724 45.8006 16.864 45.2839 17.2807C44.7839 17.6974 44.3172 17.9807 43.8839 18.1307C43.4672 18.2807 43.0672 18.3557 42.6839 18.3557C42.3839 18.3557 42.0756 18.3224 41.7589 18.2557C41.4589 18.2057 41.2089 18.1307 41.0089 18.0307V16.2807C41.1089 16.314 41.3006 16.364 41.5839 16.4307C41.8672 16.4974 42.1256 16.5307 42.3589 16.5307C42.7589 16.5307 43.2089 16.364 43.7089 16.0307C44.2089 15.6807 44.7922 15.064 45.4589 14.1807C44.5922 13.264 43.8839 12.3474 43.3339 11.4307C42.8006 10.514 42.5339 9.59738 42.5339 8.68071C42.5339 7.88071 42.7172 7.17238 43.0839 6.55571C43.4506 5.92238 43.9589 5.42238 44.6089 5.05571C45.2756 4.68905 46.0589 4.50571 46.9589 4.50571C47.8589 4.50571 48.6339 4.68905 49.2839 5.05571C49.9506 5.42238 50.4589 5.92238 50.8089 6.55571C51.1756 7.17238 51.3589 7.88071 51.3589 8.68071C51.3589 9.31405 51.2172 9.95571 50.9339 10.6057C50.6506 11.239 50.2839 11.8557 49.8339 12.4557C49.4006 13.0557 48.9256 13.6307 48.4089 14.1807ZM65.731 5.95571C67.181 5.95571 68.381 7.15571 68.381 8.60571C68.381 10.0807 67.181 11.2807 65.731 11.2807C64.256 11.2807 63.056 10.0807 63.056 8.60571C63.056 7.15571 64.256 5.95571 65.731 5.95571ZM91.181 16.7057C89.981 17.839 88.4143 18.4057 86.481 18.4057C84.5476 18.4057 82.981 17.839 81.781 16.7057C80.581 15.5724 79.981 14.0557 79.981 12.1557V0.605712H81.731V12.1557C81.731 13.5557 82.1476 14.664 82.981 15.4807C83.8143 16.2974 84.981 16.7057 86.481 16.7057C87.981 16.7057 89.1476 16.2974 89.981 15.4807C90.8143 14.664 91.231 13.5557 91.231 12.1557V0.605712H92.981V12.1557C92.981 14.0557 92.381 15.5724 91.181 16.7057Z" fill="#032640"/>
</svg>
