<svg width="35" height="32" viewBox="0 0 35 32" fill="none" xmlns="http://www.w3.org/2000/svg">
<path fill-rule="evenodd" clip-rule="evenodd" d="M13.9595 1.45386H2.47978C1.93119 1.45386 1.48647 1.90157 1.48647 2.45386V12.3536C1.48647 12.9058 1.93119 13.3536 2.47978 13.3536H13.9595C14.5081 13.3536 14.9528 12.9058 14.9528 12.3536V2.45386C14.9528 1.90157 14.5081 1.45386 13.9595 1.45386ZM2.47978 0.453857C1.3826 0.453857 0.493164 1.34929 0.493164 2.45386V12.3536C0.493164 13.4581 1.3826 14.3536 2.47978 14.3536H13.9595C15.0567 14.3536 15.9461 13.4581 15.9461 12.3536V2.45386C15.9461 1.34929 15.0567 0.453857 13.9595 0.453857H2.47978Z" fill="#0C2638"/>
<path fill-rule="evenodd" clip-rule="evenodd" d="M13.9596 1.85386H2.47988C2.15473 1.85386 1.88657 2.11996 1.88657 2.45386V12.3536C1.88657 12.6875 2.15473 12.9536 2.47988 12.9536H13.9596C14.2847 12.9536 14.5529 12.6875 14.5529 12.3536V2.45386C14.5529 2.11996 14.2847 1.85386 13.9596 1.85386ZM0.0932617 2.45386C0.0932617 1.13091 1.15926 0.0538635 2.47988 0.0538635H13.9596C15.2802 0.0538635 16.3462 1.13092 16.3462 2.45386V12.3536C16.3462 13.6765 15.2802 14.7536 13.9596 14.7536H2.47988C1.15926 14.7536 0.0932617 13.6765 0.0932617 12.3536V2.45386ZM2.47988 1.45386H13.9596C14.5082 1.45386 14.9529 1.90158 14.9529 2.45386V12.3536C14.9529 12.9059 14.5082 13.3536 13.9596 13.3536H2.47988C1.93129 13.3536 1.48657 12.9059 1.48657 12.3536V2.45386C1.48657 1.90158 1.93129 1.45386 2.47988 1.45386ZM0.493262 2.45386C0.493262 1.34929 1.3827 0.453864 2.47988 0.453864H13.9596C15.0568 0.453864 15.9462 1.34929 15.9462 2.45386V12.3536C15.9462 13.4581 15.0568 14.3536 13.9596 14.3536H2.47988C1.3827 14.3536 0.493262 13.4581 0.493262 12.3536V2.45386Z" fill="#032640"/>
<path fill-rule="evenodd" clip-rule="evenodd" d="M32.0401 1.45386H20.5603C20.0118 1.45386 19.567 1.90157 19.567 2.45386V12.3536C19.567 12.9058 20.0118 13.3536 20.5603 13.3536H32.0401C32.5887 13.3536 33.0334 12.9058 33.0334 12.3536V2.45386C33.0334 1.90157 32.5887 1.45386 32.0401 1.45386ZM20.5603 0.453857C19.4632 0.453857 18.5737 1.34929 18.5737 2.45386V12.3536C18.5737 13.4581 19.4632 14.3536 20.5603 14.3536H32.0401C33.1372 14.3536 34.0267 13.4581 34.0267 12.3536V2.45386C34.0267 1.34929 33.1372 0.453857 32.0401 0.453857H20.5603Z" fill="#0C2638"/>
<path fill-rule="evenodd" clip-rule="evenodd" d="M32.0402 1.85386H20.5604C20.2353 1.85386 19.9671 2.11996 19.9671 2.45386V12.3536C19.9671 12.6875 20.2353 12.9536 20.5604 12.9536H32.0402C32.3653 12.9536 32.6335 12.6875 32.6335 12.3536V2.45386C32.6335 2.11996 32.3653 1.85386 32.0402 1.85386ZM18.1738 2.45386C18.1738 1.13091 19.2398 0.0538635 20.5604 0.0538635H32.0402C33.3608 0.0538635 34.4268 1.13092 34.4268 2.45386V12.3536C34.4268 13.6765 33.3608 14.7536 32.0402 14.7536H20.5604C19.2398 14.7536 18.1738 13.6765 18.1738 12.3536V2.45386ZM20.5604 1.45386H32.0402C32.5888 1.45386 33.0335 1.90158 33.0335 2.45386V12.3536C33.0335 12.9059 32.5888 13.3536 32.0402 13.3536H20.5604C20.0119 13.3536 19.5671 12.9059 19.5671 12.3536V2.45386C19.5671 1.90158 20.0119 1.45386 20.5604 1.45386ZM18.5738 2.45386C18.5738 1.34929 19.4633 0.453864 20.5604 0.453864H32.0402C33.1373 0.453864 34.0268 1.34929 34.0268 2.45386V12.3536C34.0268 13.4581 33.1373 14.3536 32.0402 14.3536H20.5604C19.4633 14.3536 18.5738 13.4581 18.5738 12.3536V2.45386Z" fill="#032640"/>
<path fill-rule="evenodd" clip-rule="evenodd" d="M13.9595 17.9263H2.47978C1.93119 17.9263 1.48647 18.374 1.48647 18.9263V28.826C1.48647 29.3783 1.93119 29.826 2.47978 29.826H13.9595C14.5081 29.826 14.9528 29.3783 14.9528 28.826V18.9263C14.9528 18.374 14.5081 17.9263 13.9595 17.9263ZM2.47978 16.9263C1.3826 16.9263 0.493164 17.8217 0.493164 18.9263V28.826C0.493164 29.9305 1.3826 30.826 2.47978 30.826H13.9595C15.0567 30.826 15.9461 29.9305 15.9461 28.826V18.9263C15.9461 17.8217 15.0567 16.9263 13.9595 16.9263H2.47978Z" fill="#0C2638"/>
<path fill-rule="evenodd" clip-rule="evenodd" d="M13.9596 18.3263H2.47988C2.15473 18.3263 1.88657 18.5924 1.88657 18.9263V28.826C1.88657 29.1599 2.15473 29.426 2.47988 29.426H13.9596C14.2847 29.426 14.5529 29.1599 14.5529 28.826V18.9263C14.5529 18.5924 14.2847 18.3263 13.9596 18.3263ZM0.0932617 18.9263C0.0932617 17.6033 1.15926 16.5263 2.47988 16.5263H13.9596C15.2802 16.5263 16.3462 17.6033 16.3462 18.9263V28.826C16.3462 30.1489 15.2802 31.226 13.9596 31.226H2.47988C1.15926 31.226 0.0932617 30.1489 0.0932617 28.826V18.9263ZM2.47988 17.9263H13.9596C14.5082 17.9263 14.9529 18.374 14.9529 18.9263V28.826C14.9529 29.3783 14.5082 29.826 13.9596 29.826H2.47988C1.93129 29.826 1.48657 29.3783 1.48657 28.826V18.9263C1.48657 18.374 1.93129 17.9263 2.47988 17.9263ZM0.493262 18.9263C0.493262 17.8217 1.3827 16.9263 2.47988 16.9263H13.9596C15.0568 16.9263 15.9462 17.8217 15.9462 18.9263V28.826C15.9462 29.9306 15.0568 30.826 13.9596 30.826H2.47988C1.3827 30.826 0.493262 29.9305 0.493262 28.826V18.9263Z" fill="#032640"/>
<path fill-rule="evenodd" clip-rule="evenodd" d="M32.0401 17.9263H20.5603C20.0118 17.9263 19.567 18.374 19.567 18.9263V28.826C19.567 29.3783 20.0118 29.826 20.5603 29.826H32.0401C32.5887 29.826 33.0334 29.3783 33.0334 28.826V18.9263C33.0334 18.374 32.5887 17.9263 32.0401 17.9263ZM20.5603 16.9263C19.4632 16.9263 18.5737 17.8217 18.5737 18.9263V28.826C18.5737 29.9305 19.4632 30.826 20.5603 30.826H32.0401C33.1372 30.826 34.0267 29.9305 34.0267 28.826V18.9263C34.0267 17.8217 33.1372 16.9263 32.0401 16.9263H20.5603Z" fill="#0C2638"/>
<path fill-rule="evenodd" clip-rule="evenodd" d="M32.0402 18.3263H20.5604C20.2353 18.3263 19.9671 18.5924 19.9671 18.9263V28.826C19.9671 29.1599 20.2353 29.426 20.5604 29.426H32.0402C32.3653 29.426 32.6335 29.1599 32.6335 28.826V18.9263C32.6335 18.5924 32.3653 18.3263 32.0402 18.3263ZM18.1738 18.9263C18.1738 17.6033 19.2398 16.5263 20.5604 16.5263H32.0402C33.3608 16.5263 34.4268 17.6033 34.4268 18.9263V28.826C34.4268 30.1489 33.3608 31.226 32.0402 31.226H20.5604C19.2398 31.226 18.1738 30.1489 18.1738 28.826V18.9263ZM20.5604 17.9263H32.0402C32.5888 17.9263 33.0335 18.374 33.0335 18.9263V28.826C33.0335 29.3783 32.5888 29.826 32.0402 29.826H20.5604C20.0119 29.826 19.5671 29.3783 19.5671 28.826V18.9263C19.5671 18.374 20.0119 17.9263 20.5604 17.9263ZM18.5738 18.9263C18.5738 17.8217 19.4633 16.9263 20.5604 16.9263H32.0402C33.1373 16.9263 34.0268 17.8217 34.0268 18.9263V28.826C34.0268 29.9306 33.1373 30.826 32.0402 30.826H20.5604C19.4633 30.826 18.5738 29.9305 18.5738 28.826V18.9263Z" fill="#032640"/>
</svg>
