<svg width="116" height="149" viewBox="0 0 116 149" fill="none" xmlns="http://www.w3.org/2000/svg">
<path d="M67.9776 109.184C67.139 106.869 65.555 105.203 63.5362 104.339C59.9024 102.796 55.4924 104.092 52.0453 107.364C52.3869 106.469 52.6974 105.512 52.9768 104.494C53.753 100.327 53.0695 96.1602 51.0506 93.3516C49.7151 91.4381 47.7895 90.2345 45.6465 89.8951C40.8637 89.2164 36.1122 93.229 34.1249 99.1551C32.1369 93.1367 27.3228 89.1554 22.509 89.8965C20.3661 90.267 18.4407 91.5325 17.1053 93.4771C15.1178 96.3476 14.4969 100.36 15.3668 104.527C15.5221 105.329 15.7085 106.07 15.9881 106.78C12.6027 103.971 8.5652 102.86 5.14901 104.342C3.09931 105.237 1.54656 106.966 0.708153 109.25C-0.4594 112.46 -0.0678492 116.38 1.73368 120.052C4.34276 125.083 8.93938 128.2 13.2563 128.2C14.3744 128.2 15.4924 127.984 16.5483 127.551C18.598 126.656 20.1818 124.928 21.0202 122.705C22.0139 120.113 21.9205 116.965 20.8023 113.847C22.5105 115.174 24.4361 115.977 26.4238 115.977C26.7964 115.977 27.2002 115.946 27.5729 115.884C29.6847 115.575 31.6102 114.341 32.9455 112.427C33.4113 111.748 33.815 111.007 34.1256 110.205C34.4362 111.007 34.8089 111.748 35.2748 112.396C36.6104 114.309 38.536 115.544 40.6789 115.883C41.0516 115.945 41.4554 115.976 41.828 115.976C44.0641 115.976 46.2381 114.957 48.1014 113.259C46.7661 116.562 46.6421 119.926 47.6672 122.704C48.5058 124.957 50.0898 126.654 52.1396 127.549C53.1956 127.981 54.3137 128.197 55.4628 128.197C59.7487 128.197 64.3449 125.079 66.9534 120.048C68.7545 116.375 69.158 112.425 67.9776 109.184ZM15.2124 120.545C14.8398 121.564 14.2498 121.811 14.0634 121.873C12.3553 122.613 9.12529 120.762 7.32377 117.274C6.08134 114.774 6.11227 112.583 6.54699 111.317C6.79541 110.669 7.16807 110.206 7.63391 109.959C7.94448 109.959 8.19293 109.836 8.5035 109.836C10.3048 109.836 12.9137 111.595 14.4667 114.589C15.4917 116.687 15.8024 119.002 15.2124 120.545ZM27.852 108.909C27.4793 109.403 27.0756 109.711 26.5787 109.773C25.0258 109.958 22.3548 107.582 21.4539 103.292C20.8326 100.329 21.4536 98.1065 22.2299 96.9645C22.6026 96.4397 23.0374 96.0693 23.4722 96.0693C25.025 95.7914 27.7582 98.1987 28.628 102.551C29.2493 105.544 28.6283 107.798 27.852 108.909ZM46.7653 103.259C45.896 107.58 43.1321 109.957 41.6103 109.772C41.4239 109.741 40.927 109.68 40.3679 108.877C39.5914 107.766 39.0012 105.544 39.6222 102.55C40.4605 98.414 43.0381 96.0682 44.5599 96.0681L44.7773 96.0681C45.2121 96.068 45.6158 96.4075 45.9885 96.9013C46.9825 98.321 47.3242 100.821 46.7653 103.259ZM61.363 117.271C59.5619 120.759 56.3321 122.611 54.6239 121.87C54.4375 121.808 53.8474 121.562 53.4747 120.543C52.9777 119 53.1949 116.685 54.1886 114.586C55.7724 111.623 58.4121 109.864 60.2134 109.864C60.524 109.864 60.7414 109.956 61.052 109.956L61.083 109.956C61.5489 110.203 61.8905 110.635 62.139 111.314C62.605 112.549 62.6362 114.771 61.363 117.271ZM47.6986 128.476C43.5056 124 40.2131 115.945 34.0017 115.945C27.7592 115.946 24.654 124.125 20.2752 128.477C16.9834 131.842 11.4243 134.311 10.8656 138.91C10.462 142.243 12.6052 146.256 15.711 147.768C16.798 148.323 17.9471 148.539 19.1273 148.539C23.8169 148.539 29.0653 145.051 34.0034 145.051C39.0036 145.05 44.2213 148.445 48.9731 148.445C50.1222 148.445 51.2402 148.259 52.3272 147.766C54.998 146.562 57.2339 143.352 57.1095 140.45C56.8918 135.42 51.1461 132.241 47.6986 128.476ZM49.7491 142.148C49.5032 142.248 49.2376 142.29 48.9727 142.272C47.6683 142.272 45.6185 141.593 43.6619 140.945C40.8046 139.988 37.5435 138.877 34.003 138.878C30.4625 138.878 27.2016 140.02 24.3444 141.008C22.3879 141.656 20.3692 142.366 19.1269 142.366C18.7232 142.366 18.5679 142.366 18.4437 142.212C17.7604 141.873 16.9528 140.422 17.0459 139.65C17.2633 138.94 19.5304 137.15 20.6484 136.193C22.0148 135.206 23.4744 134.125 24.6856 132.829C26.3936 131.131 27.7911 129.187 29.1574 127.304C30.5549 125.39 32.884 122.118 34.002 122.118C35.2443 122.118 37.698 125.575 39.1889 127.612C40.4002 129.34 41.6736 131.099 43.1024 132.643C44.3137 133.939 45.5871 135.081 46.7673 136.192C48.4445 137.581 50.867 139.71 50.8981 140.636C50.8671 141.068 50.246 141.932 49.7491 142.148Z" fill="#D8DCE6"/>
<path d="M115.038 19.374C114.2 17.0592 112.615 15.3926 110.597 14.5286C106.963 12.9855 102.553 14.2821 99.1058 17.554C99.4474 16.6589 99.7579 15.702 100.037 14.6835C100.814 10.5168 100.13 6.35009 98.1112 3.54155C96.7756 1.62803 94.85 0.424433 92.7071 0.0850508C87.9242 -0.593684 83.1727 3.41898 81.1854 9.34507C79.1974 3.32662 74.3834 -0.654609 69.5696 0.0864229C67.4267 0.456923 65.5012 1.72248 64.1659 3.66702C62.1784 6.53753 61.5575 10.5499 62.4273 14.7166C62.5827 15.5191 62.769 16.2598 63.0486 16.9697C59.6632 14.1612 55.6257 13.0503 52.2096 14.532C50.1599 15.4272 48.6071 17.1557 47.7687 19.4397C46.6011 22.6497 46.9927 26.5695 48.7942 30.2422C51.4033 35.273 55.9999 38.39 60.3169 38.3898C61.4349 38.3897 62.5529 38.1736 63.6089 37.7414C65.6586 36.8462 67.2424 35.1177 68.0808 32.8954C69.0745 30.3028 68.9811 27.1546 67.8629 24.0373C69.5711 25.3644 71.4967 26.1668 73.4843 26.1667C73.857 26.1666 74.2607 26.1357 74.6334 26.074C76.7453 25.7652 78.6707 24.5305 80.0061 22.6169C80.4719 21.9378 80.8756 21.197 81.1861 20.3945C81.4967 21.197 81.8694 21.9377 82.3353 22.5859C83.6709 24.4994 85.5965 25.7338 87.7395 26.0732C88.1122 26.1349 88.5159 26.1658 88.8886 26.1657C91.1247 26.1656 93.2986 25.147 95.1619 23.4493C93.8267 26.7519 93.7027 30.1161 94.7277 32.8938C95.5664 35.1469 97.1504 36.8444 99.2002 37.7393C100.256 38.1713 101.374 38.3873 102.523 38.3873C106.809 38.387 111.405 35.2694 114.014 30.2384C115.815 26.5654 116.219 22.6147 115.038 19.374ZM62.273 30.7353C61.9004 31.7538 61.3103 32.0008 61.124 32.0625C59.4159 32.8033 56.1858 30.9517 54.3843 27.4641C53.1419 24.9641 53.1728 22.7728 53.6075 21.5073C53.856 20.8591 54.2286 20.3961 54.6945 20.1492C55.005 20.1492 55.2535 20.0257 55.564 20.0257C57.3654 20.0256 59.9742 21.7847 61.5273 24.7785C62.5523 26.8772 62.863 29.192 62.273 30.7353ZM74.9125 19.0986C74.5399 19.5925 74.1361 19.9011 73.6392 19.9629C72.0864 20.1482 69.4153 17.7718 68.5144 13.4817C67.8931 10.5187 68.5141 8.29643 69.2905 7.1544C69.6631 6.62968 70.0979 6.25928 70.5327 6.25926C72.0855 5.98139 74.8187 8.38865 75.6886 12.7405C76.3099 15.7343 75.6889 17.9874 74.9125 19.0986ZM93.8259 13.4493C92.9566 17.7704 90.1926 20.1471 88.6708 19.962C88.4845 19.9311 87.9876 19.8694 87.4285 19.067C86.652 17.9559 86.0618 15.7337 86.6827 12.7398C87.521 8.60395 90.0986 6.2581 91.6204 6.25801L91.8378 6.25799C92.2726 6.25797 92.6764 6.59745 93.0491 7.09126C94.043 8.51097 94.3848 11.011 93.8259 13.4493ZM108.424 27.4609C106.622 30.9487 103.393 32.8007 101.684 32.0601C101.498 31.9984 100.908 31.7515 100.535 30.733C100.038 29.1898 100.255 26.8749 101.249 24.7761C102.833 21.813 105.473 20.0536 107.274 20.0535C107.585 20.0535 107.802 20.1461 108.113 20.146L108.144 20.146C108.609 20.3929 108.951 20.825 109.2 21.504C109.666 22.7386 109.697 24.9608 108.424 27.4609ZM94.7591 38.6655C90.5661 34.1904 87.2736 26.135 81.0622 26.1353C74.8198 26.1357 71.7145 34.315 67.3358 38.6671C64.0439 42.0315 58.4849 44.501 57.9261 49.0999C57.5226 52.4333 59.6657 56.4455 62.7715 57.9577C63.8585 58.5132 65.0077 58.7292 66.1878 58.7291C70.8774 58.7288 76.1259 55.2408 81.0639 55.2405C86.0641 55.2402 91.2819 58.635 96.0336 58.6347C97.1827 58.6347 98.3008 58.4494 99.3877 57.9555C102.059 56.7516 104.294 53.5416 104.17 50.6403C103.952 45.6095 98.2066 42.4308 94.7591 38.6655ZM96.8097 52.3383C96.5637 52.4379 96.2982 52.4801 96.0333 52.4618C94.7289 52.4619 92.6791 51.783 90.7224 51.135C87.8651 50.1784 84.6041 49.0674 81.0636 49.0676C77.5231 49.0678 74.2622 50.21 71.405 51.1979C69.4484 51.8461 67.4298 52.5561 66.1875 52.5562C65.7837 52.5562 65.6284 52.5562 65.5042 52.4019C64.8209 52.0624 64.0134 50.6119 64.1065 49.8403C64.3238 49.1304 66.5909 47.3401 67.7089 46.3832C69.0753 45.3955 70.535 44.3151 71.7461 43.0188C73.4541 41.3211 74.8516 39.3766 76.218 37.4937C77.6154 35.5801 79.9445 32.3083 81.0626 32.3082C82.3049 32.3082 84.7586 35.7648 86.2494 37.8018C87.4608 39.5301 88.7342 41.2893 90.1629 42.8325C91.3742 44.1287 92.6476 45.2706 93.8278 46.3817C95.505 47.7705 97.9276 49.9 97.9587 50.8259C97.9277 51.258 97.3066 52.1223 96.8097 52.3383Z" fill="#D8DCE6"/>
</svg>
