<svg width="26" height="26" viewBox="0 0 26 26" fill="none" xmlns="http://www.w3.org/2000/svg">
<path fill-rule="evenodd" clip-rule="evenodd" d="M12.3609 7.9577C12.4728 7.82351 12.6115 7.71426 12.7682 7.63699C12.9248 7.55972 13.096 7.51615 13.2705 7.50908C13.4451 7.50201 13.6192 7.53161 13.7816 7.59596C13.944 7.66032 14.0911 7.75799 14.2134 7.8827L14.2809 7.9577L16.7384 10.9064H18.604C18.7352 10.9062 18.8649 10.9336 18.9848 10.9869C19.1046 11.0403 19.2118 11.1183 19.2994 11.216C19.3869 11.3136 19.4529 11.4287 19.4929 11.5536C19.5329 11.6785 19.5461 11.8105 19.5315 11.9408L19.474 12.4196L19.4115 12.8821L19.3603 13.2283L19.3009 13.6002L19.2334 13.9908L19.1572 14.3958L19.0722 14.8089C19.0272 15.0171 18.979 15.2258 18.9272 15.4327C18.7888 15.9817 18.6151 16.5211 18.4072 17.0477L18.269 17.3852L18.1353 17.6902L18.009 17.9614L17.9503 18.0827L17.7947 18.3889C17.5947 18.7702 17.2172 18.9952 16.8178 19.0277L16.7178 19.0314H9.91779C9.69927 19.0331 9.48441 18.9754 9.29616 18.8645C9.10791 18.7535 8.95336 18.5934 8.84904 18.4014L8.70404 18.1202L8.59154 17.8889C8.5715 17.8463 8.55171 17.8036 8.53216 17.7608L8.40716 17.4802C8.12181 16.8174 7.89023 16.1327 7.71466 15.4327C7.68075 15.2968 7.64824 15.1605 7.61716 15.0239L7.52841 14.6189L7.44904 14.2227L7.37904 13.8396L7.31654 13.4727L7.26216 13.1264L7.21591 12.8058L7.15966 12.3789L7.11841 12.0314C7.11481 11.9996 7.11127 11.9677 7.10779 11.9358C7.09468 11.813 7.10618 11.6888 7.1416 11.5705C7.17702 11.4522 7.23566 11.3421 7.31409 11.2466C7.39252 11.1512 7.48917 11.0724 7.5984 11.0147C7.70763 10.9571 7.82725 10.9217 7.95029 10.9108L8.03529 10.9064H9.90341L12.3609 7.9577ZM13.3209 8.7577L11.5303 10.9064H15.1115L13.3209 8.7577Z" fill="#0C2638"/>
</svg>
