<svg width="26" height="26" viewBox="0 0 26 26" fill="none" xmlns="http://www.w3.org/2000/svg">
<g clip-path="url(#clip0_0_11933)">
<path d="M19.5842 11.0547C19.4155 10.5859 19.0967 10.2484 18.6905 10.0734C17.9592 9.76091 17.0717 10.0234 16.378 10.6859C16.4467 10.5047 16.5092 10.3109 16.5655 10.1047C16.7217 9.26091 16.5842 8.41716 16.178 7.84841C15.9092 7.46091 15.5217 7.21716 15.0905 7.14841C14.128 7.01091 13.1717 7.82341 12.7717 9.02341C12.3717 7.80466 11.403 6.99841 10.4342 7.14841C10.003 7.22341 9.61547 7.47966 9.34672 7.87341C8.94672 8.45466 8.82172 9.26716 8.99672 10.1109C9.02797 10.2734 9.06547 10.4234 9.12172 10.5672C8.44047 9.99841 7.62797 9.77341 6.94047 10.0734C6.52797 10.2547 6.21547 10.6047 6.04672 11.0672C5.81172 11.7172 5.89047 12.5109 6.25297 13.2547C6.77797 14.2734 7.70297 14.9047 8.57172 14.9047C8.79672 14.9047 9.02172 14.8609 9.23422 14.7734C9.64672 14.5922 9.96547 14.2422 10.1342 13.7922C10.3342 13.2672 10.3155 12.6297 10.0905 11.9984C10.4342 12.2672 10.8217 12.4297 11.2217 12.4297C11.2967 12.4297 11.378 12.4234 11.453 12.4109C11.878 12.3484 12.2655 12.0984 12.5342 11.7109C12.628 11.5734 12.7092 11.4234 12.7717 11.2609C12.8342 11.4234 12.9092 11.5734 13.003 11.7047C13.2717 12.0922 13.6592 12.3422 14.0905 12.4109C14.1655 12.4234 14.2467 12.4297 14.3217 12.4297C14.7717 12.4297 15.2092 12.2234 15.5842 11.8797C15.3155 12.5484 15.2905 13.2297 15.4967 13.7922C15.6655 14.2484 15.9842 14.5922 16.3967 14.7734C16.6092 14.8609 16.8342 14.9047 17.0655 14.9047C17.928 14.9047 18.853 14.2734 19.378 13.2547C19.7405 12.5109 19.8217 11.7109 19.5842 11.0547ZM15.503 14.9609C14.6592 14.0547 13.9967 12.4234 12.7467 12.4234C11.4905 12.4234 10.8655 14.0797 9.98422 14.9609C9.32172 15.6422 8.20297 16.1422 8.09047 17.0734C8.00922 17.7484 8.44047 18.5609 9.06547 18.8672C9.28422 18.9797 9.51547 19.0234 9.75297 19.0234C10.6967 19.0234 11.753 18.3172 12.7467 18.3172C13.753 18.3172 14.803 19.0047 15.7592 19.0047C15.9905 19.0047 16.2155 18.9672 16.4342 18.8672C16.9717 18.6234 17.4217 17.9734 17.3967 17.3859C17.353 16.3672 16.1967 15.7234 15.503 14.9609Z" fill="#0C2638"/>
</g>
<defs>
<clipPath id="clip0_0_11933">
<rect width="15" height="15" fill="white" transform="translate(5.31543 5.89844)"/>
</clipPath>
</defs>
</svg>
