<svg width="26" height="26" viewBox="0 0 26 26" fill="none" xmlns="http://www.w3.org/2000/svg">
<g clip-path="url(#clip0_0_11954)">
<path d="M16.1445 15.2853H15.5594L15.352 15.0854C15.8149 14.5477 16.1531 13.9143 16.3426 13.2307C16.5321 12.547 16.5681 11.8299 16.4481 11.1307C16.1 9.0719 14.3819 7.42783 12.3083 7.17603C11.5793 7.08381 10.8388 7.15957 10.1436 7.39753C9.44839 7.63549 8.81682 8.02934 8.29722 8.54893C7.77763 9.06853 7.38378 9.7001 7.14582 10.3953C6.90786 11.0905 6.8321 11.831 6.92433 12.56C7.17612 14.6336 8.82019 16.3517 10.879 16.6998C11.5782 16.8198 12.2953 16.7838 12.979 16.5943C13.6626 16.4048 14.296 16.0666 14.8336 15.6038L15.0336 15.8111V16.3962L18.181 19.5436C18.4847 19.8472 18.9808 19.8472 19.2845 19.5436C19.5881 19.24 19.5881 18.7438 19.2845 18.4401L16.1445 15.2853ZM11.701 15.2853C9.85699 15.2853 8.36844 13.7968 8.36844 11.9527C8.36844 10.1087 9.85699 8.62015 11.701 8.62015C13.545 8.62015 15.0336 10.1087 15.0336 11.9527C15.0336 13.7968 13.545 15.2853 11.701 15.2853Z" fill="#0C2638"/>
</g>
<defs>
<clipPath id="clip0_0_11954">
<rect width="15" height="15" fill="white" transform="translate(6.69922 5.76172)"/>
</clipPath>
</defs>
</svg>
