<svg width="26" height="26" viewBox="0 0 26 26" fill="none" xmlns="http://www.w3.org/2000/svg">
<path fill-rule="evenodd" clip-rule="evenodd" d="M7.45021 7.47656C7.05163 7.47656 6.72852 7.80185 6.72852 8.20312V11.7995C6.72852 12.2007 7.05163 12.526 7.45021 12.526H11.6205C12.0191 12.526 12.3422 12.2007 12.3422 11.7995V8.20312C12.3422 7.80185 12.0191 7.47656 11.6205 7.47656H7.45021Z" fill="#0C2638"/>
<path fill-rule="evenodd" clip-rule="evenodd" d="M14.0186 7.47656C13.62 7.47656 13.2969 7.80185 13.2969 8.20312V11.7995C13.2969 12.2007 13.62 12.526 14.0186 12.526H18.1889C18.5875 12.526 18.9106 12.2007 18.9106 11.7995V8.20312C18.9106 7.80185 18.5875 7.47656 18.1889 7.47656H14.0186Z" fill="#0C2638"/>
<path fill-rule="evenodd" clip-rule="evenodd" d="M7.45021 13.4607C7.05163 13.4607 6.72852 13.786 6.72852 14.1872V17.7836C6.72852 18.1849 7.05163 18.5102 7.45021 18.5102H11.6205C12.0191 18.5102 12.3422 18.1849 12.3422 17.7836V14.1872C12.3422 13.786 12.0191 13.4607 11.6205 13.4607H7.45021Z" fill="#0C2638"/>
<path fill-rule="evenodd" clip-rule="evenodd" d="M14.0186 13.4607C13.62 13.4607 13.2969 13.786 13.2969 14.1872V17.7836C13.2969 18.1849 13.62 18.5102 14.0186 18.5102H18.1889C18.5875 18.5102 18.9106 18.1849 18.9106 17.7836V14.1872C18.9106 13.786 18.5875 13.4607 18.1889 13.4607H14.0186Z" fill="#0C2638"/>
</svg>
