<svg width="27" height="27" viewBox="0 0 27 27" fill="none" xmlns="http://www.w3.org/2000/svg">
<path d="M13.4192 3.19348C16.2469 3.19348 16.5997 3.20427 17.7091 3.25824C18.8175 3.3122 19.5721 3.49245 20.2361 3.76011C20.923 4.03425 21.5016 4.40553 22.0803 5.00454C22.6095 5.54407 23.019 6.19671 23.2803 6.91704C23.5373 7.60455 23.7122 8.38812 23.7642 9.53757C23.8131 10.6881 23.8267 11.054 23.8267 13.9864C23.8267 16.9189 23.8163 17.2847 23.7642 18.4353C23.7122 19.5847 23.5373 20.3672 23.2803 21.0558C23.0197 21.7765 22.6102 22.4293 22.0803 22.9683C21.5599 23.5169 20.9306 23.9415 20.2361 24.2127C19.5731 24.4793 18.8175 24.6606 17.7091 24.7146C16.5997 24.7653 16.2469 24.7793 13.4192 24.7793C10.5915 24.7793 10.2387 24.7686 9.12923 24.7146C8.02083 24.6606 7.26629 24.4793 6.6023 24.2127C5.90742 23.9423 5.27797 23.5176 4.75809 22.9683C4.22878 22.4288 3.81927 21.7762 3.55811 21.0558C3.30001 20.3683 3.1262 19.5847 3.07416 18.4353C3.02525 17.2847 3.01172 16.9189 3.01172 13.9864C3.01172 11.054 3.02213 10.6881 3.07416 9.53757C3.1262 8.38704 3.30001 7.60563 3.55811 6.91704C3.81854 6.19627 4.22815 5.54345 4.75809 5.00454C5.27812 4.45542 5.90752 4.03072 6.6023 3.76011C7.26629 3.49245 8.01979 3.3122 9.12923 3.25824C10.2387 3.20751 10.5915 3.19348 13.4192 3.19348ZM13.4192 8.58995C12.0391 8.58995 10.7155 9.1585 9.73959 10.1705C8.7637 11.1826 8.21545 12.5552 8.21545 13.9864C8.21545 15.4176 8.7637 16.7903 9.73959 17.8023C10.7155 18.8143 12.0391 19.3829 13.4192 19.3829C14.7993 19.3829 16.1229 18.8143 17.0988 17.8023C18.0747 16.7903 18.6229 15.4176 18.6229 13.9864C18.6229 12.5552 18.0747 11.1826 17.0988 10.1705C16.1229 9.1585 14.7993 8.58995 13.4192 8.58995ZM20.184 8.32012C20.184 7.96232 20.047 7.61916 19.803 7.36616C19.559 7.11315 19.2281 6.97101 18.8831 6.97101C18.5381 6.97101 18.2072 7.11315 17.9632 7.36616C17.7192 7.61916 17.5822 7.96232 17.5822 8.32012C17.5822 8.67793 17.7192 9.02109 17.9632 9.27409C18.2072 9.5271 18.5381 9.66924 18.8831 9.66924C19.2281 9.66924 19.559 9.5271 19.803 9.27409C20.047 9.02109 20.184 8.67793 20.184 8.32012ZM13.4192 10.7485C14.2473 10.7485 15.0414 11.0897 15.6269 11.6969C16.2125 12.3041 16.5414 13.1277 16.5414 13.9864C16.5414 14.8452 16.2125 15.6687 15.6269 16.2759C15.0414 16.8832 14.2473 17.2243 13.4192 17.2243C12.5911 17.2243 11.797 16.8832 11.2114 16.2759C10.6259 15.6687 10.2969 14.8452 10.2969 13.9864C10.2969 13.1277 10.6259 12.3041 11.2114 11.6969C11.797 11.0897 12.5911 10.7485 13.4192 10.7485Z" fill="#576778"/>
</svg>
