<svg width="138" height="165" viewBox="0 0 138 165" fill="none" xmlns="http://www.w3.org/2000/svg">
<g filter="url(#filter0_d_0_2154)">
<path d="M46.8867 2C46.8867 0.895429 47.7821 0 48.8867 0H89.1135C90.218 0 91.1135 0.895431 91.1135 2V141.599C91.1135 143.266 89.1946 144.201 87.8817 143.175L70.2319 129.376C69.5082 128.81 68.492 128.81 67.7683 129.376L50.1185 143.175C48.8055 144.201 46.8867 143.266 46.8867 141.599V2Z" fill="#FCD039"/>
<g clip-path="url(#clip0_0_2154)">
<path d="M120.545 59.9487C120.545 31.3257 97.4188 8.12207 68.8908 8.12207C40.3628 8.12207 17.2363 31.3257 17.2363 59.9487C17.2363 88.5718 40.3628 111.775 68.8908 111.775C97.4188 111.775 120.545 88.5718 120.545 59.9487Z" fill="#FCD039"/>
<path d="M61.0219 20.4022C60.7959 20.142 60.5064 20.0041 60.2013 19.9931C59.6523 19.975 59.1468 20.3674 58.8662 20.9695C58.8652 20.8352 58.8569 20.6944 58.8413 20.5471C58.7308 19.963 58.4309 19.4527 58.0273 19.1875C57.7571 19.0047 57.4468 18.9447 57.1521 19.0086C56.498 19.1616 56.0862 19.9264 56.129 20.8018C55.5665 20.1153 54.7415 19.838 54.1555 20.1782C53.8967 20.3349 53.7115 20.5978 53.6368 20.9195C53.5252 21.3953 53.6479 21.9513 53.972 22.4522C54.0328 22.5493 54.0943 22.6367 54.1665 22.7154C53.5857 22.5193 53.0066 22.5781 52.639 22.9445C52.4189 23.1651 52.3056 23.4696 52.3128 23.8107C52.3242 24.2894 52.5737 24.7822 52.9931 25.1714C53.586 25.6973 54.3393 25.8726 54.8983 25.6544C55.0434 25.5979 55.1771 25.5131 55.2919 25.4032C55.5119 25.1826 55.6298 24.8765 55.6256 24.5435C55.6229 24.1543 55.4511 23.7474 55.1485 23.3963C55.437 23.4835 55.7269 23.4911 55.9843 23.3906C56.0326 23.3718 56.0834 23.3473 56.1283 23.3204C56.3864 23.1733 56.573 22.9145 56.649 22.5968C56.675 22.4845 56.6898 22.3672 56.6895 22.2466C56.7703 22.3358 56.856 22.4138 56.9493 22.4751C57.2191 22.6577 57.5311 22.7218 57.8259 22.6579C57.8773 22.6471 57.9312 22.6308 57.9793 22.612C58.2692 22.4989 58.4989 22.2558 58.6544 21.9397C58.6489 22.439 58.8033 22.8852 59.0766 23.1966C59.2995 23.4488 59.5908 23.5907 59.9017 23.6041C60.0603 23.6073 60.2161 23.579 60.3647 23.5209C60.92 23.3043 61.3574 22.6643 61.4399 21.8746C61.4873 21.3033 61.3391 20.7663 61.0219 20.4022ZM59.3734 23.9497C58.6036 23.5764 57.7689 22.6895 56.9641 23.0035C56.1556 23.319 56.1681 24.5455 55.8215 25.3359C55.5659 25.9422 54.9709 26.5461 55.1315 27.1757C55.2483 27.632 55.7293 28.0483 56.2082 28.089C56.3771 28.1067 56.5371 28.0769 56.6898 28.0172C57.2972 27.7802 57.8003 27.0589 58.4398 26.8092C59.0873 26.5565 59.9352 26.7367 60.5506 26.4965C60.6995 26.4384 60.835 26.3577 60.9507 26.2382C61.2354 25.9457 61.3622 25.413 61.1991 25.0399C60.9161 24.3931 60.0106 24.2678 59.3734 23.9497Z" fill="black"/>
<path d="M67.0529 69.463C67.0529 70.6503 63.7032 72.3386 61.9766 72.3386C60.2497 72.3386 57.2507 70.6503 57.2507 69.463C57.0983 67.4315 60.1133 67.4315 61.8398 67.4315C63.5663 67.4315 66.5803 67.1535 67.0529 69.463Z" fill="black"/>
<path d="M60.1055 85.7972C60.1055 85.1178 60.6545 84.5673 61.3317 84.5673H63.6612C64.3384 84.5673 64.8874 85.1178 64.8874 85.7972V88.1348C64.8874 88.8143 64.3384 89.3648 63.6612 89.3648H61.3317C60.6545 89.3648 60.1055 88.8143 60.1055 88.1348V85.7972Z" fill="black"/>
<path fill-rule="evenodd" clip-rule="evenodd" d="M57.1944 83.0489C56.3796 82.6471 55.4277 83.242 55.4277 84.153V89.8141C55.4277 90.7445 56.4173 91.3384 57.2341 90.8977L60.2632 89.2649C60.0417 89.0424 59.9049 88.7349 59.9049 88.3955V85.6541C59.9049 85.2356 60.1129 84.8661 60.4308 84.6439L57.1944 83.0489ZM64.6976 84.7524C64.9387 84.977 65.0894 85.2977 65.0894 85.6541V88.3955C65.0894 88.6749 64.9968 88.9325 64.8406 89.1388L67.7281 90.8087C68.5456 91.2815 69.5666 90.6894 69.5666 89.7427V84.2168C69.5666 83.2905 68.5853 82.6967 67.7688 83.1283L64.6976 84.7524Z" fill="black"/>
<path d="M76.4883 75.8527C76.4883 75.6302 76.7049 75.4707 76.9178 75.5338C77.8855 75.8202 80.2865 76.4757 82.001 76.4757C83.7151 76.4757 86.1164 75.8202 87.0842 75.5338C87.297 75.4707 87.5137 75.6302 87.5137 75.8527V76.1689C87.5137 76.3152 87.418 76.4435 87.277 76.4816C86.4799 76.6983 83.8374 77.3763 82.001 77.3763C80.1646 77.3763 77.5221 76.6983 76.7246 76.4816C76.584 76.4435 76.4883 76.3152 76.4883 76.1689V75.8527Z" fill="black"/>
<path d="M84.1346 80.0301C84.1346 81.2126 83.1793 82.1711 82.0011 82.1711C80.8225 82.1711 79.8672 81.2126 79.8672 80.0301C79.8672 78.8479 80.8225 77.8894 82.0011 77.8894C83.1793 77.8894 84.1346 78.8479 84.1346 80.0301Z" fill="black"/>
<path d="M81.6055 76.8879H82.3964V77.8648H81.6055V76.8879Z" fill="black"/>
<path d="M85.7361 67.9869C85.7188 67.8271 86.0215 67.6905 86.0215 67.6905C86.0215 67.6905 91.1876 66.4997 94.4866 66.8817C98.2181 67.3137 103.513 70.2149 103.513 70.2149C103.513 70.2149 98.0533 67.7057 94.3726 67.3587C91.0888 67.0492 85.9551 68.2223 85.9551 68.2223C85.9551 68.2223 85.7495 68.112 85.7361 67.9869Z" fill="black"/>
<path fill-rule="evenodd" clip-rule="evenodd" d="M103.533 70.1789C103.533 70.1789 103.533 70.1789 103.513 70.2149C103.496 70.252 103.496 70.252 103.496 70.252L103.492 70.2503L103.48 70.2448C103.47 70.2402 103.454 70.233 103.434 70.224C103.393 70.2056 103.333 70.1785 103.254 70.1439C103.098 70.0745 102.871 69.9754 102.586 69.8551C102.017 69.6145 101.221 69.2904 100.309 68.9555C98.4842 68.285 96.2035 67.5723 94.3684 67.3997C92.7321 67.2454 90.6317 67.4603 88.9383 67.7148C88.0921 67.842 87.3486 67.9789 86.8162 68.084C86.5501 68.1363 86.3373 68.181 86.1904 68.2126C86.1172 68.2282 86.0605 68.2407 86.0222 68.249C86.0032 68.2535 85.9887 68.2566 85.9786 68.2587L85.9676 68.2615L85.9641 68.2622C85.9641 68.2622 85.9641 68.2622 85.9551 68.2223C85.9358 68.2584 85.9358 68.2584 85.9358 68.2584L85.9348 68.258L85.933 68.257C85.9313 68.2559 85.9289 68.2545 85.9258 68.2528C85.9196 68.2493 85.9113 68.2441 85.9009 68.2379C85.8805 68.2247 85.8529 68.2064 85.8249 68.1835C85.7969 68.1606 85.7672 68.1329 85.7433 68.1013C85.7195 68.0701 85.6998 68.033 85.6953 67.9914C85.6894 67.9373 85.7109 67.8888 85.7402 67.8489C85.7696 67.8087 85.8093 67.7741 85.8477 67.7456C85.8864 67.7172 85.9254 67.694 85.9548 67.678C85.9693 67.6701 85.9817 67.6638 85.9904 67.6597C85.9945 67.6576 85.998 67.6558 86.0004 67.6548L86.0032 67.6534L86.0042 67.6531H86.0045C86.0045 67.6531 86.0045 67.6531 86.0211 67.6905C86.0121 67.6503 86.0121 67.6503 86.0121 67.6503L86.0159 67.6496L86.027 67.6468C86.037 67.6447 86.0519 67.6413 86.0712 67.6371C86.1099 67.6285 86.1669 67.6156 86.2412 67.6C86.3891 67.5681 86.604 67.5231 86.8721 67.47C87.4084 67.3643 88.1581 67.2274 89.0109 67.1022C90.7153 66.8523 92.8361 66.6491 94.4911 66.8408C96.3631 67.0575 98.6245 67.893 100.415 68.6726C101.311 69.0626 102.09 69.4391 102.646 69.7182C102.923 69.8575 103.145 69.9726 103.297 70.053C103.373 70.0933 103.432 70.1245 103.472 70.1459C103.492 70.1567 103.507 70.1647 103.517 70.1702L103.528 70.1768L103.531 70.1782L103.532 70.1785L103.533 70.1789ZM86.0211 67.6905L86.0121 67.6503L86.008 67.6513L86.0045 67.6531L86.0211 67.6905ZM86.0346 67.7293C86.0325 67.7304 86.0298 67.7318 86.0263 67.7335C86.0184 67.7373 86.0073 67.7429 85.9935 67.7501C85.9665 67.765 85.9309 67.7862 85.8961 67.8118C85.8612 67.8375 85.8283 67.867 85.8059 67.8975C85.7834 67.9283 85.7737 67.9564 85.7765 67.9824C85.7786 68.0036 85.7896 68.0271 85.8083 68.0517C85.8269 68.076 85.8511 68.0992 85.8764 68.1197C85.9012 68.1398 85.9258 68.1564 85.9444 68.1682C85.951 68.1724 85.9569 68.1758 85.9614 68.1786C85.9714 68.1765 85.9859 68.1731 86.0045 68.1689C86.0432 68.1606 86.0999 68.1481 86.1735 68.1322C86.3203 68.1006 86.5339 68.0562 86.8006 68.0036C87.3337 67.8982 88.0787 67.7612 88.9262 67.6337C90.6206 67.3792 92.7293 67.1625 94.3764 67.3178C96.2221 67.4919 98.5115 68.2074 100.337 68.8782C101.144 69.1749 101.862 69.463 102.411 69.6925C101.876 69.427 101.175 69.0928 100.383 68.7478C98.593 67.9689 96.3413 67.1376 94.4818 66.9223C92.8378 66.732 90.726 66.9334 89.0226 67.1833C88.1716 67.3081 87.4232 67.4451 86.888 67.5505C86.6203 67.6031 86.4057 67.6482 86.2582 67.6801C86.1846 67.6961 86.1276 67.7085 86.0889 67.7172C86.0695 67.7214 86.055 67.7248 86.045 67.7269L86.0346 67.7293ZM85.9551 68.2223L85.9358 68.2584L85.9493 68.2656L85.9641 68.2622L85.9551 68.2223ZM103.513 70.2149L103.496 70.252L103.533 70.1789L103.513 70.2149Z" fill="black"/>
<path d="M86.2805 69.6543C86.2729 69.5399 86.4923 69.4515 86.4923 69.4515C86.4923 69.4515 90.2038 68.7572 92.5402 69.1264C95.183 69.5441 98.8658 71.7655 98.8658 71.7655C98.8658 71.7655 95.0793 69.9025 92.4704 69.5469C90.1426 69.2293 86.4294 69.828 86.4294 69.828C86.4294 69.828 86.2863 69.7434 86.2805 69.6543Z" fill="black"/>
<path fill-rule="evenodd" clip-rule="evenodd" d="M98.8868 71.7306C98.8868 71.7306 98.8868 71.7306 98.8657 71.7656C98.8477 71.8024 98.8477 71.8024 98.8477 71.8024L98.845 71.8013L98.837 71.7972C98.8297 71.7937 98.819 71.7885 98.8049 71.7816C98.7765 71.768 98.7347 71.7476 98.6805 71.7219C98.572 71.6703 98.4141 71.5964 98.2165 71.5063C97.8212 71.3264 97.2666 71.0827 96.6312 70.8279C95.3587 70.3176 93.7638 69.7647 92.4647 69.5875C91.3055 69.4294 89.799 69.4995 88.5804 69.6094C87.9716 69.6641 87.4354 69.7293 87.0511 69.7803C86.8594 69.8059 86.7053 69.8281 86.5996 69.8437C86.5463 69.8517 86.5056 69.8579 86.4779 69.8621C86.4641 69.8641 86.4534 69.8659 86.4465 69.8669L86.4385 69.8683L86.4358 69.8687C86.4358 69.8687 86.4358 69.8687 86.4292 69.8281C86.4085 69.8635 86.4085 69.8635 86.4085 69.8635L86.4081 69.8631L86.4064 69.8624C86.4054 69.8614 86.4036 69.8603 86.4016 69.859C86.3971 69.8565 86.3909 69.8524 86.3836 69.8475C86.3694 69.8375 86.3497 69.8232 86.3301 69.8056C86.3104 69.7882 86.2893 69.7667 86.2727 69.7428C86.2561 69.7189 86.2416 69.6898 86.2395 69.6572C86.2368 69.6146 86.2554 69.5775 86.2782 69.5487C86.3014 69.5199 86.3318 69.4953 86.3605 69.4762C86.3895 69.4565 86.4185 69.4412 86.4399 69.4305C86.4506 69.4253 86.46 69.4211 86.4662 69.4183C86.4696 69.4166 86.4721 69.4156 86.4738 69.4149L86.4759 69.4142L86.4765 69.4138H86.4769C86.4769 69.4138 86.4769 69.4138 86.4921 69.4516C86.4845 69.4114 86.4845 69.4114 86.4848 69.4114L86.4873 69.4111L86.4956 69.4093C86.5025 69.4079 86.5132 69.4062 86.527 69.4038C86.555 69.3986 86.5961 69.3913 86.6493 69.3823C86.7554 69.3639 86.9098 69.3383 87.1023 69.3084C87.4872 69.2492 88.0248 69.1736 88.6357 69.1098C89.8564 68.9822 91.3728 68.9004 92.5466 69.0862C93.874 69.296 95.4599 69.9581 96.7117 70.5658C97.3382 70.8702 97.8817 71.161 98.2686 71.3763C98.4625 71.4838 98.6166 71.5722 98.7226 71.6339C98.7758 71.6647 98.8166 71.689 98.8446 71.7053C98.8584 71.7136 98.8688 71.7199 98.876 71.724L98.884 71.7289L98.8864 71.7303L98.8868 71.7306ZM86.4921 69.4516L86.4848 69.4114L86.4807 69.4121L86.4769 69.4138L86.4921 69.4516ZM86.5038 69.4911C86.5025 69.4918 86.5011 69.4925 86.499 69.4932C86.4935 69.4956 86.4855 69.4995 86.4759 69.504C86.4565 69.5137 86.4309 69.5272 86.4061 69.5442C86.3808 69.5612 86.358 69.5802 86.3421 69.6C86.3263 69.6201 86.32 69.6371 86.3211 69.6516C86.3218 69.6638 86.3276 69.6787 86.3397 69.6957C86.3515 69.7127 86.3674 69.7293 86.384 69.7442C86.4009 69.7588 86.4175 69.7712 86.4299 69.7799C86.433 69.782 86.4358 69.7837 86.4382 69.7855C86.4451 69.7841 86.4541 69.7827 86.4655 69.7809C86.4931 69.7768 86.5343 69.7706 86.5875 69.7626C86.6939 69.7466 86.848 69.7244 87.0404 69.6991C87.4253 69.6478 87.963 69.5827 88.5731 69.5275C89.7928 69.4176 91.3069 69.3469 92.4757 69.5064C93.7852 69.6849 95.3881 70.2413 96.6613 70.7516C97.1599 70.9513 97.6084 71.1444 97.9694 71.3052C97.6146 71.1125 97.1713 70.8802 96.6762 70.6396C95.4257 70.0326 93.8488 69.375 92.5338 69.167C91.3711 68.9833 89.8636 69.064 88.6443 69.1916C88.0352 69.2551 87.4986 69.3303 87.1147 69.3896C86.923 69.419 86.7689 69.4447 86.6631 69.4631C86.6103 69.4721 86.5691 69.4794 86.5415 69.4846C86.5277 69.487 86.5173 69.4887 86.5101 69.4901L86.5038 69.4911ZM86.4292 69.8281L86.4085 69.8635L86.4213 69.8711L86.4358 69.8687L86.4292 69.8281ZM98.8657 71.7656L98.8477 71.8024L98.8868 71.7306L98.8657 71.7656Z" fill="black"/>
<path d="M90.6056 62.3428C90.6056 63.9364 89.3179 65.2285 87.7296 65.2285C86.1412 65.2285 84.8535 63.9364 84.8535 62.3428C84.8535 60.7492 86.1412 59.4572 87.7296 59.4572C89.3179 59.4572 90.6056 60.7492 90.6056 62.3428Z" fill="black"/>
<path fill-rule="evenodd" clip-rule="evenodd" d="M47.2812 44.016L47.4358 43.7965L47.1742 43.6107L47.0386 43.9023L47.2812 44.016ZM61.0365 78.1349C61.2707 78.2649 61.2704 78.2649 61.2704 78.2649L61.2701 78.2656L61.2694 78.2673L61.2663 78.2725C61.2638 78.277 61.2604 78.2833 61.2555 78.2912C61.2462 78.3075 61.2327 78.3308 61.2155 78.3602C61.1802 78.4192 61.1291 78.5024 61.0631 78.6033C61.022 78.666 60.9781 78.7423 60.9297 78.8262C60.8233 79.0109 60.6951 79.2328 60.5303 79.428C60.0601 79.9844 59.3369 80.5626 58.5153 80.7453C56.597 81.1714 55.1741 80.6798 54.0426 79.7043C52.93 78.7454 52.1063 77.3247 51.3444 75.9148C49.9114 73.2639 49.6066 71.5631 49.1044 68.7607L49.1032 68.7541L49.1032 68.7534C49.0773 68.6092 49.0508 68.4619 49.0237 68.3111C48.7283 66.6703 48.5966 64.5459 48.5381 62.8403C48.5088 61.9854 48.4978 61.2325 48.4941 60.6934C48.4923 60.4237 48.4923 60.207 48.4927 60.058C48.4928 60.0323 48.4929 60.0084 48.493 59.9869C48.4931 59.9737 48.4932 59.9613 48.4932 59.9498C48.4716 59.9304 48.4465 59.9075 48.4183 59.8815C48.3123 59.7838 48.1613 59.6409 47.98 59.4586C47.6175 59.0939 47.1322 58.5697 46.6403 57.9315C45.6626 56.6634 44.6312 54.9086 44.5303 53.0394C44.4385 51.3362 45.0772 49.0388 45.7203 47.1977C46.0441 46.2707 46.3733 45.4477 46.6215 44.8566C46.7457 44.5609 46.8497 44.3228 46.9228 44.1584C46.9593 44.0763 46.9882 44.0125 47.0079 43.9692C47.0178 43.9477 47.0254 43.931 47.0306 43.9196L47.0365 43.9068L47.0386 43.9023C47.0386 43.9023 47.0386 43.9023 47.2812 44.016C47.4358 43.7965 47.4358 43.7965 47.4358 43.7965L47.4371 43.7976L47.4402 43.7997L47.4519 43.808C47.4622 43.8156 47.4773 43.8263 47.497 43.8406C47.5363 43.8693 47.5937 43.9113 47.667 43.9661C47.8137 44.0753 48.024 44.2354 48.2803 44.4382C48.7926 44.8442 49.4893 45.4227 50.2273 46.1154C51.6938 47.4913 53.3595 49.3491 54.0284 51.2086C54.2533 51.8337 54.4358 52.6535 54.5608 53.3077C54.6237 53.6367 54.6731 53.9272 54.7067 54.1359L54.7108 54.1626C54.8331 54.1258 54.9903 54.0794 55.1762 54.026C55.6516 53.889 56.3171 53.7063 57.0772 53.5219C58.592 53.1551 60.5027 52.7773 62.0357 52.7561C63.5508 52.7353 65.4494 53.0522 66.9565 53.3694C67.7129 53.5288 68.3756 53.6894 68.8493 53.81C69.0604 53.8637 69.2342 53.9095 69.362 53.9442C69.4062 53.8055 69.466 53.6155 69.5337 53.394C69.6771 52.926 69.8547 52.32 69.9947 51.7612C70.5057 49.7207 72.2799 47.7215 73.88 46.2551C74.6864 45.516 75.4614 44.901 76.0346 44.4708C76.3214 44.2555 76.5581 44.0863 76.7232 43.9706C76.8058 43.9127 76.8707 43.8683 76.9153 43.8381C76.9374 43.8229 76.9547 43.8114 76.9661 43.8038C76.972 43.7997 76.9765 43.7969 76.9796 43.7948L76.9841 43.7917H76.9844C76.9844 43.7917 76.9844 43.7917 77.1268 44.0083L76.9844 43.7917L77.2463 43.6183L77.3755 43.905L77.1316 44.016C77.3755 43.905 77.3755 43.905 77.3755 43.905L77.3762 43.9064L77.3776 43.9099L77.3835 43.9227C77.3887 43.9342 77.3959 43.9508 77.4056 43.9726C77.4249 44.016 77.4529 44.0801 77.4885 44.163C77.5594 44.328 77.6606 44.5672 77.7808 44.8643C78.0217 45.4578 78.3399 46.2839 78.6505 47.2129C79.2672 49.0575 79.8702 51.3566 79.7389 53.0456C79.5896 54.9665 78.42 56.7223 77.3216 57.9783C76.7688 58.6106 76.2257 59.1261 75.8207 59.4832C75.6179 59.6621 75.4496 59.8014 75.3311 59.8968C75.3052 59.9179 75.2817 59.9366 75.2606 59.9533L75.262 59.9744C75.2638 59.9942 75.2651 60.0153 75.2669 60.0382C75.2779 60.1869 75.2928 60.4026 75.3094 60.6712C75.3429 61.2089 75.383 61.9598 75.4096 62.8133C75.4628 64.5161 75.4635 66.6426 75.2479 68.2982C74.856 71.3083 74.5679 73.3162 72.916 75.9305C71.9893 77.3972 71.0968 78.6057 70.0047 79.4446C68.9021 80.2915 67.6103 80.7515 65.9079 80.7515C64.9567 80.7515 64.1482 80.087 63.6061 79.4897C63.3286 79.1839 63.1065 78.8795 62.9538 78.6518C62.877 78.5377 62.8176 78.4424 62.7768 78.3748C62.7565 78.3412 62.7409 78.3145 62.7302 78.2958C62.7247 78.2864 62.7205 78.2791 62.7178 78.2739L62.7143 78.268L62.7133 78.2663L62.7129 78.2656V78.2653C62.7129 78.2653 62.7126 78.2653 62.9468 78.1349L62.7129 78.2653L62.6957 78.2344L62.687 78.2001L62.9316 78.1387C62.687 78.2001 62.687 78.2001 62.687 78.2001L62.6867 78.199L62.6863 78.197L62.6842 78.1886C62.6825 78.1817 62.6801 78.1716 62.677 78.1581C62.6708 78.1318 62.6618 78.0933 62.6507 78.0437C62.629 77.9449 62.5986 77.8021 62.5647 77.6253C62.4977 77.2721 62.4168 76.7805 62.3633 76.2286C62.2568 75.14 62.2486 73.76 62.7029 72.7529C62.9275 72.2547 63.3079 71.9081 63.7312 71.6443C64.1468 71.3857 64.6212 71.1967 65.0531 71.0248L65.0642 71.0206C65.598 70.8081 66.0496 70.6254 66.3526 70.3734C66.4984 70.2521 66.5989 70.1227 66.6566 69.9761C66.714 69.8305 66.7361 69.6492 66.695 69.4114C66.619 68.9711 66.4345 68.6539 66.1784 68.4178C65.9183 68.1779 65.5703 68.0095 65.1523 67.8944C64.3071 67.6618 63.2488 67.6642 62.2233 67.6687C62.1622 67.669 62.101 67.669 62.0402 67.6694C61.9666 67.6697 61.8927 67.6697 61.8187 67.6701C60.8064 67.6718 59.7671 67.676 58.9389 67.9103C58.5294 68.0261 58.1894 68.1935 57.9355 68.4307C57.6853 68.6643 57.5053 68.977 57.4314 69.4107C57.3916 69.6443 57.4131 69.8239 57.4687 69.9692C57.5247 70.1155 57.6228 70.2451 57.7638 70.3671C58.0568 70.6206 58.4935 70.8081 59.0097 71.0265L59.0204 71.031C59.4354 71.2064 59.8914 71.3992 60.2912 71.6588C60.6979 71.923 61.2808 72.7539 61.2808 72.7539C61.7303 73.7624 61.722 75.1414 61.617 76.23C61.5634 76.7812 61.4836 77.2724 61.4172 77.6253C61.3837 77.8021 61.3537 77.9446 61.3319 78.0434C61.3212 78.093 61.3122 78.1314 61.306 78.1578C61.3029 78.171 61.3005 78.181 61.2987 78.1883L61.297 78.1963L61.2963 78.1983V78.199C61.2963 78.199 61.296 78.1994 61.0365 78.1349ZM61.0365 78.1349L61.296 78.1994L61.2877 78.2337L61.2704 78.2649L61.0365 78.1349ZM54.2274 54.5425L54.2281 54.5477L54.2723 54.8621L54.574 54.7664L54.5767 54.7654L54.5864 54.7623L54.6009 54.7578L54.6241 54.7505C54.6576 54.7401 54.7073 54.7248 54.772 54.7051C54.9008 54.6659 55.0888 54.6098 55.3237 54.5422C55.794 54.407 56.4518 54.226 57.203 54.044C58.7108 53.6786 60.5732 53.3136 62.043 53.2935C63.4959 53.2734 65.3464 53.5795 66.8467 53.8953C67.594 54.0527 68.2491 54.2111 68.7176 54.3307C68.9519 54.3903 69.1392 54.4399 69.2677 54.4749C69.332 54.4922 69.3814 54.5058 69.4149 54.5151C69.4315 54.5196 69.4443 54.5234 69.4525 54.5255L69.4643 54.529H69.465L69.7113 54.599L69.7918 54.355L69.8008 54.3279C69.8036 54.3192 69.807 54.3082 69.8115 54.2953C69.824 54.2569 69.8419 54.2007 69.8647 54.13C69.91 53.9882 69.9736 53.7875 70.0458 53.5514C70.1899 53.0799 70.3706 52.4639 70.5136 51.8922C70.9828 50.0185 72.6475 48.1122 74.241 46.6517C75.0312 45.9275 75.792 45.3236 76.3552 44.901C76.6289 44.6954 76.8559 44.5329 77.0162 44.4205C77.0846 44.58 77.1769 44.7994 77.285 45.0664C77.5227 45.6529 77.8368 46.4679 78.1429 47.3838C78.7597 49.2291 79.327 51.4346 79.205 53.004C79.0696 54.7481 77.9947 56.394 76.9195 57.6244C76.3853 58.2348 75.8594 58.7337 75.4673 59.0797C75.2714 59.2527 75.109 59.3872 74.9963 59.478C74.94 59.5234 74.8958 59.5577 74.8664 59.5806C74.8516 59.5921 74.8402 59.6007 74.8329 59.6063C74.8294 59.609 74.8267 59.6111 74.825 59.6125L74.8229 59.6139H74.8225L74.7037 59.703L74.7158 59.8517V59.8524L74.7168 59.8659C74.7175 59.8756 74.7189 59.8902 74.7203 59.9093C74.7234 59.9474 74.7275 60.0042 74.733 60.0774C74.7438 60.2244 74.7586 60.4379 74.7752 60.7045C74.8084 61.238 74.8481 61.9834 74.8744 62.8303C74.9276 64.5279 74.9269 66.6183 74.7172 68.2286C74.326 71.231 74.0482 73.136 72.464 75.6431C71.5429 77.1005 70.6922 78.2399 69.6792 79.0182C68.6765 79.7885 67.5011 80.2146 65.9079 80.2146C65.1972 80.2146 64.5252 79.705 64.002 79.1281C63.7471 78.847 63.5404 78.5644 63.3977 78.3519C63.3266 78.2458 63.2716 78.1578 63.2347 78.0968C63.2191 78.0708 63.207 78.05 63.198 78.0347V78.0344C63.1956 78.024 63.1925 78.0118 63.1894 77.9976C63.1849 77.9779 63.1794 77.9539 63.1731 77.9269C63.1524 77.8326 63.1231 77.6953 63.0906 77.5248C63.0256 77.1826 62.9479 76.708 62.896 76.1762C62.7907 75.0984 62.799 73.8428 63.1908 72.9744C63.3573 72.6049 63.6458 72.3296 64.0134 72.1008C64.3849 71.8693 64.8178 71.6963 65.2614 71.5198L65.288 71.5094C65.7884 71.3101 66.3187 71.0993 66.6943 70.7866C66.8916 70.6226 67.0564 70.4233 67.1549 70.173C67.2533 69.922 67.2775 69.6388 67.2222 69.3195C67.1272 68.768 66.8878 68.3423 66.5405 68.0223C66.1978 67.7061 65.7635 67.5058 65.2939 67.3764C64.371 67.1223 63.2426 67.1272 62.2441 67.1314H62.2213H62.2209C62.1912 67.1317 62.1618 67.1317 62.1325 67.132C62.101 67.132 62.0696 67.132 62.0385 67.1324C61.9652 67.1324 61.8916 67.1327 61.8174 67.1327H61.7945C60.8091 67.1348 59.6997 67.1369 58.7937 67.3931C58.3328 67.5234 57.9068 67.7238 57.5706 68.0375C57.2306 68.3551 56.9964 68.7763 56.9038 69.3202C56.8506 69.6343 56.8737 69.9134 56.9691 70.1619C57.0641 70.4098 57.2234 70.6088 57.4141 70.7738C57.7783 71.0889 58.2921 71.3059 58.7761 71.5104L58.802 71.5215C59.2281 71.7018 59.6437 71.8783 60.0003 72.1098C60.3531 72.339 60.6305 72.6115 60.7919 72.9734C61.1802 73.8442 61.1882 75.1005 61.0842 76.178C61.0327 76.7094 60.9556 77.184 60.891 77.5255C60.8589 77.6964 60.8302 77.8333 60.8095 77.9272C60.7991 77.9744 60.7763 78.0448 60.7528 78.0867C60.7065 78.1703 60.6592 78.242 60.6333 78.2812C60.6246 78.2944 60.6184 78.3037 60.6157 78.3086C60.4926 78.4968 60.314 78.7506 60.0919 79.013C59.6389 79.5493 58.8736 79.9965 58.2306 80.1393C56.4829 80.5279 55.264 79.7126 54.2554 78.8431C53.3933 78.0999 52.8378 77.1039 52.2241 76.0033C52.1063 75.7921 51.9864 75.5768 51.8617 75.3588C50.7381 73.1166 50.2938 71.4498 49.7926 68.6536C49.7925 68.6525 49.7924 68.6518 49.7922 68.6511L49.7935 68.6584C49.7932 68.6567 49.7929 68.655 49.7926 68.6536C49.767 68.5107 49.7409 68.3648 49.714 68.2157C49.4258 66.6152 49.2949 64.5227 49.2366 62.8216C49.2075 61.973 49.1966 61.2252 49.193 60.6896C49.1911 60.422 49.1911 60.2074 49.1916 60.0597C49.1918 59.9859 49.1922 59.929 49.1924 59.8905C49.1925 59.8777 49.1926 59.867 49.1927 59.8583L49.1928 59.8468L49.1929 59.8326C49.0721 59.711 48.9838 59.6375 48.9004 59.5681C48.7418 59.4364 48.6013 59.3192 48.2899 58.9154C47.3337 57.675 45.9664 54.998 45.8745 53.2935C45.7889 51.7068 46.2364 50.0369 46.8795 48.1957C47.1987 47.2816 47.5237 46.4693 47.7688 45.8852C47.8343 45.7295 47.9183 45.5687 47.9904 45.4307C48.0398 45.3361 48.0836 45.2522 48.1121 45.188C48.2932 45.3312 48.4766 45.4543 48.6709 45.5846C49.017 45.8169 49.3977 46.0724 49.8616 46.5075C51.32 47.8761 52.902 49.6601 53.525 51.391C53.7347 51.9744 53.9109 52.7596 54.035 53.4089C54.0968 53.7313 54.1452 54.0166 54.178 54.2215C54.1946 54.3234 54.207 54.4056 54.2153 54.4617C54.2198 54.4898 54.2229 54.5117 54.225 54.5262L54.2274 54.5425ZM55.984 58.5073C54.5436 58.7441 52.7794 60.5371 51.5399 62.3234C50.56 63.5728 50.0701 68.7607 54.0284 69.4114C57.7361 69.757 59.8555 62.7048 60.3987 60.5371C60.9543 58.3205 56.9967 58.1298 55.984 58.5073ZM56.1993 64.306C57.3281 64.306 58.2433 63.3877 58.2433 62.2551C58.2433 61.1226 57.3281 60.2046 56.1993 60.2046C55.0705 60.2046 54.1556 61.1226 54.1556 62.2551C54.1556 63.3877 55.0705 64.306 56.1993 64.306Z" fill="black"/>
<path fill-rule="evenodd" clip-rule="evenodd" d="M67.6941 64.0412C68.5973 64.0412 69.3294 63.3066 69.3294 62.4004C69.3294 61.4942 68.5973 60.76 67.6941 60.76C66.7909 60.76 66.0588 61.4942 66.0588 62.4004C66.0588 63.3066 66.7909 64.0412 67.6941 64.0412ZM67.6941 64.4513C68.8229 64.4513 69.7378 63.533 69.7378 62.4004C69.7378 61.2678 68.8229 60.3499 67.6941 60.3499C66.5653 60.3499 65.6504 61.2678 65.6504 62.4004C65.6504 63.533 66.5653 64.4513 67.6941 64.4513Z" fill="black"/>
<path d="M83.2937 67.8281C83.2937 68.5801 82.2306 69.7709 80.919 69.7709C79.6071 69.7709 78.5439 68.5801 78.5439 67.8281C78.5439 67.0759 79.6071 66.4664 80.919 66.4664C82.2306 66.4664 83.2937 67.0759 83.2937 67.8281Z" fill="black"/>
<path d="M81.5238 53.7975C81.5142 53.5743 81.6862 53.3808 81.9084 53.3656C82.1305 53.3503 82.3189 53.5188 82.3285 53.7421L82.4792 57.1886C82.4888 57.4119 82.3164 57.6053 82.0943 57.6209C81.8721 57.6362 81.6841 57.4677 81.6745 57.2444L81.5238 53.7975Z" fill="black"/>
<path d="M80.3725 55.7226C80.3628 55.4993 80.5352 55.3059 80.7574 55.2906C80.9795 55.2754 81.1675 55.4439 81.1772 55.6671L81.2425 57.164C81.2525 57.3873 81.0801 57.5807 80.8579 57.596C80.6357 57.6116 80.4478 57.4427 80.4381 57.2195L80.3725 55.7226Z" fill="black"/>
<path fill-rule="evenodd" clip-rule="evenodd" d="M93.6492 46.8031C93.6492 48.9268 93.5977 51.5129 93.4975 53.6914C93.4363 55.0236 93.3835 56.2439 93.266 57.269C93.1475 58.3052 93.001 59.0966 92.8331 59.5767C92.6434 60.1196 92.6534 60.7124 92.8621 61.2484C93.2961 62.3622 93.5041 63.6109 93.4733 64.9643C93.4204 67.271 92.7536 69.9785 90.1505 70.9786L90.5292 71.9711C93.7863 70.72 94.4777 67.3688 94.5323 64.9889C94.5658 63.5107 94.3392 62.1202 93.8489 60.8615C93.7324 60.5626 93.8326 59.9286 93.8326 59.9286M93.6492 46.8031L89.5026 52.0731C88.9992 52.7127 88.2844 53.0317 87.4745 52.9991C87.4745 52.9991 87.3826 52.9824 87.3228 52.97C87.2478 52.9547 87.139 52.9024 87.139 52.9024C83.3231 51.4065 81.3115 51.9237 81.3115 51.9237C81.3115 51.9237 83.4772 50.3481 87.5636 51.9237" fill="black"/>
<path fill-rule="evenodd" clip-rule="evenodd" d="M28.4531 63.406H29.7221C29.7221 74.0542 33.938 84.2663 41.4424 91.7956C48.9469 99.3252 59.1251 103.555 69.7379 103.555C80.3507 103.555 90.5289 99.3252 98.0332 91.7956C105.534 84.2694 109.75 74.0632 109.754 63.4202C109.754 63.4154 109.754 63.4105 109.754 63.406H111.022C111.022 64.1739 111.001 64.9397 110.959 65.7023C110.398 75.8513 106.132 85.4706 98.9305 92.6959C91.1882 100.464 80.6873 104.828 69.7379 104.828C58.7885 104.828 48.2875 100.464 40.5451 92.6959C33.344 85.4706 29.0778 75.8513 28.5166 65.7023C28.4744 64.9397 28.4531 64.1739 28.4531 63.406Z" fill="black"/>
<path d="M34.116 60.4472L23.4805 58.8057L24.0939 54.8041C24.2196 53.9843 24.4773 53.3201 24.8672 52.8115C25.2576 52.2991 25.7412 51.9417 26.318 51.7393C26.8919 51.5326 27.5164 51.4813 28.1915 51.5857C28.8735 51.6907 29.4573 51.9285 29.9428 52.2984C30.4283 52.6687 30.7803 53.1585 30.9987 53.7683C31.2136 54.3774 31.258 55.0936 31.1318 55.9169L30.7253 58.5689L29.1414 58.3245L29.5079 55.9329C29.5814 55.4538 29.5585 55.0482 29.4392 54.7171C29.3199 54.3857 29.126 54.1247 28.8575 53.934C28.5896 53.7395 28.267 53.6133 27.8896 53.5551C27.5122 53.4969 27.1684 53.5204 26.8582 53.6255C26.5485 53.7267 26.2903 53.9198 26.0836 54.2044C25.8741 54.4852 25.7323 54.8669 25.6582 55.3494L25.3867 57.1213L34.4124 58.5138L34.116 60.4472Z" fill="black"/>
<path d="M38.4302 45.7115C38.0661 46.4368 37.6015 46.9869 37.0364 47.3624C36.4697 47.7329 35.8386 47.9198 35.1431 47.9222C34.4444 47.9233 33.7181 47.7329 32.9643 47.352C32.2229 46.9772 31.6432 46.5068 31.2251 45.9414C30.8055 45.3711 30.5678 44.7513 30.5119 44.0815C30.4529 43.41 30.5968 42.7292 30.9435 42.0387C31.1674 41.593 31.4505 41.2088 31.793 40.8861C32.134 40.5587 32.5295 40.3179 32.9796 40.1637C33.4312 40.0064 33.9311 39.9561 34.4792 40.0128C35.0242 40.0679 35.6126 40.2552 36.2445 40.5747L36.7653 40.838L33.7885 46.765L32.6436 46.1865L34.7999 41.8928C34.4731 41.7314 34.1482 41.6558 33.8255 41.6658C33.4996 41.6742 33.2009 41.7652 32.9294 41.9388C32.6594 42.1093 32.4425 42.3577 32.2785 42.6841C32.1036 43.0325 32.0343 43.3812 32.0709 43.7303C32.1042 44.0777 32.22 44.3938 32.418 44.6792C32.6145 44.9596 32.8731 45.1825 33.1937 45.3486L34.1932 45.854C34.6123 46.0658 35.0107 46.1709 35.3882 46.1688C35.7626 46.1653 36.0989 46.0658 36.3972 45.8703C36.6923 45.673 36.9328 45.3895 37.1189 45.0192C37.2434 44.771 37.3217 44.5294 37.3538 44.2937C37.3827 44.0565 37.3654 43.8295 37.3018 43.6121C37.2382 43.3951 37.1237 43.1975 36.9582 43.0193L37.9357 41.5183C38.3044 41.8307 38.5743 42.2071 38.7452 42.6477C38.9146 43.0838 38.9758 43.5632 38.9287 44.0864C38.8785 44.6081 38.7124 45.1499 38.4302 45.7115Z" fill="black"/>
<path d="M40.5624 29.4721L41.6073 30.5111L38.3414 33.8173L37.2965 32.7783L40.5624 29.4721ZM36.7295 30.5964L38.0684 29.241L43.4498 34.5921C43.6314 34.7728 43.7978 34.8838 43.9491 34.9254C44.1003 34.962 44.239 34.9514 44.3651 34.8937C44.4911 34.836 44.6096 34.751 44.7206 34.6386C44.8044 34.5538 44.8746 34.4702 44.9313 34.3879C44.9903 34.3032 45.0334 34.2371 45.0604 34.1898L46.3421 35.0116C46.2955 35.1087 46.2205 35.2395 46.1172 35.404C46.0164 35.566 45.8735 35.7456 45.6887 35.9427C45.3633 36.2921 45.0102 36.5472 44.6295 36.7079C44.2463 36.8662 43.8564 36.9065 43.4597 36.8287C43.0655 36.7485 42.6906 36.529 42.3347 36.1702L36.7295 30.5964Z" fill="black"/>
<path d="M79.2182 18.9919C79.2392 18.5293 79.0893 18.1435 78.7683 17.8344C78.4504 17.5258 78.0061 17.3274 77.4346 17.2392C77.0331 17.1773 76.6793 17.1849 76.3732 17.2621C76.0674 17.3394 75.8221 17.4704 75.6379 17.6554C75.4538 17.8402 75.3394 18.0662 75.2948 18.3331C75.2606 18.5554 75.2814 18.756 75.3567 18.9347C75.4355 19.114 75.5543 19.2746 75.7136 19.4165C75.8729 19.5549 76.0543 19.6789 76.2571 19.7884C76.4603 19.8979 76.6665 19.9956 76.8766 20.0813L77.8354 20.4853C78.2227 20.6411 78.5893 20.8274 78.9352 21.0444C79.2848 21.2619 79.5879 21.5149 79.8449 21.8035C80.1054 22.0926 80.2958 22.4224 80.4161 22.793C80.5366 23.1636 80.5612 23.5799 80.4907 24.0419C80.3946 24.6672 80.151 25.1932 79.7596 25.6199C79.3688 26.0432 78.8516 26.342 78.2082 26.5165C77.5687 26.6881 76.823 26.7082 75.9714 26.5768C75.1438 26.4491 74.4452 26.2097 73.8755 25.8586C73.3088 25.5081 72.8921 25.0597 72.625 24.5136C72.3614 23.968 72.2699 23.3387 72.3507 22.6258L74.2462 22.9183C74.2172 23.2943 74.2839 23.6211 74.4469 23.8987C74.61 24.1763 74.8432 24.4007 75.1466 24.572C75.4531 24.7438 75.8076 24.8607 76.2091 24.9226C76.6278 24.9873 77.0044 24.9814 77.3389 24.905C77.6768 24.8256 77.9532 24.6869 78.1681 24.4889C78.383 24.2874 78.5161 24.0341 78.5662 23.729C78.6056 23.4506 78.5593 23.2087 78.4276 23.0035C78.2967 22.7948 78.0966 22.6075 77.8282 22.4416C77.5631 22.2728 77.248 22.1103 76.8821 21.9543L75.7198 21.4549C74.8785 21.094 74.2386 20.645 73.8001 20.1079C73.3655 19.5679 73.2065 18.9158 73.3237 18.1516C73.4201 17.5229 73.6744 16.9985 74.0859 16.5784C74.5012 16.1589 75.0229 15.8643 75.6514 15.6946C76.2806 15.5215 76.9671 15.4923 77.7114 15.6072C78.4663 15.7236 79.1072 15.9577 79.6345 16.3093C80.1659 16.658 80.5584 17.0902 80.8127 17.6058C81.0674 18.1181 81.1537 18.6754 81.0718 19.278L79.2182 18.9919Z" fill="black"/>
<path d="M92.3246 23.6307L91.6626 24.9489L87.5196 22.8542L88.1816 21.536L92.3246 23.6307ZM90.0747 20.3207L91.7732 21.1794L88.3637 27.9681C88.2486 28.1972 88.1947 28.3904 88.202 28.5475C88.2141 28.7032 88.2669 28.8322 88.3606 28.9347C88.4542 29.0371 88.5717 29.124 88.7123 29.1951C88.8187 29.2489 88.9196 29.2901 89.015 29.3187C89.1138 29.3488 89.1894 29.3695 89.2427 29.3807L88.8598 30.8577C88.7534 30.8432 88.6062 30.8121 88.4183 30.7644C88.2337 30.7182 88.0192 30.6374 87.7753 30.5219C87.3437 30.3193 86.9927 30.0612 86.7228 29.7477C86.4543 29.4309 86.2954 29.0712 86.2467 28.6687C86.2011 28.2678 86.293 27.8422 86.5231 27.3918L90.0747 20.3207Z" fill="black"/>
<path d="M92.3039 37.1792C92.1198 36.9961 91.9639 36.8117 91.8368 36.6258C91.71 36.445 91.6188 36.2901 91.5635 36.1611L92.92 35.417C93.0599 35.6698 93.2081 35.8717 93.365 36.0225C93.5215 36.1735 93.7053 36.2596 93.9161 36.281C94.1265 36.3074 94.3801 36.2528 94.6769 36.1173L95.0995 35.9216L98.8203 27.9835L100.254 29.4085L97.2842 35.0656L97.3439 35.125L102.959 32.099L104.396 33.5277L95.7318 37.6931C95.3237 37.8913 94.9243 38.0111 94.5332 38.0527C94.1396 38.0967 93.7578 38.0487 93.3881 37.9087C93.0184 37.7737 92.657 37.5305 92.3039 37.1792Z" fill="black"/>
<path d="M112.707 41.7403L103.141 46.6849L102.27 44.9883L111.835 40.0438L112.707 41.7403Z" fill="black"/>
<path d="M106.073 56.8346C105.943 56.0331 105.996 55.3141 106.234 54.6769C106.475 54.0429 106.876 53.5197 107.438 53.1076C108.002 52.6947 108.701 52.4201 109.534 52.2839C110.354 52.1501 111.098 52.1885 111.768 52.3993C112.441 52.6132 112.997 52.9748 113.434 53.4837C113.875 53.9919 114.158 54.6277 114.282 55.3907C114.362 55.8833 114.358 56.361 114.27 56.8242C114.186 57.2901 114.007 57.7182 113.733 58.1082C113.46 58.502 113.085 58.8376 112.608 59.1149C112.135 59.3916 111.549 59.5871 110.851 59.7012L110.275 59.7955L109.211 53.2448L110.477 53.0379L111.247 57.7831C111.606 57.7207 111.913 57.5907 112.169 57.392C112.428 57.193 112.616 56.9434 112.734 56.6429C112.852 56.3454 112.882 56.0168 112.823 55.6559C112.761 55.2708 112.613 54.948 112.379 54.687C112.148 54.4256 111.869 54.238 111.542 54.1243C111.219 54.0134 110.879 53.9853 110.522 54.0397L109.418 54.2204C108.954 54.2963 108.571 54.4464 108.266 54.6703C107.966 54.8943 107.752 55.173 107.625 55.5072C107.502 55.8407 107.473 56.212 107.54 56.6214C107.584 56.8952 107.663 57.1372 107.775 57.3466C107.89 57.5556 108.037 57.7293 108.216 57.8676C108.395 58.0056 108.603 58.0978 108.841 58.1446L108.93 59.9352C108.449 59.9001 108.01 59.7545 107.613 59.4991C107.221 59.2463 106.89 58.8945 106.622 58.4431C106.357 57.9917 106.174 57.4555 106.073 56.8346Z" fill="black"/>
</g>
</g>
<defs>
<filter id="filter0_d_0_2154" x="0" y="-13" width="138" height="177.603" filterUnits="userSpaceOnUse" color-interpolation-filters="sRGB">
<feFlood flood-opacity="0" result="BackgroundImageFix"/>
<feColorMatrix in="SourceAlpha" type="matrix" values="0 0 0 0 0 0 0 0 0 0 0 0 0 0 0 0 0 0 127 0" result="hardAlpha"/>
<feOffset dy="4"/>
<feGaussianBlur stdDeviation="8.5"/>
<feComposite in2="hardAlpha" operator="out"/>
<feColorMatrix type="matrix" values="0 0 0 0 0.0470588 0 0 0 0 0.0980392 0 0 0 0 0.219608 0 0 0 0.1 0"/>
<feBlend mode="normal" in2="BackgroundImageFix" result="effect1_dropShadow_0_2154"/>
<feBlend mode="normal" in="SourceGraphic" in2="effect1_dropShadow_0_2154" result="shape"/>
</filter>
<clipPath id="clip0_0_2154">
<rect x="17" y="7.94873" width="104" height="104" rx="52" fill="white"/>
</clipPath>
</defs>
</svg>
